<?xml version="1.0" encoding="UTF-8"?>
<svg version="1.1" xmlns="http://www.w3.org/2000/svg" width="500" height="500">
<path d="M0 0 C13.30526908 -0.03328472 26.61051891 -0.05874519 39.91582394 -0.07163811 C43.68387794 -0.07536867 47.45191833 -0.08124592 51.21996593 -0.08910179 C55.59924227 -0.09802291 59.97849459 -0.10184026 64.35777974 -0.10177469 C65.93984438 -0.1025113 67.52190941 -0.10489651 69.10396838 -0.10919714 C109.24841721 -0.21220823 109.24841721 -0.21220823 125.84405613 12.00793266 C126.16761082 12.6872686 126.4911655 13.36660454 126.82452488 14.06652641 C127.68501633 16.21737164 127.68501633 16.21737164 130.01202488 16.86730766 C141.8474577 21.63413026 150.81769547 34.81226629 155.84405613 46.00793266 C165.92523794 69.82510541 162.99408059 99.10208884 163.02105808 124.40905571 C163.02734374 127.05009425 163.03398206 129.69113009 163.0409708 132.33216667 C163.06043194 140.15723429 163.07074678 147.98230265 163.07969859 155.80738828 C163.08322853 158.76675818 163.08737122 161.72612708 163.09153825 164.68549615 C163.10995072 177.77257122 163.12570311 190.85964643 163.1334362 203.94673252 C163.13534521 207.1249288 163.13726572 210.30312508 163.13922215 213.48132133 C163.13970589 214.27097744 163.14018963 215.06063354 163.14068802 215.87421862 C163.14901377 228.70573716 163.1744183 241.53716331 163.20680282 254.3686414 C163.23992555 267.60194749 163.25788832 280.83520649 163.26108044 294.06855422 C163.26323709 301.47540989 163.27186497 308.88212936 163.29754162 316.28894424 C163.32160169 323.24382462 163.3250422 330.19845643 163.31478024 337.1533699 C163.31428592 339.69697193 163.32057539 342.24058622 163.33433628 344.78415108 C163.41673729 360.9227761 162.73093705 374.70929068 155.03155613 389.25793266 C154.68536228 389.92776176 154.33916843 390.59759087 153.98248386 391.28771782 C143.54367654 411.07731049 128.1037034 425.13126094 107.10577488 433.03918266 C90.34285533 438.12656341 72.25306068 437.29628787 54.95221043 437.26672173 C52.26969529 437.26943644 49.58719115 437.27292869 46.9046793 437.27734184 C40.41452093 437.28617289 33.92440916 437.28434259 27.43424907 437.27851656 C22.15634066 437.27397703 16.8784452 437.273397 11.60053539 437.27556419 C10.84585442 437.27587066 10.09117344 437.27617713 9.31362334 437.27649288 C7.77998019 437.2771324 6.24633705 437.27778083 4.71269391 437.27843806 C-9.62125091 437.28412241 -23.95517002 437.27761234 -38.28911062 437.26683733 C-50.56577946 437.25789442 -62.84241048 437.25946363 -75.11907864 437.26867485 C-89.41380805 437.27939537 -103.70851505 437.28358281 -118.00324792 437.27745032 C-119.52933259 437.27681329 -121.05541728 437.27618455 -122.58150196 437.27556419 C-123.33216484 437.27525564 -124.08282771 437.27494709 -124.85623795 437.27462919 C-130.12520074 437.27290827 -135.39414921 437.2758041 -140.66310978 437.2805233 C-147.08748281 437.28615158 -153.511807 437.28457455 -159.93617449 437.27396181 C-163.20861666 437.26873259 -166.48096152 437.26769149 -169.75340557 437.27326012 C-173.31074554 437.27875411 -176.86785949 437.27183485 -180.4251852 437.26189995 C-181.4447549 437.26636139 -182.4643246 437.27082283 -183.51479036 437.27541947 C-193.49140888 437.22165855 -203.07472346 435.96464867 -212.28094387 432.00793266 C-213.24774075 431.61734673 -213.24774075 431.61734673 -214.23406887 431.21887016 C-217.00118006 430.07266093 -219.01844017 429.14543636 -221.15594387 427.00793266 C-222.16656887 426.61605766 -223.17719387 426.22418266 -224.21844387 425.82043266 C-240.79833603 418.88639909 -251.03267956 401.43301176 -258.03094387 385.75793266 C-258.31727688 385.12097466 -258.60360989 384.48401665 -258.89861965 383.82775688 C-262.71662545 374.90377099 -263.44846548 366.42626483 -263.40991116 356.78254509 C-263.41303114 355.57600169 -263.41615112 354.36945829 -263.41936564 353.12635297 C-263.42593554 349.79876932 -263.42360775 346.47141331 -263.41739321 343.14384377 C-263.41285206 339.54655581 -263.41986087 335.94928717 -263.42535305 332.3520031 C-263.43423234 325.31196595 -263.43233118 318.27197153 -263.42652777 311.23193274 C-263.42200373 305.50571919 -263.42140159 299.77951759 -263.4235754 294.05330276 C-263.42388187 293.23705737 -263.42418833 292.42081197 -263.42450409 291.57983186 C-263.42514357 289.92137391 -263.425792 288.26291595 -263.42644927 286.604458 C-263.43214874 271.06204186 -263.42560161 255.51964933 -263.41484854 239.97723707 C-263.40592178 226.6629942 -263.40745859 213.34878623 -263.41668606 200.03454399 C-263.42740996 184.55398792 -263.43159063 169.07345257 -263.42546153 153.5928933 C-263.42482448 151.93914267 -263.42419573 150.28539203 -263.4235754 148.63164139 C-263.42311257 147.41131372 -263.42311257 147.41131372 -263.4226404 146.16633296 C-263.42091918 140.45456998 -263.42381633 134.7428202 -263.42853451 129.03105927 C-263.4341673 122.05904781 -263.43257712 115.08708133 -263.42197302 108.11507497 C-263.41674711 104.56296049 -263.41460631 101.01092077 -263.42127132 97.45880699 C-263.42841053 93.59524265 -263.4198377 89.73179846 -263.40991116 85.86823845 C-263.4143726 84.76343661 -263.41883404 83.65863477 -263.42343068 82.52035409 C-263.33591442 64.84409 -260.43954002 48.01839788 -249.15594387 34.00793266 C-248.53719387 33.17777641 -247.91844387 32.34762016 -247.28094387 31.49230766 C-235.28162052 15.71900358 -218.46996651 4.54427769 -198.73771 1.4169178 C-191.69444977 0.61268083 -184.62873184 0.69778523 -177.54925442 0.68908501 C-175.79703731 0.6797631 -174.04482455 0.66959116 -172.29261684 0.65864372 C-167.53971287 0.6314038 -162.78683864 0.61618186 -158.03387713 0.60321569 C-152.95765667 0.58735592 -147.88149223 0.56058219 -142.80531216 0.53518486 C-134.2030503 0.49365139 -125.60078461 0.45923376 -116.99847317 0.42980766 C-105.20519235 0.3894532 -93.41199699 0.33639891 -81.61878085 0.28055143 C-54.41260393 0.15276433 -27.20638329 0.06838495 0 0 Z " fill="#78D564" transform="translate(300.15594387054443,37.99206733703613)"/>
<path d="M0 0 C0.79243103 0.00049347 1.58486206 0.00098694 2.40130615 0.00149536 C30.92436009 0.05593005 30.92436009 0.05593005 39.4375 4.3125 C41.06164378 4.50727739 42.68686423 4.69309458 44.3125 4.875 C50.43743519 5.8538032 55.93563904 7.82924063 61.6875 10.125 C62.94602783 10.62205444 62.94602783 10.62205444 64.22998047 11.12915039 C68.94285265 13.06407985 73.2114793 15.26908002 77.4765625 18.05151367 C79.47587777 19.33717893 81.51142076 20.51197437 83.5859375 21.671875 C92.1146367 26.47704224 99.39494046 31.43500045 106.4375 38.3125 C107.48956861 39.17948246 108.55070948 40.03571053 109.625 40.875 C115.92404064 46.33416855 120.4535636 52.59436145 124.76171875 59.69921875 C126.40250398 62.36191282 126.40250398 62.36191282 128.4609375 64.8203125 C140.74169435 80.30474505 142.45065057 101.37171948 143.4375 120.3125 C143.5096875 121.51261719 143.581875 122.71273437 143.65625 123.94921875 C144.27446745 143.24275497 136.12016406 167.5220129 123.4375 182.3125 C122.7775 182.3125 122.1175 182.3125 121.4375 182.3125 C121.16164063 182.88484375 120.88578125 183.4571875 120.6015625 184.046875 C115.52453435 193.92833919 107.82085291 203.11436215 98.07421875 208.65625 C94.50995809 210.89513374 91.71935955 213.73603512 88.71875 216.66796875 C86.04381168 218.59630613 84.66155266 218.65874509 81.4375 218.3125 C81.4375 218.9725 81.4375 219.6325 81.4375 220.3125 C74.17125135 225.68438215 66.33853103 228.61755488 57.78515625 231.171875 C54.48000939 232.16459938 54.48000939 232.16459938 51.93359375 233.828125 C46.06744964 237.31659881 39.52522721 237.77423321 32.875 238.375 C31.22770199 238.53084289 29.58056113 238.68835725 27.93359375 238.84765625 C26.85356079 238.94639038 26.85356079 238.94639038 25.75170898 239.04711914 C24.04038253 239.24336472 22.3374119 239.51581059 20.64355469 239.82885742 C16.96546485 240.38370786 13.35497167 240.49233295 9.64453125 240.515625 C8.53470131 240.52580658 8.53470131 240.52580658 7.40245056 240.53619385 C5.01825727 240.55311066 2.63424938 240.55938818 0.25 240.5625 C-0.5594104 240.56483643 -1.3688208 240.56717285 -2.20275879 240.56958008 C-12.96697451 240.58133899 -23.31931762 240.18597277 -33.890625 237.96875 C-41.25679406 236.58034212 -41.25679406 236.58034212 -48 239 C-48.845625 239.763125 -49.69125 240.52625 -50.5625 241.3125 C-52.06005698 242.26671952 -53.58339042 243.18122156 -55.125 244.0625 C-55.86878906 244.49046875 -56.61257812 244.9184375 -57.37890625 245.359375 C-59.5625 246.3125 -59.5625 246.3125 -63.5625 246.3125 C-63.5625 246.9725 -63.5625 247.6325 -63.5625 248.3125 C-65.62425364 249.272438 -67.68693469 250.23038424 -69.75 251.1875 C-70.89855469 251.72117187 -72.04710937 252.25484375 -73.23046875 252.8046875 C-77.96964791 254.9492633 -82.39827832 256.55709458 -87.47265625 257.73828125 C-89.53501771 258.30494879 -91.35965889 259.07272836 -93.3125 259.9375 C-98.56121569 261.95783897 -104.03226708 262.20026935 -109.5625 261.3125 C-112.87533957 258.46191712 -114.23136325 255.70497045 -114.83374023 251.3527832 C-115.189625 243.14829059 -112.42880122 236.06522424 -109.625 228.5 C-108.91800674 226.55148118 -108.21553196 224.60142344 -107.51597595 222.65022278 C-106.88321965 220.89179909 -106.23894424 219.13753289 -105.59399414 217.38354492 C-103.73017999 211.83445185 -102.64104351 206.15196262 -103.5625 200.3125 C-105.53840636 197.58377334 -105.53840636 197.58377334 -108.5625 195.3125 C-117.36160023 187.9765296 -122.71817667 177.99744485 -128.5625 168.3125 C-129.11292969 167.41917969 -129.66335937 166.52585937 -130.23046875 165.60546875 C-133.85813367 159.3607787 -135.68957058 153.51014668 -137.25 146.5 C-137.47494141 145.55318359 -137.69988281 144.60636719 -137.93164062 143.63085938 C-139.27087776 137.71623459 -139.79301388 132.37439207 -139.5625 126.3125 C-140.2225 126.3125 -140.8825 126.3125 -141.5625 126.3125 C-141.62049124 122.54173111 -141.65609306 118.77107666 -141.6875 115 C-141.70425781 113.92814453 -141.72101563 112.85628906 -141.73828125 111.75195312 C-141.74472656 110.72392578 -141.75117188 109.69589844 -141.7578125 108.63671875 C-141.76828613 107.68885498 -141.77875977 106.74099121 -141.78955078 105.7644043 C-141.5625 103.3125 -141.5625 103.3125 -139.5625 100.3125 C-139.05455338 98.66027803 -138.60213956 96.99057069 -138.1875 95.3125 C-136.89545454 90.35419357 -135.27570208 85.61445154 -133.46484375 80.82421875 C-132.69399675 78.67852774 -132.09560933 76.58763961 -131.5625 74.375 C-130.43125845 70.91057276 -129.10537622 69.84602741 -126.5625 67.3125 C-125.5124914 65.69811178 -124.51240738 64.05024426 -123.5625 62.375 C-121.45773033 58.75924959 -119.23570374 55.53878038 -116.5625 52.3125 C-116.14097656 51.54550781 -115.71945313 50.77851563 -115.28515625 49.98828125 C-113.27156001 46.86058641 -110.9818097 44.76230576 -108.1875 42.3125 C-105.39741395 39.85292002 -102.65922226 37.41027195 -100.04296875 34.765625 C-82.05100476 16.97199762 -56.50219262 6.48109534 -31.88452148 2.69311523 C-30.24324515 2.42408466 -28.60742707 2.12069185 -26.97680664 1.79321289 C-17.96818206 0.06253756 -9.13712467 -0.03899689 0 0 Z " fill="#F8F7F5" transform="translate(249.5625,122.6875)"/>
<path d="M0 0 C13.30526908 -0.03328472 26.61051891 -0.05874519 39.91582394 -0.07163811 C43.68387794 -0.07536867 47.45191833 -0.08124592 51.21996593 -0.08910179 C55.59924227 -0.09802291 59.97849459 -0.10184026 64.35777974 -0.10177469 C65.93984438 -0.1025113 67.52190941 -0.10489651 69.10396838 -0.10919714 C109.24841721 -0.21220823 109.24841721 -0.21220823 125.84405613 12.00793266 C126.16761082 12.6872686 126.4911655 13.36660454 126.82452488 14.06652641 C127.68501633 16.21737164 127.68501633 16.21737164 130.01202488 16.86730766 C141.8474577 21.63413026 150.81769547 34.81226629 155.84405613 46.00793266 C165.92523794 69.82510541 162.99408059 99.10208884 163.02105808 124.40905571 C163.02734374 127.05009425 163.03398206 129.69113009 163.0409708 132.33216667 C163.06043194 140.15723429 163.07074678 147.98230265 163.07969859 155.80738828 C163.08322853 158.76675818 163.08737122 161.72612708 163.09153825 164.68549615 C163.10995072 177.77257122 163.12570311 190.85964643 163.1334362 203.94673252 C163.13534521 207.1249288 163.13726572 210.30312508 163.13922215 213.48132133 C163.13970589 214.27097744 163.14018963 215.06063354 163.14068802 215.87421862 C163.14901377 228.70573716 163.1744183 241.53716331 163.20680282 254.3686414 C163.23992555 267.60194749 163.25788832 280.83520649 163.26108044 294.06855422 C163.26323709 301.47540989 163.27186497 308.88212936 163.29754162 316.28894424 C163.32160169 323.24382462 163.3250422 330.19845643 163.31478024 337.1533699 C163.31428592 339.69697193 163.32057539 342.24058622 163.33433628 344.78415108 C163.41673729 360.9227761 162.73093705 374.70929068 155.03155613 389.25793266 C154.68536228 389.92776176 154.33916843 390.59759087 153.98248386 391.28771782 C143.54367654 411.07731049 128.1037034 425.13126094 107.10577488 433.03918266 C90.34285533 438.12656341 72.25306068 437.29628787 54.95221043 437.26672173 C52.26969529 437.26943644 49.58719115 437.27292869 46.9046793 437.27734184 C40.41452093 437.28617289 33.92440916 437.28434259 27.43424907 437.27851656 C22.15634066 437.27397703 16.8784452 437.273397 11.60053539 437.27556419 C10.84585442 437.27587066 10.09117344 437.27617713 9.31362334 437.27649288 C7.77998019 437.2771324 6.24633705 437.27778083 4.71269391 437.27843806 C-9.62125091 437.28412241 -23.95517002 437.27761234 -38.28911062 437.26683733 C-50.56577946 437.25789442 -62.84241048 437.25946363 -75.11907864 437.26867485 C-89.41380805 437.27939537 -103.70851505 437.28358281 -118.00324792 437.27745032 C-119.52933259 437.27681329 -121.05541728 437.27618455 -122.58150196 437.27556419 C-123.33216484 437.27525564 -124.08282771 437.27494709 -124.85623795 437.27462919 C-130.12520074 437.27290827 -135.39414921 437.2758041 -140.66310978 437.2805233 C-147.08748281 437.28615158 -153.511807 437.28457455 -159.93617449 437.27396181 C-163.20861666 437.26873259 -166.48096152 437.26769149 -169.75340557 437.27326012 C-173.31074554 437.27875411 -176.86785949 437.27183485 -180.4251852 437.26189995 C-181.4447549 437.26636139 -182.4643246 437.27082283 -183.51479036 437.27541947 C-193.49140888 437.22165855 -203.07472346 435.96464867 -212.28094387 432.00793266 C-213.24774075 431.61734673 -213.24774075 431.61734673 -214.23406887 431.21887016 C-217.00118006 430.07266093 -219.01844017 429.14543636 -221.15594387 427.00793266 C-222.16656887 426.61605766 -223.17719387 426.22418266 -224.21844387 425.82043266 C-240.79833603 418.88639909 -251.03267956 401.43301176 -258.03094387 385.75793266 C-258.31727688 385.12097466 -258.60360989 384.48401665 -258.89861965 383.82775688 C-262.71662545 374.90377099 -263.44846548 366.42626483 -263.40991116 356.78254509 C-263.41303114 355.57600169 -263.41615112 354.36945829 -263.41936564 353.12635297 C-263.42593554 349.79876932 -263.42360775 346.47141331 -263.41739321 343.14384377 C-263.41285206 339.54655581 -263.41986087 335.94928717 -263.42535305 332.3520031 C-263.43423234 325.31196595 -263.43233118 318.27197153 -263.42652777 311.23193274 C-263.42200373 305.50571919 -263.42140159 299.77951759 -263.4235754 294.05330276 C-263.42388187 293.23705737 -263.42418833 292.42081197 -263.42450409 291.57983186 C-263.42514357 289.92137391 -263.425792 288.26291595 -263.42644927 286.604458 C-263.43214874 271.06204186 -263.42560161 255.51964933 -263.41484854 239.97723707 C-263.40592178 226.6629942 -263.40745859 213.34878623 -263.41668606 200.03454399 C-263.42740996 184.55398792 -263.43159063 169.07345257 -263.42546153 153.5928933 C-263.42482448 151.93914267 -263.42419573 150.28539203 -263.4235754 148.63164139 C-263.42311257 147.41131372 -263.42311257 147.41131372 -263.4226404 146.16633296 C-263.42091918 140.45456998 -263.42381633 134.7428202 -263.42853451 129.03105927 C-263.4341673 122.05904781 -263.43257712 115.08708133 -263.42197302 108.11507497 C-263.41674711 104.56296049 -263.41460631 101.01092077 -263.42127132 97.45880699 C-263.42841053 93.59524265 -263.4198377 89.73179846 -263.40991116 85.86823845 C-263.4143726 84.76343661 -263.41883404 83.65863477 -263.42343068 82.52035409 C-263.33591442 64.84409 -260.43954002 48.01839788 -249.15594387 34.00793266 C-248.53719387 33.17777641 -247.91844387 32.34762016 -247.28094387 31.49230766 C-235.28162052 15.71900358 -218.46996651 4.54427769 -198.73771 1.4169178 C-191.69444977 0.61268083 -184.62873184 0.69778523 -177.54925442 0.68908501 C-175.79703731 0.6797631 -174.04482455 0.66959116 -172.29261684 0.65864372 C-167.53971287 0.6314038 -162.78683864 0.61618186 -158.03387713 0.60321569 C-152.95765667 0.58735592 -147.88149223 0.56058219 -142.80531216 0.53518486 C-134.2030503 0.49365139 -125.60078461 0.45923376 -116.99847317 0.42980766 C-105.20519235 0.3894532 -93.41199699 0.33639891 -81.61878085 0.28055143 C-54.41260393 0.15276433 -27.20638329 0.06838495 0 0 Z M-185.15594387 6.00793266 C-187.22436523 6.18047434 -189.29307715 6.35035619 -191.36321926 6.50085258 C-212.6164334 8.16822257 -226.54287218 16.78878888 -241.15594387 32.00793266 C-242.52879543 33.34017876 -242.52879543 33.34017876 -243.92938137 34.69933891 C-246.08902761 36.93855107 -246.81913299 37.9766347 -247.15594387 41.00793266 C-248.80594387 41.00793266 -250.45594387 41.00793266 -252.15594387 41.00793266 C-259.05685854 53.38198655 -260.29943774 66.42368961 -260.33003139 80.33207512 C-260.33653035 81.5735118 -260.3430293 82.81494848 -260.34972519 84.09400445 C-260.36654966 87.52846361 -260.37893899 90.96288468 -260.38928187 94.39736593 C-260.39895128 97.34632976 -260.4122541 100.29527288 -260.42555083 103.24422225 C-260.47303072 113.80475053 -260.50578756 124.36530834 -260.53485012 134.92590141 C-260.5371577 135.76044878 -260.53946528 136.59499614 -260.54184279 137.45483282 C-260.58731421 154.04951901 -260.62578252 170.6442188 -260.65257263 187.23894596 C-260.65856099 190.88419105 -260.66464674 194.52943596 -260.67083645 198.17468071 C-260.67236943 199.08060411 -260.67390241 199.98652751 -260.67548185 200.91990314 C-260.70115661 215.57217451 -260.75800745 230.22415706 -260.82730175 244.87628015 C-260.89797948 259.94643897 -260.93803796 275.016449 -260.94932216 290.08677083 C-260.95645427 298.53718181 -260.97695321 306.98709114 -261.03234959 315.43733597 C-261.07953071 322.63918467 -261.09896693 329.84045603 -261.08346809 337.04245361 C-261.07641814 340.70916467 -261.08172047 344.37464284 -261.12304592 348.04115486 C-261.40705652 374.6365788 -255.6684229 394.11412963 -237.33172512 413.81262016 C-230.84184628 420.81475829 -230.84184628 420.81475829 -222.46844387 424.13293266 C-221.32375637 424.07105766 -221.32375637 424.07105766 -220.15594387 424.00793266 C-219.66094387 425.49293266 -219.66094387 425.49293266 -219.15594387 427.00793266 C-216.73628938 428.19415352 -214.41818208 429.19143473 -211.90594387 430.13293266 C-211.23692043 430.39719048 -210.567897 430.66144829 -209.87860012 430.93371391 C-204.51448563 433.00980537 -199.78497854 434.13193327 -194.045187 434.13656712 C-193.03244742 434.13979156 -192.01970785 434.14301601 -190.9762792 434.14633816 C-189.87065384 434.14478956 -188.76502848 434.14324096 -187.62589931 434.14164543 C-186.4458638 434.14391099 -185.26582828 434.14617654 -184.05003411 434.14851075 C-180.77803128 434.15374613 -177.506063 434.15449559 -174.23405731 434.15331638 C-170.70354467 434.15311227 -167.17304022 434.15863225 -163.64253139 434.16337395 C-156.72562054 434.17167992 -149.80871821 434.1744288 -142.89180278 434.17498633 C-137.2665466 434.17546168 -131.64129323 434.17751742 -126.01603794 434.18068695 C-110.05848197 434.18949478 -94.10093273 434.19410634 -78.14337432 434.19335648 C-77.2831253 434.19331652 -76.42287628 434.19327656 -75.5365591 434.1932354 C-74.67525605 434.19319452 -73.813953 434.19315364 -72.92654986 434.19311152 C-58.9801988 434.19270541 -45.0338748 434.20226567 -31.08753156 434.21637376 C-16.75875616 434.23075396 -2.42999393 434.23764299 11.89878887 434.23677999 C19.9396389 434.2364485 27.98046061 434.23917425 36.02130413 434.24995804 C42.870497 434.25908486 49.71964871 434.26122056 56.56884504 434.25444862 C60.05992958 434.25119388 63.55093528 434.25108854 67.04201221 434.25980186 C70.83645334 434.26754211 74.63068923 434.26286326 78.42512608 434.25517082 C80.06014154 434.26288617 80.06014154 434.26288617 81.72818762 434.27075738 C104.40516838 434.16960565 122.97792226 425.87406653 138.84405613 410.00793266 C139.44089207 409.41109673 140.037728 408.81426079 140.65264988 408.19933891 C151.27121296 396.65992483 160.95919757 378.09374532 160.97269058 362.08686924 C160.97591503 361.11636401 160.97913947 360.14585878 160.98246163 359.1459443 C160.98091303 358.08741386 160.97936443 357.02888341 160.9777689 355.93827629 C160.98003445 354.80754309 160.98230001 353.67680988 160.98463422 352.51181203 C160.99097594 348.71387773 160.9901447 344.9159791 160.9893198 341.11804008 C160.99176768 338.39765602 160.99568579 335.67727447 160.99949741 332.95689201 C161.00780533 326.32471586 161.01055245 319.69254859 161.01110979 313.06036767 C161.01158555 307.65928019 161.01364334 302.25819563 161.01681042 296.85710907 C161.02562283 281.51371628 161.03022969 266.17033048 161.02947994 250.82693513 C161.02943999 249.99970875 161.02940003 249.17248237 161.02935886 248.32018852 C161.02931798 247.49193934 161.0292771 246.66369017 161.02923498 245.81034253 C161.02882991 232.43468551 161.0383627 219.05905683 161.05249723 205.68340798 C161.06692577 191.91958076 161.07376365 178.15576728 161.07290345 164.39193231 C161.07257337 156.67710476 161.07523603 148.9623068 161.0860815 141.24748611 C161.09527283 134.66726373 161.09729264 128.08708428 161.09057208 121.50685819 C161.08734771 118.16008632 161.08822506 114.81346227 161.09592533 111.46668816 C161.7971882 65.92284966 161.7971882 65.92284966 140.95733738 26.83605766 C138.78965814 24.96087488 137.58420338 24.54882941 134.84405613 24.00793266 C133.71905613 22.07043266 133.71905613 22.07043266 132.84405613 20.00793266 C130.4252933 17.58916983 128.37059045 17.3845507 125.11749363 16.63293266 C120.37090966 15.32802985 115.99552584 13.02125287 111.55499363 10.92980766 C100.12476656 5.66640413 89.00610832 4.85372895 76.53170872 4.88094902 C74.86951032 4.87860903 74.86951032 4.87860903 73.17373216 4.87622178 C69.47740066 4.8722475 65.78111056 4.87538751 62.08477879 4.87853813 C59.42825291 4.87718255 56.77172985 4.87543781 54.11520481 4.87322807 C47.66040272 4.86879181 41.20561228 4.86973705 34.75080974 4.87264071 C29.50648375 4.874902 24.26216101 4.87520413 19.01783466 4.8741169 C18.27057271 4.87396366 17.52331075 4.87381043 16.75340449 4.87365256 C15.23528549 4.87333282 13.71716649 4.87300861 12.19904749 4.87267996 C-2.0191737 4.86983176 -16.23738843 4.87310247 -30.45560856 4.87848033 C-42.65959725 4.88295328 -54.86357644 4.88216712 -67.06756496 4.87756157 C-81.24531607 4.87221365 -95.42306153 4.87010059 -109.60081351 4.87317383 C-111.11141467 4.87349238 -112.62201583 4.87380675 -114.132617 4.8741169 C-115.24746612 4.87434831 -115.24746612 4.87434831 -116.38483744 4.8745844 C-121.62687363 4.87544849 -126.86890625 4.87398911 -132.11094189 4.87163734 C-138.49293321 4.86883699 -144.87491223 4.86958283 -151.25690214 4.87491809 C-154.51397303 4.87755106 -157.77101906 4.87803102 -161.02809048 4.87526894 C-164.55391386 4.87255365 -168.0796787 4.87594321 -171.60549831 4.88094902 C-172.64117675 4.8787183 -173.67685519 4.87648758 -174.74391782 4.87418926 C-175.68485748 4.876797 -176.62579715 4.87940475 -177.59525013 4.88209152 C-178.40942823 4.88225387 -179.22360633 4.88241623 -180.06245649 4.8825835 C-182.35044568 4.92889947 -182.35044568 4.92889947 -185.15594387 6.00793266 Z " fill="#F7FBF6" transform="translate(300.15594387054443,37.99206733703613)"/>
<path d="M0 0 C1.20981224 -0.00367669 2.41962448 -0.00735338 3.6660977 -0.01114148 C6.98876715 -0.02018209 10.31138758 -0.02485871 13.63406456 -0.02753079 C17.23128053 -0.03146909 20.82848268 -0.0410439 24.4256897 -0.04974365 C33.08970819 -0.0693988 41.75372767 -0.07955556 50.41776285 -0.08847144 C54.50694928 -0.09286819 58.59613446 -0.09823097 62.6853199 -0.10346031 C76.2901975 -0.12045378 89.89507433 -0.13494926 103.4999609 -0.14220905 C107.02101581 -0.14411861 110.54207072 -0.146039 114.06312561 -0.147995 C115.37566449 -0.14872061 115.37566449 -0.14872061 116.7147193 -0.14946087 C130.89923994 -0.15776688 145.08367641 -0.18312185 159.26816028 -0.21557567 C173.85819473 -0.24868355 188.44818641 -0.26666076 203.03825861 -0.26985329 C211.21936537 -0.27201381 219.400349 -0.28069636 227.58141899 -0.30631447 C234.54499313 -0.32807166 241.50841413 -0.3360469 248.47201841 -0.32634769 C252.02007399 -0.32181885 255.56781387 -0.32360613 259.11582565 -0.34310913 C262.973098 -0.36412814 266.8299412 -0.35370569 270.68725586 -0.34057617 C271.79292418 -0.35154542 272.8985925 -0.36251466 274.03776592 -0.37381631 C284.62266797 -0.28727796 294.3708215 2.61518675 303.65711975 7.64717102 C304.734776 8.21435852 305.81243225 8.78154602 306.92274475 9.36592102 C309.40711975 11.14717102 309.40711975 11.14717102 310.26649475 13.36592102 C310.312901 13.95373352 310.35930725 14.54154602 310.40711975 15.14717102 C304.98481505 13.49290857 299.96556423 11.52577392 294.84461975 9.08467102 C283.47508577 3.74983742 272.51107218 2.99309409 260.09477234 3.02018738 C258.43257394 3.01784739 258.43257394 3.01784739 256.73679578 3.01546013 C253.04046428 3.01148586 249.34417418 3.01462587 245.64784241 3.01777649 C242.99131653 3.01642091 240.33479347 3.01467617 237.67826843 3.01246643 C231.22346634 3.00803016 224.76867591 3.0089754 218.31387337 3.01187907 C213.06954737 3.01414036 207.82522463 3.01444248 202.58089828 3.01335526 C201.83363633 3.01320202 201.08637437 3.01304879 200.31646811 3.01289091 C198.79834911 3.01257118 197.28023011 3.01224697 195.76211111 3.01191832 C181.54388992 3.00907012 167.32567519 3.01234083 153.10745506 3.01771869 C140.90346637 3.02219164 128.69948718 3.02140548 116.49549866 3.01679993 C102.31774755 3.01145201 88.14000209 3.00933895 73.96225011 3.01241219 C72.45164895 3.01273074 70.94104779 3.01304511 69.43044662 3.01335526 C68.3155975 3.01358667 68.3155975 3.01358667 67.17822618 3.01382276 C61.93618999 3.01468685 56.69415737 3.01322746 51.45212173 3.0108757 C45.07013041 3.00807535 38.68815139 3.00882119 32.30616148 3.01415645 C29.04909059 3.01678941 25.79204456 3.01726938 22.53497314 3.01450729 C19.00914976 3.01179201 15.48338492 3.01518157 11.95756531 3.02018738 C10.92188687 3.01795666 9.88620843 3.01572593 8.8191458 3.01342762 C7.87820614 3.01603536 6.93726648 3.01864311 5.96781349 3.02132988 C5.15363539 3.02149223 4.33945729 3.02165458 3.50060713 3.02182186 C1.21261794 3.06813782 1.21261794 3.06813782 -1.59288025 4.14717102 C-3.6613016 4.3197127 -5.73001353 4.48959455 -7.80015564 4.64009094 C-29.02879377 6.30553287 -43.07361108 15.00167139 -57.59288025 30.14717102 C-58.33924744 30.87162415 -59.08561462 31.59607727 -59.854599 32.34248352 C-61.70354515 34.04900533 -61.70354515 34.04900533 -62.53038025 36.33467102 C-62.88100525 36.93279602 -63.23163025 37.53092102 -63.59288025 38.14717102 C-64.39596619 38.26576477 -65.19905212 38.38435852 -66.026474 38.50654602 C-68.67782235 38.8772192 -68.67782235 38.8772192 -69.85069275 40.86982727 C-76.13936529 57.8379122 -76.0567742 74.71153033 -76.05834949 92.58119488 C-76.06188958 96.28417003 -76.08254779 99.98706007 -76.10067749 103.68998718 C-76.1368681 111.76036827 -76.15102356 119.83069445 -76.16051459 127.90114498 C-76.16656432 132.95214924 -76.17733575 138.0031366 -76.18902016 143.05413055 C-76.22074002 157.07520189 -76.24746355 171.09625835 -76.25377178 185.11736679 C-76.25417892 186.01186266 -76.25458605 186.90635852 -76.25500553 187.82796033 C-76.25581315 189.64079046 -76.25661887 191.4536206 -76.25742271 193.26645073 C-76.25782829 194.16617046 -76.25823386 195.06589019 -76.25865173 195.99287415 C-76.25905371 196.89370803 -76.25945569 197.79454192 -76.25986985 198.7226738 C-76.26735821 213.31619613 -76.31184519 227.9093492 -76.37250914 242.50273809 C-76.43447945 257.53252393 -76.46613486 272.56212615 -76.46759921 287.59204221 C-76.46909382 296.01210793 -76.48306777 304.43171747 -76.53041649 312.85166168 C-76.57056524 320.0203871 -76.58258676 327.18849938 -76.55943086 334.35731074 C-76.54844602 338.00583363 -76.54971733 341.65314044 -76.5868988 345.30151749 C-76.84059552 371.75116083 -71.0799433 391.23118033 -52.91319275 410.88545227 C-49.89901036 413.82351894 -46.67235338 416.33510124 -43.245224 418.77217102 C-42.42731384 419.45279602 -42.42731384 419.45279602 -41.59288025 420.14717102 C-41.59288025 420.80717102 -41.59288025 421.46717102 -41.59288025 422.14717102 C-55.20457426 417.59361871 -64.77589446 402.26193524 -70.90538025 390.08467102 C-75.43091319 380.80600909 -79.71321362 371.4325762 -79.7215147 360.94829655 C-79.72473915 359.91589 -79.72796359 358.88348345 -79.73128575 357.81979185 C-79.72973715 356.69218504 -79.72818855 355.56457823 -79.72659302 354.40280151 C-79.72885857 353.19967581 -79.73112413 351.99655011 -79.73345834 350.75696605 C-79.73869434 347.42040771 -79.73944307 344.08390324 -79.73826396 340.74734461 C-79.73805987 337.14726349 -79.74357972 333.54719041 -79.74832153 329.94711304 C-79.75662838 322.89317141 -79.75937644 315.83923814 -79.75993391 308.78529204 C-79.7604093 303.04754351 -79.7624652 297.30979775 -79.76563454 291.57205009 C-79.77444319 275.29260031 -79.77905388 259.01315712 -79.77830406 242.73370493 C-79.77826411 241.85605939 -79.77822415 240.97841384 -79.77818298 240.07417297 C-79.7781421 239.19545085 -79.77810122 238.31672874 -79.7780591 237.41137867 C-79.77765314 223.18831833 -79.78720947 208.96528453 -79.80132135 194.74223185 C-79.81570797 180.12642368 -79.8225902 165.51062843 -79.82172757 150.894813 C-79.82139627 142.69405017 -79.8241138 134.49331511 -79.83490562 126.29255867 C-79.844041 119.3058155 -79.84616125 112.31911269 -79.8393962 105.33236612 C-79.83614553 101.77217527 -79.83602117 98.21206171 -79.84474945 94.65187836 C-79.85414509 90.77934819 -79.84780012 86.90692907 -79.84011841 83.03439331 C-79.84526197 81.92686299 -79.85040553 80.81933268 -79.85570496 79.67824084 C-79.77869198 61.99618136 -76.87990811 45.16189728 -65.59288025 31.14717102 C-64.97413025 30.31701477 -64.35538025 29.48685852 -63.71788025 28.63154602 C-54.09847618 15.98668422 -40.52974987 4.57642333 -24.59288025 1.14717102 C-16.41203177 0.15232585 -8.2309249 -0.00136969 0 0 Z " fill="#EBF8E8" transform="translate(116.59288024902344,40.85282897949219)"/>
<path d="M0 0 C3.3644983 1.39468519 4.83532482 2.80025692 6.75 5.875 C7.26175781 6.67421875 7.77351563 7.4734375 8.30078125 8.296875 C8.86152344 9.18890625 9.42226562 10.0809375 10 11 C15.23809714 19.2358676 20.33094639 26.22502049 27.9375 32.375 C30.29219561 35.37188532 30.71004529 37.32312907 30.484375 41.109375 C28.95120696 50.25892622 25.74096074 59.0882123 22.50024414 67.75073242 C19.4285917 76.01531365 16.97793239 82.98878896 20.4375 91.5625 C21.78598512 93.85721741 21.78598512 93.85721741 23 95 C30.27826436 95.7314236 36.07522725 95.02684092 42.7109375 92.00390625 C45.33783242 90.851838 47.99687947 90.2596291 50.7890625 89.6328125 C54.75547822 88.49754864 58.48986832 86.76931914 62.265625 85.12109375 C64.52352364 84.19535531 66.62054198 83.50421849 69 83 C69 82.34 69 81.68 69 81 C79 77 79 77 81.76953125 76.0546875 C82.50558594 75.70664062 83.24164063 75.35859375 84 75 C84.495 73.515 84.495 73.515 85 72 C89.68044943 69.65977529 95.71296443 71.03473862 100.63037109 72.06762695 C111.16789822 74.21712713 121.66774842 74.3103214 132.375 74.3125 C133.14759155 74.31572266 133.92018311 74.31894531 134.71618652 74.32226562 C143.35188158 74.3442429 151.64570541 74.02222247 160.17163086 72.46923828 C163.18109559 71.96995548 166.14336855 71.73958809 169.1875 71.5625 C175.54362641 71.08326825 181.80495028 69.97918609 187.2890625 66.58203125 C191.31568057 64.2322037 195.63612135 62.8597096 200.02929688 61.33789062 C204.53190292 59.72036675 208.06738588 57.71356235 212 55 C212.66 55 213.32 55 214 55 C214 54.34 214 53.68 214 53 C214.88558594 52.76152344 215.77117187 52.52304687 216.68359375 52.27734375 C220.32852207 50.87346676 222.2676181 49.25993752 225.0625 46.5625 C228.22025934 43.53444325 231.17628455 41.13114997 235 39 C235.63164062 38.62617188 236.26328125 38.25234375 236.9140625 37.8671875 C239.58715142 36.31704005 242.06075978 34.97974674 245 34 C243.09041888 39.72874335 240.03687382 44.64208412 235 48 C232.3125 48.125 232.3125 48.125 230 48 C229.7834375 49.175625 229.7834375 49.175625 229.5625 50.375 C228 53 228 53 226.109375 53.53125 C225.35140625 53.6446875 224.5934375 53.758125 223.8125 53.875 C218.21048132 54.82968486 215.44582766 57.63166729 212 62 C211.2751767 63.13547405 210.56483957 64.28043842 209.875 65.4375 C208 68 208 68 205.5625 68.5 C203 68 203 68 200.63671875 66.8046875 C198.0249708 65.69880341 198.0249708 65.69880341 195.703125 66.9765625 C194.48882812 67.79253906 194.48882812 67.79253906 193.25 68.625 C183.50251306 74.41257037 168.16858388 78.45164036 157 76 C156.67 76.99 156.34 77.98 156 79 C148.90359501 80.15712914 142.05288213 79.95923126 134.8828125 79.703125 C132.31123216 79.63029116 129.73961594 79.5587154 127.16796875 79.48828125 C123.14314856 79.37449799 119.11896544 79.25208664 115.09521484 79.10498047 C111.19138261 78.96786141 107.28778529 78.86414057 103.3828125 78.765625 C102.19084259 78.71480774 100.99887268 78.66399048 99.77078247 78.6116333 C92.77745484 78.46601269 88.05279523 79.30123034 82.00997925 82.91448975 C80 84 80 84 77 84 C77 84.66 77 85.32 77 86 C76.21496094 86.07476562 75.42992187 86.14953125 74.62109375 86.2265625 C67.14578517 87.16212259 63.2258377 88.53662422 58 94 C57.67 93.67 57.34 93.34 57 93 C51.8401908 92.3877057 51.8401908 92.3877057 47.375 94.3125 C46.92125 94.869375 46.4675 95.42625 46 96 C44.01612292 97.03161608 42.01723344 98.03523618 40 99 C39.67 99.33 39.34 99.66 39 100 C37.65732587 100.08631874 36.31025678 100.10706473 34.96484375 100.09765625 C34.15595703 100.09443359 33.34707031 100.09121094 32.51367188 100.08789062 C31.66353516 100.07951172 30.81339844 100.07113281 29.9375 100.0625 C29.08349609 100.05798828 28.22949219 100.05347656 27.34960938 100.04882812 C25.23304337 100.03700373 23.11651315 100.01906769 21 100 C20.67 98.35 20.34 96.7 20 95 C18.515 94.505 18.515 94.505 17 94 C15.19986038 90.39972077 15.77246139 86.21443564 15.75 82.25 C15.729375 81.35539062 15.70875 80.46078125 15.6875 79.5390625 C15.656261 74.24405244 16.06400355 70.59676211 19 66 C19.33 65.67 19.66 65.34 20 65 C20.15881605 63.27361076 20.27689227 61.5434007 20.375 59.8125 C20.75390663 55.13330379 21.78803768 52.15848916 24 48 C24.82077668 44.69186959 25.4354858 41.36051981 26 38 C25.42507812 37.89429688 24.85015625 37.78859375 24.2578125 37.6796875 C21.65847624 36.89718835 20.02690662 35.76961304 17.875 34.125 C17.19179687 33.61195313 16.50859375 33.09890625 15.8046875 32.5703125 C14 31 14 31 12 28 C11.875 24.8125 11.875 24.8125 12 22 C11.01 22 10.02 22 9 22 C8.76925781 21.40832031 8.53851563 20.81664062 8.30078125 20.20703125 C6.64668681 16.19928464 5.47031411 13.43824723 2.25 10.4375 C-0.25595283 7.72271777 -0.31863238 7.1952241 -0.3125 3.6875 C-0.209375 2.470625 -0.10625 1.25375 0 0 Z " fill="#55B43A" transform="translate(117,288)"/>
<path d="M0 0 C2.78211944 0.37596209 4.5879284 0.67318459 6.8125 2.4375 C8 4 8 4 8 6 C8.74636719 6.25523438 9.49273437 6.51046875 10.26171875 6.7734375 C20.87381809 11.52693135 26.16573038 25.62686445 30.09765625 35.85546875 C35.76732543 55.14374027 34.29934229 77.34689924 34.29052734 97.22143555 C34.29545639 99.96247379 34.30328303 102.70350234 34.31088257 105.4445343 C34.32730113 112.05103464 34.33298295 118.65749925 34.33410732 125.26401832 C34.33506533 130.63662228 34.33921253 136.00921467 34.34550858 141.38181496 C34.36305475 156.6686796 34.37235581 171.95551646 34.37084763 187.24239125 C34.37076772 188.06176493 34.3706878 188.88113861 34.37060547 189.7253418 C34.37052371 190.54573186 34.37044195 191.36612192 34.37035771 192.21137229 C34.36954271 205.54155654 34.38875134 218.8716284 34.4168822 232.2017801 C34.44564779 245.94243146 34.45942104 259.68302796 34.45769465 273.42371017 C34.45703288 281.11726111 34.46243359 288.81069355 34.48405075 296.50421715 C34.50230928 303.04297754 34.50657031 309.58156544 34.4930319 316.12034037 C34.48653063 319.4498266 34.48848276 322.77871393 34.5037384 326.10821152 C34.61369401 351.77347592 34.61369401 351.77347592 30 362 C29.34 361.67 28.68 361.34 28 361 C27.87470874 354.48485437 27.87470874 354.48485437 28.4958666 352.08108658 C29.08632972 349.64362683 29.12663689 347.46092822 29.12863445 344.95261478 C29.1318589 343.92854938 29.13508335 342.90448397 29.1384055 341.84938627 C29.1368569 340.7259664 29.1353083 339.60254652 29.13371277 338.44508362 C29.13597833 337.25027388 29.13824388 336.05546414 29.14057809 334.82444805 C29.14581961 331.50650281 29.14656188 328.18861169 29.14538372 324.87066615 C29.14517982 321.29239998 29.15069756 317.71414192 29.15544128 314.13587952 C29.16375259 307.1229106 29.16649639 300.10995008 29.16705366 293.09697665 C29.16752885 287.39304382 29.16958378 281.68911376 29.17275429 275.98518181 C29.18156429 259.80543326 29.18617344 243.62569135 29.18542381 227.44594038 C29.18538386 226.5734407 29.1853439 225.70094102 29.18530273 224.80200195 C29.18526185 223.92843325 29.18522097 223.05486455 29.18517885 222.15482407 C29.18477289 208.01508936 29.19432889 193.87538135 29.2084411 179.73565436 C29.22282452 165.20915365 29.22971012 150.68266593 29.22884732 136.15615791 C29.2285159 128.00403749 29.23123863 119.85194501 29.24202538 111.69983101 C29.25115654 104.75439045 29.25328444 97.80899048 29.24651595 90.8635465 C29.24326313 87.32373901 29.24314883 83.78400926 29.2518692 80.24420929 C29.26125272 76.39536046 29.25492541 72.54662361 29.24723816 68.69776917 C29.25238172 67.59442578 29.25752529 66.4910824 29.26282471 65.35430437 C29.17343961 44.99374847 23.48490442 26.53496135 10.3203125 10.77734375 C9 9 9 9 9 7 C8.443125 6.773125 7.88625 6.54625 7.3125 6.3125 C4.36753316 4.64103234 2.31843456 2.44723648 0 0 Z " fill="#AEE7A7" transform="translate(427,56)"/>
<path d="M0 0 C4.45744863 2.18820206 7.68978484 5.31147454 11 9 C12.84301512 14.52904535 13.12500002 20.94504306 11.09375 26.4609375 C8.45552952 31.01017666 5.96384794 33.01328176 1 35 C-4.54971337 35.71150171 -10.93554721 36.34173338 -16.16796875 34.05078125 C-17.6875 32.8125 -17.6875 32.8125 -20 30 C-20.69738281 29.24976563 -21.39476562 28.49953125 -22.11328125 27.7265625 C-25.43900327 22.92044662 -24.69442006 17.61913379 -24 12 C-19.15168381 1.55747283 -10.79132388 -1.01831628 0 0 Z " fill="#969695" transform="translate(258,224)"/>
<path d="M0 0 C4.19444091 2.43765103 7.68560477 4.98262127 9.8125 9.4375 C10.88900693 15.50930889 10.80671291 21.49890077 7.9375 27.0625 C4.540867 31.57231525 0.22573438 32.66632 -5.1875 33.4375 C-10.86907918 34.0020846 -15.51633672 34.157829 -20.8125 31.875 C-23.76779292 28.84193621 -24.3910392 26.56461505 -25.1875 22.4375 C-25.39375 21.633125 -25.6 20.82875 -25.8125 20 C-25.93625 19.154375 -26.06 18.30875 -26.1875 17.4375 C-26.373125 16.2 -26.55875 14.9625 -26.75 13.6875 C-26.71168022 8.64844909 -23.70232141 5.86218454 -20.42578125 2.3203125 C-14.51682925 -2.65021955 -6.94603515 -3.10043332 0 0 Z " fill="#959595" transform="translate(201.1875,225.5625)"/>
<path d="M0 0 C4.60107795 2.42401423 7.15842085 5.73763127 10 10 C10.81908762 16.42888539 10.71744063 22.72630516 7.3046875 28.375 C3.98264959 32.51262805 0.96187011 33.76516268 -4.1328125 34.375 C-9.07308591 34.55505552 -12.92671624 34.45997875 -17.5 32.5 C-22.78486115 27.21513885 -25.30707741 23.14484383 -25.75 15.5 C-25.5421394 9.54132959 -23.9376844 6.5150983 -19.7265625 2.390625 C-14.70933346 -1.65040111 -6.15260237 -1.07843721 0 0 Z " fill="#959594" transform="translate(318,225)"/>
<path d="M0 0 C3.59583275 0.00477016 7.19161398 -0.00781165 10.78742969 -0.01801741 C17.81375681 -0.03513441 24.83999423 -0.03606049 31.86633677 -0.03080451 C37.58052657 -0.02674929 43.29469003 -0.02822233 49.00887859 -0.03355277 C49.82473526 -0.03430119 50.64059193 -0.03504961 51.48117153 -0.03582071 C53.13898755 -0.03735231 54.79680357 -0.03889066 56.45461958 -0.04043568 C71.96842201 -0.05413431 87.48217388 -0.04874099 102.99597513 -0.03725047 C117.16744546 -0.0273146 131.33878529 -0.04026955 145.5102355 -0.06418466 C160.09130505 -0.08860417 174.6723139 -0.09817691 189.25340348 -0.09153193 C197.42775887 -0.08804685 205.60201388 -0.09022499 213.77635372 -0.10778296 C220.73257693 -0.12254043 227.68862902 -0.12309396 234.64484901 -0.10571205 C238.18885532 -0.09722986 241.73255638 -0.09498375 245.27654636 -0.1103636 C249.12935797 -0.12687589 252.98170421 -0.11199527 256.83451831 -0.09437239 C258.49097443 -0.1087799 258.49097443 -0.1087799 260.18089432 -0.12347847 C270.75974845 -0.02444147 280.50928494 2.87737349 289.79092395 7.90683305 C290.8685802 8.47402055 291.94623645 9.04120805 293.05654895 9.62558305 C295.54092395 11.40683305 295.54092395 11.40683305 296.40029895 13.62558305 C296.4467052 14.21339555 296.49311145 14.80120805 296.54092395 15.40683305 C291.11861925 13.7525706 286.09936843 11.78543596 280.97842395 9.34433305 C269.60888998 4.00949946 258.64487638 3.25275612 246.22857654 3.27984941 C244.56637815 3.27750942 244.56637815 3.27750942 242.87059999 3.27512217 C239.17426849 3.27114789 235.47797838 3.2742879 231.78164661 3.27743852 C229.12512074 3.27608294 226.46859767 3.2743382 223.81207263 3.27212846 C217.35727054 3.2676922 210.90248011 3.26863743 204.44767757 3.2715411 C199.20335157 3.27380239 193.95902883 3.27410452 188.71470249 3.27301729 C187.96744053 3.27286405 187.22017857 3.27271082 186.45027231 3.27255294 C184.93215331 3.27223321 183.41403431 3.271909 181.89591531 3.27158035 C167.67769412 3.26873215 153.45947939 3.27200286 139.24125926 3.27738072 C127.03727057 3.28185367 114.83329138 3.28106751 102.62930286 3.27646196 C88.45155175 3.27111404 74.27380629 3.26900098 60.09605432 3.27207422 C58.58545315 3.27239277 57.07485199 3.27270714 55.56425083 3.27301729 C54.44940171 3.2732487 54.44940171 3.2732487 53.31203038 3.27348479 C48.06999419 3.27434888 42.82796157 3.2728895 37.58592594 3.27053773 C31.20393461 3.26773738 24.82195559 3.26848322 18.43996568 3.27381848 C15.1828948 3.27645145 11.92584876 3.27693141 8.66877735 3.27416933 C5.14295396 3.27145404 1.61718912 3.2748436 -1.90863049 3.27984941 C-2.94430893 3.27761869 -3.97998737 3.27538797 -5.04705 3.27308965 C-5.98798966 3.27569739 -6.92892932 3.27830514 -7.89838231 3.28099191 C-8.7125604 3.28115426 -9.5267385 3.28131662 -10.36558867 3.28148389 C-12.65357786 3.32779986 -12.65357786 3.32779986 -15.45907605 4.40683305 C-17.5274974 4.57937473 -19.59620932 4.74925658 -21.66635144 4.89975297 C-42.89498956 6.56519491 -56.93980688 15.26133342 -71.45907605 30.40683305 C-72.19899792 31.12999712 -72.9389198 31.85316118 -73.70126355 32.5982393 C-75.48410426 34.4325843 -76.45697598 36.06859955 -77.45907605 38.40683305 C-78.44907605 38.40683305 -79.43907605 38.40683305 -80.45907605 38.40683305 C-76.94431614 25.70106997 -64.69667997 15.78964737 -53.64071667 9.34726274 C-36.37692204 -0.06687185 -19.21752213 -0.04302322 0 0 Z " fill="#B1E8A6" transform="translate(130.45907604694366,40.59316694736481)"/>
<path d="M0 0 C0.66 0 1.32 0 2 0 C2.15374933 20.45294589 2.3017866 40.90592543 2.4429636 61.35896206 C2.50864396 70.85497127 2.57621624 80.35096008 2.64819336 89.84692383 C2.71090036 98.12050455 2.77010764 106.39410152 2.82505554 114.66773754 C2.85429228 119.05135249 2.88531996 123.43493871 2.92053413 127.81851006 C2.95358462 131.93960753 2.9819761 136.06071014 3.00670624 140.18186569 C3.01664689 141.69887469 3.02832826 143.21587336 3.04183006 144.73285484 C3.05993092 146.79504401 3.07191756 148.85717802 3.08229065 150.91941833 C3.09058679 152.07626853 3.09888292 153.23311872 3.10743046 154.42502499 C3 157 3 157 2 158 C2.165 159.155 2.33 160.31 2.5 161.5 C2.665 162.655 2.83 163.81 3 165 C2.67 165.33 2.34 165.66 2 166 C2.08941152 167.47810245 2.24514901 168.95230898 2.42919922 170.42163086 C3.01427373 175.71976643 3.1446833 180.92759432 3.1328125 186.25390625 C3.13413177 187.21748047 3.13545105 188.18105469 3.1368103 189.17382812 C3.13871859 192.30341858 3.13239748 195.43291868 3.125 198.5625 C3.12411377 199.63160614 3.12322754 200.70071228 3.12231445 201.80221558 C3.10158341 223.2112042 2.65780848 244.60198012 2 266 C1.34 266.33 0.68 266.66 0 267 C0 178.89 0 90.78 0 0 Z " fill="#6DCE54" transform="translate(41,134)"/>
<path d="M0 0 C0 3.56422956 -0.84269616 4.65332498 -2.8125 7.5625 C-3.33457031 8.34753906 -3.85664063 9.13257813 -4.39453125 9.94140625 C-6 12 -6 12 -9 14 C-11.6875 14.125 -11.6875 14.125 -14 14 C-14.144375 14.78375 -14.28875 15.5675 -14.4375 16.375 C-16 19 -16 19 -17.890625 19.53125 C-19.02757812 19.70140625 -19.02757812 19.70140625 -20.1875 19.875 C-25.78951868 20.82968486 -28.55417234 23.63166729 -32 28 C-32.7248233 29.13547405 -33.43516043 30.28043842 -34.125 31.4375 C-36 34 -36 34 -38.4375 34.5 C-41 34 -41 34 -43.36328125 32.8046875 C-45.9750292 31.69880341 -45.9750292 31.69880341 -48.296875 32.9765625 C-49.10640625 33.52054687 -49.9159375 34.06453125 -50.75 34.625 C-62.26296219 41.4608213 -77.03037424 43.31521653 -90.21484375 42.87890625 C-91.07058487 42.85529526 -91.92632599 42.83168427 -92.80799866 42.80735779 C-95.51802662 42.73131318 -98.22772502 42.64703746 -100.9375 42.5625 C-102.78448955 42.5092199 -104.63149476 42.45648 -106.47851562 42.40429688 C-110.98588235 42.27577909 -115.49297226 42.13988312 -120 42 C-120 41.67 -120 41.34 -120 41 C-119.28046143 40.98018066 -118.56092285 40.96036133 -117.81958008 40.93994141 C-100.69813372 40.58069237 -100.69813372 40.58069237 -83.73828125 38.46484375 C-80.75781732 37.95888768 -77.82898065 37.74842145 -74.8125 37.5625 C-68.45637359 37.08326825 -62.19504972 35.97918609 -56.7109375 32.58203125 C-52.68431943 30.2322037 -48.36387865 28.8597096 -43.97070312 27.33789062 C-39.46809708 25.72036675 -35.93261412 23.71356235 -32 21 C-31.34 21 -30.68 21 -30 21 C-30 20.34 -30 19.68 -30 19 C-29.11441406 18.76152344 -28.22882813 18.52304687 -27.31640625 18.27734375 C-23.67147793 16.87346676 -21.7323819 15.25993752 -18.9375 12.5625 C-15.77990344 9.53459935 -12.82522122 7.12855052 -9 5 C-8.35675781 4.62617188 -7.71351563 4.25234375 -7.05078125 3.8671875 C-2.22222222 1.11111111 -2.22222222 1.11111111 0 0 Z " fill="#57B03A" transform="translate(361,322)"/>
<path d="M0 0 C37.48734341 -0.09163129 74.9746699 -0.16207716 112.46210272 -0.20426132 C116.89164614 -0.20926392 121.32118933 -0.21444123 125.75073242 -0.21972656 C126.63254436 -0.2207758 127.5143563 -0.22182505 128.42288981 -0.22290608 C142.68576571 -0.24029333 156.94857687 -0.27182172 171.21141442 -0.30861118 C185.85530385 -0.34606743 200.49915947 -0.36824574 215.14309484 -0.37635398 C224.17325516 -0.38183205 233.20323246 -0.39911026 242.23333643 -0.43166587 C248.43249121 -0.45287163 254.63155191 -0.45918638 260.8307403 -0.45400551 C264.40302123 -0.45145311 267.97498321 -0.45526031 271.54720688 -0.4768219 C275.43138233 -0.50009354 279.31514934 -0.49190078 283.1993866 -0.48101807 C284.87016723 -0.49849512 284.87016723 -0.49849512 286.57470101 -0.51632524 C297.18513334 -0.43637629 306.94079611 2.4556038 316.25 7.5 C317.32765625 8.0671875 318.4053125 8.634375 319.515625 9.21875 C322 11 322 11 322.859375 13.21875 C322.90578125 13.8065625 322.9521875 14.394375 323 15 C317.5776953 13.34573755 312.55844448 11.3786029 307.4375 8.9375 C302.59151706 6.67119158 298.24202674 4.94597024 293 4 C292.17402502 3.83515421 291.34805004 3.67030842 290.49704552 3.5004673 C277.69052613 1.28658886 264.75306594 1.69120675 251.79931641 1.68115234 C249.04850989 1.67293321 246.29771719 1.66175899 243.54692078 1.65071106 C237.64799125 1.62855077 231.74907873 1.61347036 225.85011673 1.60334396 C217.32145315 1.58869285 208.79284893 1.56313848 200.2642204 1.53501268 C186.42355856 1.48966087 172.58288812 1.45299835 158.7421875 1.421875 C145.30564872 1.39164171 131.86913093 1.35726965 118.43261719 1.31738281 C117.60292355 1.31492126 116.77322991 1.31245972 115.91839404 1.30992357 C111.75562684 1.29754805 107.59285989 1.28509169 103.43009305 1.27259517 C68.95342406 1.16920142 34.47673117 1.07994108 0 1 C0 0.67 0 0.34 0 0 Z " fill="#C4EFBC" transform="translate(104,41)"/>
<path d="M0 0 C12.25277074 2.09904023 24.33856168 2.79817257 36.75 3.125 C38.29428003 3.16829302 39.838551 3.21191033 41.3828125 3.25585938 C45.13011139 3.36180941 48.87751353 3.4633787 52.625 3.5625 C52.295 4.5525 51.965 5.5425 51.625 6.5625 C44.52859501 7.71962914 37.67788213 7.52173126 30.5078125 7.265625 C27.93623216 7.19279116 25.36461594 7.1212154 22.79296875 7.05078125 C18.76814856 6.93699799 14.74396544 6.81458664 10.72021484 6.66748047 C6.81638261 6.53036141 2.91278529 6.42664057 -0.9921875 6.328125 C-2.18415741 6.27730774 -3.37612732 6.22649048 -4.60421753 6.1741333 C-11.59754516 6.02851269 -16.32220477 6.86373034 -22.36502075 10.47698975 C-24.375 11.5625 -24.375 11.5625 -27.375 11.5625 C-27.375 12.2225 -27.375 12.8825 -27.375 13.5625 C-29.025 13.5625 -30.675 13.5625 -32.375 13.5625 C-32.6796875 11.26953125 -32.6796875 11.26953125 -32.375 8.5625 C-30.2578125 6.76171875 -30.2578125 6.76171875 -27.5 5.25 C-26.59507812 4.73824219 -25.69015625 4.22648437 -24.7578125 3.69921875 C-22.375 2.5625 -22.375 2.5625 -20.375 2.5625 C-20.045 1.5725 -19.715 0.5825 -19.375 -0.4375 C-13.81042043 -3.21978979 -5.88760326 -1.02746323 0 0 Z " fill="#4CA924" transform="translate(221.375,360.4375)"/>
<path d="M0 0 C3.3644983 1.39468519 4.83532482 2.80025692 6.75 5.875 C7.26175781 6.67421875 7.77351563 7.4734375 8.30078125 8.296875 C8.86152344 9.18890625 9.42226562 10.0809375 10 11 C15.23809714 19.2358676 20.33094639 26.22502049 27.9375 32.375 C30.53923195 35.68629521 30.59771397 37.72634335 30.37109375 41.83984375 C29.87455957 44.73019536 28.83312484 46.7269252 27 49 C26.67 49 26.34 49 26 49 C26 45.37 26 41.74 26 38 C24.68 37.67 23.36 37.34 22 37 C19.9296875 35.6953125 19.9296875 35.6953125 17.875 34.125 C17.19179687 33.61195313 16.50859375 33.09890625 15.8046875 32.5703125 C14 31 14 31 12 28 C11.875 24.8125 11.875 24.8125 12 22 C11.01 22 10.02 22 9 22 C8.76925781 21.40832031 8.53851563 20.81664062 8.30078125 20.20703125 C6.64668681 16.19928464 5.47031411 13.43824723 2.25 10.4375 C-0.25595283 7.72271777 -0.31863238 7.1952241 -0.3125 3.6875 C-0.209375 2.470625 -0.10625 1.25375 0 0 Z " fill="#50B51B" transform="translate(117,288)"/>
<path d="M0 0 C0.66 0 1.32 0 2 0 C2.19361753 5.51809965 1.81170643 9.77802264 0 15 C-0.33 15.33 -0.66 15.66 -1 16 C-1.15740605 17.70563778 -1.25093392 19.41727244 -1.31640625 21.12890625 C-1.35830078 22.16337891 -1.40019531 23.19785156 -1.44335938 24.26367188 C-1.48267578 25.35228516 -1.52199219 26.44089844 -1.5625 27.5625 C-1.62727539 29.2012207 -1.62727539 29.2012207 -1.69335938 30.87304688 C-1.79982068 33.58189564 -1.90183516 36.29083992 -2 39 C-1.34 39 -0.68 39 0 39 C0.08636719 39.87398437 0.17273438 40.74796875 0.26171875 41.6484375 C1.22119896 50.04609001 2.88645671 57.90938235 5.32299805 66.00732422 C6.37162287 69.52415413 7 72.29558289 7 76 C6.34 76 5.68 76 5 76 C4.505 73.03 4.505 73.03 4 70 C3.34 70 2.68 70 2 70 C2 69.01 2 68.02 2 67 C1.01 67 0.02 67 -1 67 C-3.09558398 60.6403582 -3.85810061 54.26102739 -4.625 47.625 C-4.82609375 45.99691406 -4.82609375 45.99691406 -5.03125 44.3359375 C-5.75963601 38.18181901 -6.2437989 32.19762458 -6 26 C-5.67 25.67 -5.34 25.34 -5 25 C-4.81003092 23.65813424 -4.67705317 22.30806729 -4.5703125 20.95703125 C-4.46009766 19.71663086 -4.46009766 19.71663086 -4.34765625 18.45117188 C-4.20090951 16.71209426 -4.06014008 14.9725004 -3.92578125 13.23242188 C-3.46526263 8.18623061 -2.65895165 4.43885098 0 0 Z " fill="#4FB83B" transform="translate(110,210)"/>
<path d="M0 0 C0.33 0 0.66 0 1 0 C1.01417969 0.6290625 1.02835937 1.258125 1.04296875 1.90625 C1.39784601 8.27485804 2.61294711 13.2030457 7 18 C10.88093703 20.91572989 13.74895648 21.40846612 18.5625 21.375 C19.67753906 21.38273437 20.79257812 21.39046875 21.94140625 21.3984375 C25.26766007 20.9651324 26.50471291 20.1388175 29 18 C29.66 18 30.32 18 31 18 C30.49607061 22.40938215 29.0379639 24.78843816 26 28 C22.8077894 30.00295567 20.24019848 30.29708709 16.5 30.3125 C15.5615625 30.32925781 14.623125 30.34601563 13.65625 30.36328125 C10.58930075 29.94383084 9.20734409 29.13966608 7 27 C7 26.34 7 25.68 7 25 C5.8553125 24.566875 5.8553125 24.566875 4.6875 24.125 C2 23 2 23 -1 21 C-1.35644531 19.16821289 -1.35644531 19.16821289 -1.328125 16.97265625 C-1.32296875 16.18052734 -1.3178125 15.38839844 -1.3125 14.57226562 C-1.2815625 13.32993164 -1.2815625 13.32993164 -1.25 12.0625 C-1.24484375 11.23814453 -1.2396875 10.41378906 -1.234375 9.56445312 C-1.18888498 6.0645644 -1.11657063 3.3497119 0 0 Z " fill="#CAC8C5" transform="translate(292,237)"/>
<path d="M0 0 C1.2055957 -0.01289062 2.41119141 -0.02578125 3.65332031 -0.0390625 C4.79639648 -0.04035156 5.93947266 -0.04164062 7.1171875 -0.04296875 C8.13151855 -0.04707764 9.14584961 -0.05118652 10.19091797 -0.05541992 C13.43221777 0.21293532 16.07979652 1.07276903 19.125 2.1875 C20.76492005 2.52967806 22.41100513 2.84395144 24.0625 3.125 C28.44402613 3.95357907 32.10906826 5.26683699 36.125 7.1875 C36.125 7.5175 36.125 7.8475 36.125 8.1875 C30.50155361 8.5709168 25.79377497 7.46738613 20.3828125 5.94140625 C11.2665306 3.83176308 2.02683907 4.00125045 -7.27563477 4.00219727 C-9.67156858 4.00001451 -12.06703809 3.98181754 -14.46289062 3.96289062 C-24.87026392 3.92487824 -34.53574332 4.89695869 -44.6875 7.3125 C-48.51558576 8.20665142 -51.95243672 8.35441759 -55.875 8.1875 C-52.65905915 4.64996506 -50.2714141 3.2664827 -45.421875 2.9921875 C-43.54242188 3.02699219 -43.54242188 3.02699219 -41.625 3.0625 C-40.36171875 3.08054687 -39.0984375 3.09859375 -37.796875 3.1171875 C-36.83265625 3.14039062 -35.8684375 3.16359375 -34.875 3.1875 C-34.875 2.5275 -34.875 1.8675 -34.875 1.1875 C-23.25177661 0.43761462 -11.64797953 0.06071399 0 0 Z " fill="#ABDB9C" transform="translate(259.875,119.8125)"/>
<path d="M0 0 C0.33 0 0.66 0 1 0 C0.99097656 0.6290625 0.98195312 1.258125 0.97265625 1.90625 C1.20013103 8.47334792 2.76167583 11.78612294 7.30859375 16.50390625 C10.73889298 19.53809702 14.01788107 19.14975636 18.375 19.125 C19.38433594 19.13080078 19.38433594 19.13080078 20.4140625 19.13671875 C23.75280945 19.13014641 26.80853085 19.03109003 30 18 C30 18.66 30 19.32 30 20 C28.1015625 21.47265625 28.1015625 21.47265625 25.625 23.0625 C24.81289063 23.58972656 24.00078125 24.11695313 23.1640625 24.66015625 C19.10542051 27.17299777 15.71679337 27.40083422 11 27 C8.5 26 8.5 26 7 25 C7 24.01 7 23.02 7 22 C6.0925 22.103125 5.185 22.20625 4.25 22.3125 C1 22 1 22 -1.2109375 19.890625 C-3.41392438 16.33121389 -3.32357322 14.55578391 -2.875 10.4375 C-2.71644531 8.76494141 -2.71644531 8.76494141 -2.5546875 7.05859375 C-2.05405719 4.29807591 -1.41641718 2.39386209 0 0 Z " fill="#CAC8C6" transform="translate(233,239)"/>
<path d="M0 0 C2.78211944 0.37596209 4.5879284 0.67318459 6.8125 2.4375 C8 4 8 4 8 6 C8.74636719 6.25523438 9.49273437 6.51046875 10.26171875 6.7734375 C20.06813052 11.16603849 25.13509193 23.57304712 29 33 C31.85362274 41.16726508 32.59760791 49.39713463 33 58 C31.05859375 57.359375 31.05859375 57.359375 29 56 C28.34765625 53.453125 28.34765625 53.453125 28.0625 50.25 C26.18391759 35.45003767 19.83641062 22.16782483 10.3203125 10.77734375 C9 9 9 9 9 7 C8.443125 6.773125 7.88625 6.54625 7.3125 6.3125 C4.36753316 4.64103234 2.31843456 2.44723648 0 0 Z " fill="#B6E9B0" transform="translate(427,56)"/>
<path d="M0 0 C1.32062328 3.96186984 0.02852104 6.26316174 -1.5 9.9375 C-1.91221802 10.93958496 -1.91221802 10.93958496 -2.33276367 11.96191406 C-11.62882634 33.95395188 -27.42671835 50.76291329 -49.625 59.9375 C-55.23856446 61.95647336 -60.98952798 63.42697342 -67 63 C-67.66 62.34 -68.32 61.68 -69 61 C-68.28457031 60.91363281 -67.56914062 60.82726562 -66.83203125 60.73828125 C-46.74803936 57.90625652 -29.80419184 48.18874273 -17.125 32.4375 C-16.06106565 30.97426825 -15.01866755 29.49509862 -14 28 C-13.49082031 27.2678125 -12.98164063 26.535625 -12.45703125 25.78125 C-8.68610758 19.96491529 -6.27241321 13.87102412 -4.00366211 7.35717773 C-2.18968084 2.18968084 -2.18968084 2.18968084 0 0 Z " fill="#F4FAF2" transform="translate(460,410)"/>
<path d="M0 0 C0 3.56422956 -0.84269616 4.65332498 -2.8125 7.5625 C-3.33457031 8.34753906 -3.85664063 9.13257813 -4.39453125 9.94140625 C-6 12 -6 12 -9 14 C-11.6875 14.125 -11.6875 14.125 -14 14 C-14.144375 14.78375 -14.28875 15.5675 -14.4375 16.375 C-16 19 -16 19 -17.92578125 19.6015625 C-19.50562684 19.87239317 -21.08640554 20.1378245 -22.66796875 20.3984375 C-26.34908981 21.34800642 -28.30971658 23.37869821 -31 26 C-32.32 25.01 -33.64 24.02 -35 23 C-33.35 22.34 -31.7 21.68 -30 21 C-30 20.34 -30 19.68 -30 19 C-29.11441406 18.76152344 -28.22882813 18.52304687 -27.31640625 18.27734375 C-23.67147793 16.87346676 -21.7323819 15.25993752 -18.9375 12.5625 C-15.77990344 9.53459935 -12.82522122 7.12855052 -9 5 C-8.35675781 4.62617188 -7.71351563 4.25234375 -7.05078125 3.8671875 C-2.22222222 1.11111111 -2.22222222 1.11111111 0 0 Z " fill="#5BC23C" transform="translate(361,322)"/>
<path d="M0 0 C-6.94469981 6.25022983 -15.41900093 9.34672124 -24.23828125 12.0078125 C-27.09959639 13.03578145 -29.4222593 14.40282843 -32 16 C-37.22392496 17.87272782 -41.53244681 18.19184397 -47 18 C-44.31345281 14.52329187 -41.1698058 13.95700461 -37 13 C-35.64687721 12.86416528 -34.29261812 12.73922452 -32.9375 12.625 C-28.5289789 11.92523475 -26.56960447 10.60283659 -23 8 C-19.41925262 6.04188575 -15.87409124 4.29136375 -12 3 C-12 2.34 -12 1.68 -12 1 C-7.93631321 0.22596442 -4.13574827 -0.0984702 0 0 Z " fill="#D3DDC4" transform="translate(331,342)"/>
<path d="M0 0 C12.70926687 -1.03280724 25.68357543 3.60331823 36 11 C36.859375 13.21875 36.859375 13.21875 37 15 C31.69592186 13.38180667 26.80646221 11.47992043 21.8125 9.0625 C15.86322255 6.23185205 10.08455152 4.46175963 3.703125 2.859375 C2.81109375 2.57578125 1.9190625 2.2921875 1 2 C0.67 1.34 0.34 0.68 0 0 Z " fill="#D2F0CD" transform="translate(390,41)"/>
<path d="M0 0 C0.99 0.33 1.98 0.66 3 1 C4.18055088 3.76458118 5.20649913 6.47811837 6.1875 9.3125 C11.79463833 24.5288754 21.03497747 37.1582062 34.34765625 46.625 C34.89292969 47.07875 35.43820313 47.5325 36 48 C36 48.66 36 49.32 36 50 C23.11223828 45.68862647 13.59648791 31.325247 7.67651367 19.79736328 C6.06117104 16.55617661 4.50055004 13.29588168 3 10 C2.55865723 9.04407959 2.55865723 9.04407959 2.10839844 8.06884766 C0.82044115 5.19692886 0 3.18462722 0 0 Z " fill="#F3FAF2" transform="translate(39,413)"/>
<path d="M0 0 C0.495 0.99 0.495 0.99 1 2 C0.15405273 2.07516846 -0.69189453 2.15033691 -1.56347656 2.2277832 C-4.76246368 2.51663523 -7.96051595 2.81406384 -11.15820312 3.11694336 C-12.53094241 3.24527718 -13.90398786 3.37038549 -15.27734375 3.49194336 C-23.20730769 4.19624937 -30.83205682 5.21072363 -38.51367188 7.38476562 C-41.79741008 8.19731671 -44.63923642 8.22914297 -48 8 C-44.78405915 4.46246506 -42.3964141 3.0789827 -37.546875 2.8046875 C-35.66742188 2.83949219 -35.66742188 2.83949219 -33.75 2.875 C-32.48671875 2.89304687 -31.2234375 2.91109375 -29.921875 2.9296875 C-28.95765625 2.95289062 -27.9934375 2.97609375 -27 3 C-27 2.34 -27 1.68 -27 1 C-23.81265063 0.83036895 -20.62510059 0.66483749 -17.4375 0.5 C-16.09461914 0.42845703 -16.09461914 0.42845703 -14.72460938 0.35546875 C-9.80829229 0.10334993 -4.9226912 -0.0540213 0 0 Z " fill="#A1DA92" transform="translate(252,120)"/>
<path d="M0 0 C-0.15182632 2.65696068 -0.47324024 4.44234524 -2.33203125 6.41015625 C-7.68507964 10.87754214 -10.27288303 11.10850189 -17 11 C-17.33 10.01 -17.66 9.02 -18 8 C-15.36 7.67 -12.72 7.34 -10 7 C-10 6.34 -10 5.68 -10 5 C-11.98 4.34 -13.96 3.68 -16 3 C-16 2.67 -16 2.34 -16 2 C-13.70858188 1.66496236 -11.41685737 1.33201958 -9.125 1 C-7.21074219 0.7215625 -7.21074219 0.7215625 -5.2578125 0.4375 C-2 0 -2 0 0 0 Z " fill="#D4D2CF" transform="translate(203,257)"/>
<path d="M0 0 C6.15449185 5.43162175 7.68231556 12.99589343 8.31445312 20.96337891 C8.43631032 25.08285658 8.35214251 29.19355512 8.25 33.3125 C8.22987061 34.74671938 8.2116314 36.18096658 8.1953125 37.61523438 C8.15190341 41.07741564 8.08324714 44.53851978 8 48 C7.67 48 7.34 48 7 48 C6.93006836 47.11441406 6.86013672 46.22882813 6.78808594 45.31640625 C5.15629897 22.35716591 5.15629897 22.35716591 0 0 Z " fill="#A8DB9E" transform="translate(386,204)"/>
<path d="M0 0 C0 0.66 0 1.32 0 2 C-2.06175364 2.959938 -4.12443469 3.91788424 -6.1875 4.875 C-7.33605469 5.40867187 -8.48460937 5.94234375 -9.66796875 6.4921875 C-14.22475729 8.5542278 -18.38655729 10.20549069 -23.3125 11.125 C-24.19550781 11.29257812 -25.07851562 11.46015625 -25.98828125 11.6328125 C-26.98408203 11.81457031 -26.98408203 11.81457031 -28 12 C-27.67 11.01 -27.34 10.02 -27 9 C-24.6025111 7.86481413 -22.29534454 6.90370834 -19.8125 6 C-18.48471307 5.50256568 -17.15787512 5.00259037 -15.83203125 4.5 C-15.18524414 4.25612549 -14.53845703 4.01225098 -13.87207031 3.76098633 C-12.11290118 3.04589371 -10.41340723 2.18873862 -8.72265625 1.32421875 C-5.59667927 -0.19616317 -3.43260363 -0.24518597 0 0 Z " fill="#D2DFC0" transform="translate(186,369)"/>
<path d="M0 0 C-1.23655601 3.42430894 -2.40112619 6.40112619 -5 9 C-8.1263916 9.56114721 -9.54871092 9.25613705 -12.3125 7.6875 C-12.869375 7.130625 -13.42625 6.57375 -14 6 C-14 5.01 -14 4.02 -14 3 C-4.58997722 -1.77676538 -4.58997722 -1.77676538 0 0 Z " fill="#4BB225" transform="translate(330,347)"/>
<path d="M0 0 C1.65 0.33 3.3 0.66 5 1 C2.88362863 4.76094021 0.50337624 7.91261423 -2.375 11.125 C-3.50035156 12.39730469 -3.50035156 12.39730469 -4.6484375 13.6953125 C-6.9788965 15.97931717 -9.06677198 17.57753156 -12 19 C-12.66 18.67 -13.32 18.34 -14 18 C-13.54109375 17.57589844 -13.0821875 17.15179688 -12.609375 16.71484375 C-8.44987624 12.73885229 -5.6817465 9.07616301 -3 4 C-2.02798869 2.64612711 -1.04115841 1.30144802 0 0 Z " fill="#75C862" transform="translate(371,305)"/>
<path d="M0 0 C2.96732013 5.24428415 3.38939058 11.21863872 2.5625 17.125 C2.376875 17.74375 2.19125 18.3625 2 19 C0.35 19 -1.3 19 -3 19 C-3.31461385 11.90370975 -3.44572039 6.31715405 0 0 Z " fill="#E6E4E1" transform="translate(174,239)"/>
<path d="M0 0 C0.66 0 1.32 0 2 0 C1.49607061 4.40938215 0.0379639 6.78843816 -3 10 C-6.2363025 12.04658954 -8.82974191 12.27045961 -12.625 12.25 C-13.58664062 12.25515625 -14.54828125 12.2603125 -15.5390625 12.265625 C-18 12 -18 12 -20 10 C-18.2271307 8.2271307 -15.59206048 8.37216897 -13.1875 8 C-9.74341317 7.46304127 -6.36581825 6.91276427 -3 6 C-2.87625 5.38125 -2.7525 4.7625 -2.625 4.125 C-2 2 -2 2 0 0 Z " fill="#DDDBD8" transform="translate(321,255)"/>
<path d="M0 0 C0.66 0.33 1.32 0.66 2 1 C1.95359375 1.80824219 1.9071875 2.61648438 1.859375 3.44921875 C1.82328125 4.51785156 1.7871875 5.58648437 1.75 6.6875 C1.70359375 7.74324219 1.6571875 8.79898437 1.609375 9.88671875 C2.1057634 13.84293428 3.01731494 15.36147091 6 18 C9.48608069 18.81770378 9.48608069 18.81770378 13.25 18.8125 C14.51328125 18.86019531 15.7765625 18.90789062 17.078125 18.95703125 C18.52445313 18.97830078 18.52445313 18.97830078 20 19 C15.04056111 21.9685103 9.60028539 21.7832567 4 21 C0.97419012 18.39639615 0.24646316 16.73938948 -1 13 C-1.09308544 11.33541327 -1.12996185 9.66718003 -1.125 8 C-1.12757813 7.13375 -1.13015625 6.2675 -1.1328125 5.375 C-1 3 -1 3 0 0 Z " fill="#CCE1BC" transform="translate(136,363)"/>
<path d="M0 0 C0.763125 0.061875 1.52625 0.12375 2.3125 0.1875 C2.6425 1.1775 2.9725 2.1675 3.3125 3.1875 C2.9825 3.8475 2.6525 4.5075 2.3125 5.1875 C0.45703125 5.64453125 0.45703125 5.64453125 -1.875 6 C-6.74675067 6.95722896 -9.1636642 8.75401896 -12.6875 12.1875 C-14.0075 11.1975 -15.3275 10.2075 -16.6875 9.1875 C-15.0375 8.5275 -13.3875 7.8675 -11.6875 7.1875 C-11.6875 6.5275 -11.6875 5.8675 -11.6875 5.1875 C-10.759375 4.919375 -9.83125 4.65125 -8.875 4.375 C-5.72835375 3.46498605 -5.72835375 3.46498605 -4.125 1.5625 C-2.6875 0.1875 -2.6875 0.1875 0 0 Z " fill="#58B23D" transform="translate(342.6875,335.8125)"/>
<path d="M0 0 C0.33 0 0.66 0 1 0 C1.0501123 0.63091553 1.10022461 1.26183105 1.15185547 1.91186523 C1.38313719 4.75463751 1.62886933 7.59597655 1.875 10.4375 C1.95363281 11.43072266 2.03226563 12.42394531 2.11328125 13.44726562 C2.19707031 14.39150391 2.28085938 15.33574219 2.3671875 16.30859375 C2.44050293 17.18314209 2.51381836 18.05769043 2.58935547 18.95874023 C2.72486816 19.63235596 2.86038086 20.30597168 3 21 C3.66 21.33 4.32 21.66 5 22 C2.08842277 21.68523489 0.44770125 21.4372896 -1.6796875 19.359375 C-3.45938433 16.17908835 -3.16344063 14.100238 -2.8125 10.5 C-2.71582031 9.3759375 -2.61914062 8.251875 -2.51953125 7.09375 C-2.0492246 4.29312691 -1.43941729 2.4167994 0 0 Z " fill="#DDDBD8" transform="translate(233,239)"/>
<path d="M0 0 C0 0.66 0 1.32 0 2 C-6.625 6 -6.625 6 -10 6 C-10 6.66 -10 7.32 -10 8 C-11.65 8 -13.3 8 -15 8 C-15 6.35 -15 4.7 -15 3 C-9.39347922 -0.85448303 -6.65774342 -1.40163019 0 0 Z " fill="#45AC15" transform="translate(204,366)"/>
<path d="M0 0 C0.66 0 1.32 0 2 0 C2.2874051 8.19104544 0.33307052 14.57634293 -3 22 C-3.33 22 -3.66 22 -4 22 C-4.28795955 14.19309671 -4.05169836 6.94576862 0 0 Z " fill="#61C34A" transform="translate(110,210)"/>
<path d="M0 0 C6.83036978 0.3252557 12.60197221 1.52975824 18 6 C18.75 8.16796875 18.75 8.16796875 19 10 C12.2813095 8.00386732 6.19265192 5.2708579 0 2 C0 1.34 0 0.68 0 0 Z " fill="#C5EDBF" transform="translate(408,46)"/>
<path d="M0 0 C0.61101562 0.1959375 1.22203125 0.391875 1.8515625 0.59375 C-6.1484375 8.59375 -6.1484375 8.59375 -8.3359375 10.71875 C-10.14080692 12.58585629 -11.13164398 14.22123178 -12.1484375 16.59375 C-13.1384375 16.59375 -14.1284375 16.59375 -15.1484375 16.59375 C-13.77759445 10.97329349 -6.97011324 -1.31798505 0 0 Z " fill="#ACE7A1" transform="translate(65.1484375,62.40625)"/>
<path d="M0 0 C-1.30016761 3.90050282 -2.76003913 4.31143857 -6.3125 6.25 C-7.76076172 7.06210937 -7.76076172 7.06210937 -9.23828125 7.890625 C-12.13699811 9.05503177 -13.16529977 9.15811981 -16 8 C-16 7.34 -16 6.68 -16 6 C-5.8 0 -5.8 0 0 0 Z " fill="#4CAD35" transform="translate(316,351)"/>
<path d="M0 0 C0.99 0.33 1.98 0.66 3 1 C-2.36431804 6.18550744 -9.26193775 8.17442174 -16.625 8.1875 C-17.73875 8.125625 -18.8525 8.06375 -20 8 C-17.31345281 4.52329187 -14.1698058 3.95700461 -10 3 C-8.56428583 2.81859207 -7.12664956 2.65176486 -5.6875 2.5 C-1.97142293 2.37521316 -1.97142293 2.37521316 0 0 Z " fill="#C5DAB2" transform="translate(304,352)"/>
<path d="M0 0 C2.2389766 3.35846491 3.12872154 6.58891321 4.125 10.4375 C4.30675781 11.10587891 4.48851563 11.77425781 4.67578125 12.46289062 C5.55418382 15.7948763 6 18.52536772 6 22 C5.34 22 4.68 22 4 22 C3.67 20.02 3.34 18.04 3 16 C2.34 16 1.68 16 1 16 C1 15.01 1 14.02 1 13 C0.01 13 -0.98 13 -2 13 C-2 12.34 -2 11.68 -2 11 C-1.34 11 -0.68 11 0 11 C0 7.37 0 3.74 0 0 Z " fill="#58BB45" transform="translate(111,264)"/>
<path d="M0 0 C1.26328125 0.01804687 2.5265625 0.03609375 3.828125 0.0546875 C4.79234375 0.07789062 5.7565625 0.10109375 6.75 0.125 C2.82713834 4.04786166 -4.18107508 4.87478815 -9.59765625 5.31640625 C-11.14974614 5.31321921 -12.70150196 5.23057941 -14.25 5.125 C-9.90808247 0.34889072 -6.39649445 -0.1184536 0 0 Z " fill="#95D88C" transform="translate(218.25,122.875)"/>
<path d="M0 0 C0.66 0 1.32 0 2 0 C1.08571637 6.70474663 -6.12136009 11.36118646 -10.9375 15.5625 C-13 17 -13 17 -15 17 C-13.51163341 13.38423986 -11.4691203 11.43908025 -8.5 8.9375 C-5.81509872 6.66666629 -3.96528001 4.94792002 -2 2 C-1.34 2 -0.68 2 0 2 C0 1.34 0 0.68 0 0 Z " fill="#CFE2C2" transform="translate(363,313)"/>
<path d="M0 0 C-0.33 0.99 -0.66 1.98 -1 3 C-8.42838645 4.33710956 -15.51404207 3.68340908 -23 3 C-16.27821038 -0.86345852 -7.55550997 -0.14255679 0 0 Z " fill="#45AF14" transform="translate(274,364)"/>
<path d="M0 0 C0.66 0 1.32 0 2 0 C0.62523555 5.19355461 -2.74341593 8.00427491 -7 11 C-11.25800538 12.41933513 -15.22911538 12.72651677 -19.4375 11 C-19.953125 10.67 -20.46875 10.34 -21 10 C-19 9 -19 9 -15.375 9.25 C-10.90714819 9.3395198 -8.33327587 7.73423901 -4.76171875 5.19140625 C-3 4 -3 4 0 3 C0 2.01 0 1.02 0 0 Z " fill="#E5E3DF" transform="translate(263,256)"/>
<path d="M0 0 C0.99 0.33 1.98 0.66 3 1 C4.2710735 4.16678884 4.10265074 7.37733787 4.0625 10.75 C4.05347656 11.73484375 4.04445313 12.7196875 4.03515625 13.734375 C4.02355469 14.48203125 4.01195313 15.2296875 4 16 C3.01 16 2.02 16 1 16 C0.14701624 12.32612505 -0.10789471 8.9552607 -0.0625 5.1875 C-0.05347656 4.21167969 -0.04445313 3.23585938 -0.03515625 2.23046875 C-0.02355469 1.49441406 -0.01195313 0.75835937 0 0 Z " fill="#4AB619" transform="translate(107,259)"/>
<path d="M0 0 C2 2 2 2 2.1953125 5.0390625 C2.17210937 6.22242188 2.14890625 7.40578125 2.125 8.625 C2.10695312 9.81351563 2.08890625 11.00203125 2.0703125 12.2265625 C2.04710937 13.14179688 2.02390625 14.05703125 2 15 C0.68 14.34 -0.64 13.68 -2 13 C-2 9.04 -2 5.08 -2 1 C-1.34 0.67 -0.68 0.34 0 0 Z " fill="#848483" transform="translate(236,236)"/>
<path d="M0 0 C2.91843445 2.626591 4.94517315 5.66976339 7 9 C7 9.66 7 10.32 7 11 C6.34 11 5.68 11 5 11 C5 11.99 5 12.98 5 14 C4.01 14 3.02 14 2 14 C0.02905192 9.07262981 -0.1799928 5.21979128 0 0 Z " fill="#57B72F" transform="translate(124,296)"/>
<path d="M0 0 C2.60453576 3.90680365 2.07369736 6.95466799 1.75 11.4375 C1.71003906 12.20126953 1.67007813 12.96503906 1.62890625 13.75195312 C1.37379588 17.71305881 0.95136899 20.47898753 -1 24 C-1.02887236 20.18751574 -1.04675492 16.3750593 -1.0625 12.5625 C-1.07087891 11.47388672 -1.07925781 10.38527344 -1.08789062 9.26367188 C-1.09111328 8.22919922 -1.09433594 7.19472656 -1.09765625 6.12890625 C-1.10289307 5.17056885 -1.10812988 4.21223145 -1.11352539 3.22485352 C-1 1 -1 1 0 0 Z " fill="#B8DDB0" transform="translate(109,225)"/>
<path d="M0 0 C2.92879371 0.62759865 5.36095629 1.58622659 8 3 C8 3.66 8 4.32 8 5 C8.66 5 9.32 5 10 5 C10.33 5.66 10.66 6.32 11 7 C11.99 7.33 12.98 7.66 14 8 C14 8.66 14 9.32 14 10 C8.19657726 8.51194289 3.82409121 5.40902445 -1 2 C-0.67 1.34 -0.34 0.68 0 0 Z " fill="#A4DB95" transform="translate(329,140)"/>
<path d="M0 0 C0.99 0.33 1.98 0.66 3 1 C3.29344873 5.98862849 3.05887078 8.96229058 0 13 C-0.33 13 -0.66 13 -1 13 C-1.02686553 11.02090602 -1.04633375 9.04171029 -1.0625 7.0625 C-1.07410156 5.96035156 -1.08570313 4.85820312 -1.09765625 3.72265625 C-1 1 -1 1 0 0 Z " fill="#46A815" transform="translate(144,324)"/>
<path d="M0 0 C0.99 0 1.98 0 3 0 C1.37621488 4.72373854 -1.10993018 8.94181834 -4 13 C-4.33 13 -4.66 13 -5 13 C-4.67 10.03 -4.34 7.06 -4 4 C-2.68 3.67 -1.36 3.34 0 3 C0 2.01 0 1.02 0 0 Z " fill="#81CD75" transform="translate(125,181)"/>
<path d="M0 0 C2.59094622 0.35012787 4.5774211 0.73770965 6.8125 2.125 C8.63883169 5.00868162 8.18806842 7.67745793 8 11 C4.31993178 7.61831569 2.0214155 4.57478244 0 0 Z " fill="#98D785" transform="translate(370,176)"/>
<path d="M0 0 C-0.625 1.875 -0.625 1.875 -2 4 C-6.61930435 6.25593933 -10.03049088 5.99390182 -15 5 C-13.66666667 4.33333333 -12.33333333 3.66666667 -11 3 C-10.030625 2.46375 -9.06125 1.9275 -8.0625 1.375 C-5.02682825 0.01204533 -3.26769974 -0.28832645 0 0 Z " fill="#5DB144" transform="translate(167,379)"/>
<path d="M0 0 C1.32 0 2.64 0 4 0 C4 0.66 4 1.32 4 2 C2.2335343 3.0076952 0.46166177 4.00591714 -1.3125 5 C-2.79169922 5.8353125 -2.79169922 5.8353125 -4.30078125 6.6875 C-7 8 -7 8 -10 8 C-8.125 4.125 -8.125 4.125 -7 3 C-5.00041636 2.95919217 -2.99954746 2.95745644 -1 3 C-0.67 2.01 -0.34 1.02 0 0 Z " fill="#C5D7B0" transform="translate(197,361)"/>
<path d="M0 0 C1.32176485 0.90325616 2.63215066 1.82317903 3.9375 2.75 C4.66839844 3.26046875 5.39929688 3.7709375 6.15234375 4.296875 C8.20805399 6.19177915 8.62669176 7.27425729 9 10 C6.125 10.1875 6.125 10.1875 3 10 C2.34 9.01 1.68 8.02 1 7 C1.66 7 2.32 7 3 7 C3 6.34 3 5.68 3 5 C2.34 5 1.68 5 1 5 C0.67 3.35 0.34 1.7 0 0 Z " fill="#65B846" transform="translate(138,315)"/>
<path d="M0 0 C0 0.66 0 1.32 0 2 C-1.62249941 2.83819158 -3.24808497 3.6704116 -4.875 4.5 C-6.23238281 5.19609375 -6.23238281 5.19609375 -7.6171875 5.90625 C-10 7 -10 7 -12 7 C-10.55172414 2.4137931 -10.55172414 2.4137931 -8.25 0.6875 C-5.42890579 -0.17450101 -2.93240449 -0.13329111 0 0 Z " fill="#C7D9B5" transform="translate(186,369)"/>
<path d="M0 0 C0.99 0.33 1.98 0.66 3 1 C2.04663979 2.31611677 1.08714226 3.62778961 0.125 4.9375 C-0.40867187 5.66839844 -0.94234375 6.39929688 -1.4921875 7.15234375 C-3 9 -3 9 -5 10 C-5.66 9.34 -6.32 8.68 -7 8 C-5.11788404 4.51808548 -3.4990401 1.96821006 0 0 Z " fill="#54BC2F" transform="translate(355,325)"/>
<path d="M0 0 C1.65 0.33 3.3 0.66 5 1 C2.92856799 5.03384128 1.03384128 6.92856799 -3 9 C-3.26218749 5.85375007 -3.24754367 4.38162983 -1.5 1.6875 C-1.005 1.130625 -0.51 0.57375 0 0 Z " fill="#6ECB59" transform="translate(371,305)"/>
<path d="M0 0 C0.66 0 1.32 0 2 0 C2.33 4.95 2.66 9.9 3 15 C2.34 13.68 1.68 12.36 1 11 C0.34 10.67 -0.32 10.34 -1 10 C-1.33 10.66 -1.66 11.32 -2 12 C-2 10.02 -2 8.04 -2 6 C-1.34 6 -0.68 6 0 6 C0 4.02 0 2.04 0 0 Z " fill="#65BD53" transform="translate(108,249)"/>
<path d="M0 0 C-1.61949042 1.50594681 -3.24575974 3.00460668 -4.875 4.5 C-6.23238281 5.75296875 -6.23238281 5.75296875 -7.6171875 7.03125 C-10 9 -10 9 -12 9 C-12 8.34 -12 7.68 -12 7 C-11.34 6.67 -10.68 6.34 -10 6 C-9.54625 5.195625 -9.0925 4.39125 -8.625 3.5625 C-6.15531239 -0.33200739 -4.4435905 -1.48119683 0 0 Z " fill="#C4DBB5" transform="translate(346,332)"/>
<path d="M0 0 C1.35304209 4.05912626 0.15216503 5.77149591 -1.4375 9.6875 C-2.14712891 11.45673828 -2.14712891 11.45673828 -2.87109375 13.26171875 C-3.24363281 14.16535156 -3.61617188 15.06898438 -4 16 C-4.33 16 -4.66 16 -5 16 C-4.67 12.37 -4.34 8.74 -4 5 C-3.34 5 -2.68 5 -2 5 C-2 3.68 -2 2.36 -2 1 C-1.34 0.67 -0.68 0.34 0 0 Z " fill="#82CD75" transform="translate(117,198)"/>
<path d="M0 0 C0.33 0 0.66 0 1 0 C2.33257403 10.55808656 2.33257403 10.55808656 1 15 C0.34 15 -0.32 15 -1 15 C-1.02693575 12.87506859 -1.04636628 10.75004088 -1.0625 8.625 C-1.07410156 7.44164062 -1.08570313 6.25828125 -1.09765625 5.0390625 C-1 2 -1 2 0 0 Z " fill="#D2D0CD" transform="translate(175,243)"/>
<path d="M0 0 C0.66 0 1.32 0 2 0 C1.38461538 6.52307692 1.38461538 6.52307692 -0.5625 8.9375 C-1.036875 9.288125 -1.51125 9.63875 -2 10 C-2.66 9.34 -3.32 8.68 -4 8 C-2.68 5.36 -1.36 2.72 0 0 Z " fill="#ABE59F" transform="translate(48,79)"/>
<path d="M0 0 C0.66 0.33 1.32 0.66 2 1 C2.08131463 2.43655854 2.13933559 3.8744483 2.1875 5.3125 C2.23970703 6.51326172 2.23970703 6.51326172 2.29296875 7.73828125 C1.93801608 10.47851584 1.10633718 11.29171079 -1 13 C-1.02708567 11.39592672 -1.04643483 9.7917215 -1.0625 8.1875 C-1.07410156 7.29417969 -1.08570313 6.40085937 -1.09765625 5.48046875 C-1 3 -1 3 0 0 Z " fill="#BAD9A9" transform="translate(136,363)"/>
<path d="M0 0 C2.125 0.375 2.125 0.375 4 1 C3.67 2.32 3.34 3.64 3 5 C0.69 5.33 -1.62 5.66 -4 6 C-2.84826645 3.53199953 -1.95216435 1.95216435 0 0 Z " fill="#4BB727" transform="translate(342,336)"/>
<path d="M0 0 C3.3 0 6.6 0 10 0 C10.33 0.99 10.66 1.98 11 3 C7.7 3 4.4 3 1 3 C0.67 2.01 0.34 1.02 0 0 Z " fill="#43AD0C" transform="translate(210,363)"/>
<path d="M0 0 C-3.19990508 2.74277578 -6.00499382 4.6302836 -10 6 C-9.67 4.35 -9.34 2.7 -9 1 C-5.8035914 -0.06546953 -3.34252724 -0.07427838 0 0 Z " fill="#C7DAB6" transform="translate(331,342)"/>
<path d="M0 0 C1.32 0.33 2.64 0.66 4 1 C1.69 3.31 -0.62 5.62 -3 8 C-3.66 7.67 -4.32 7.34 -5 7 C-5 6.01 -5 5.02 -5 4 C-2.75 1.75 -2.75 1.75 0 0 Z " fill="#A3E596" transform="translate(63,62)"/>
<path d="M0 0 C-2.95183101 2.95183101 -5.95511947 3.08663988 -10 4 C-10 2.68 -10 1.36 -10 0 C-6.7169902 -1.6415049 -3.57454967 -0.51888624 0 0 Z " fill="#8EDB7A" transform="translate(203,128)"/>
<path d="M0 0 C2.97 0 5.94 0 9 0 C7.515 1.98 7.515 1.98 6 4 C3.03 3.505 3.03 3.505 0 3 C0 2.01 0 1.02 0 0 Z " fill="#4AB023" transform="translate(150,384)"/>
<path d="M0 0 C-0.54723683 3.37462715 -1.0549 5.08235 -3 8 C-4.32 7.01 -5.64 6.02 -7 5 C-2.25 0 -2.25 0 0 0 Z " fill="#5DB94C" transform="translate(349,330)"/>
<path d="M0 0 C4.77195308 4.77195308 4.58136589 5.72048837 5 12 C4.01 12.495 4.01 12.495 3 13 C2.01 8.71 1.02 4.42 0 0 Z " fill="#AADCA0" transform="translate(386,204)"/>
<path d="M0 0 C1.32 0 2.64 0 4 0 C2.73058503 3.91402949 1.48832306 5.79072873 -2 8 C-2 6.02 -2 4.04 -2 2 C-1.34 2 -0.68 2 0 2 C0 1.34 0 0.68 0 0 Z " fill="#84D27A" transform="translate(130,173)"/>
<path d="M0 0 C0.66 0.33 1.32 0.66 2 1 C1.38722388 3.96175123 0.74627478 5.38058783 -1 8 C-2.32 8 -3.64 8 -5 8 C-3.98379995 4.95139986 -3.22608429 4.13333078 -1 2 C-0.67 1.34 -0.34 0.68 0 0 Z " fill="#8A8886" transform="translate(207,248)"/>
<path d="M0 0 C0.33 0 0.66 0 1 0 C1 3.3 1 6.6 1 10 C0.01 10.33 -0.98 10.66 -2 11 C-1.125 3.375 -1.125 3.375 0 0 Z " fill="#90D38A" transform="translate(391,262)"/>
<path d="M0 0 C2.97 0.495 2.97 0.495 6 1 C6 1.99 6 2.98 6 4 C4.35 4 2.7 4 1 4 C0.67 2.68 0.34 1.36 0 0 Z " fill="#4BAF17" transform="translate(316,350)"/>
<path d="M0 0 C2.78211944 0.37596209 4.5879284 0.67318459 6.8125 2.4375 C8 4 8 4 8 6 C4.08597051 4.73058503 2.20927127 3.48832306 0 0 Z " fill="#C3ECBE" transform="translate(427,56)"/>
<path d="M0 0 C2.8125 -0.1875 2.8125 -0.1875 6 0 C6.99 0.99 7.98 1.98 9 3 C6.03 2.67 3.06 2.34 0 2 C0 1.34 0 0.68 0 0 Z " fill="#BAEBB0" transform="translate(384,41)"/>
</svg>
