<?xml version="1.0" encoding="UTF-8"?>
<svg version="1.1" xmlns="http://www.w3.org/2000/svg" width="500" height="500">
<path d="M0 0 C3.61549081 0.00850189 7.22939067 -0.02036163 10.84472656 -0.05200195 C58.02094054 -0.19291935 106.37760054 14.97882547 144.88378906 42.44604492 C145.86476563 43.12924805 146.84574219 43.81245117 147.85644531 44.51635742 C150.57151415 46.44620491 153.23332488 48.42841629 155.88378906 50.44604492 C156.78484375 51.12812012 156.78484375 51.12812012 157.70410156 51.82397461 C159.66658556 53.31440693 161.6202426 54.81567892 163.57128906 56.32104492 C164.19672607 56.79799805 164.82216309 57.27495117 165.46655273 57.76635742 C166.97717296 58.94554338 168.43596206 60.19055698 169.88378906 61.44604492 C169.88378906 62.10604492 169.88378906 62.76604492 169.88378906 63.44604492 C170.44606201 63.68379639 171.00833496 63.92154785 171.58764648 64.16650391 C174.40147901 65.73453115 176.34059319 67.64354456 178.62207031 69.91870117 C179.52505859 70.81911133 180.42804688 71.71952148 181.35839844 72.6472168 C181.82528076 73.11828857 182.29216309 73.58936035 182.77319336 74.07470703 C184.1743907 75.48648127 185.58663464 76.88726392 186.99902344 78.2878418 C201.88378906 93.21492374 201.88378906 93.21492374 201.88378906 97.44604492 C202.54378906 97.44604492 203.20378906 97.44604492 203.88378906 97.44604492 C205.23730469 99.08813477 205.23730469 99.08813477 206.79003906 101.40698242 C207.36415527 102.26195313 207.93827148 103.11692383 208.52978516 103.99780273 C209.14160645 104.92947266 209.75342773 105.86114258 210.38378906 106.82104492 C211.01236816 107.77333984 211.64094727 108.72563477 212.28857422 109.70678711 C239.38456613 151.21759806 254.55945758 197.44088366 254.27490234 247.11401367 C254.25879964 250.44385714 254.27487033 253.77248744 254.29394531 257.10229492 C254.33807469 303.79935843 240.01108613 351.28224155 213.10791016 389.67651367 C211.86537652 391.47266122 210.67563338 393.29488853 209.49707031 395.13354492 C209.12759277 395.70645264 208.75811523 396.27936035 208.37744141 396.86962891 C208.02891113 397.41047119 207.68038086 397.95131348 207.32128906 398.50854492 C205.44238281 401.41870117 205.44238281 401.41870117 203.88378906 403.44604492 C203.22378906 403.44604492 202.56378906 403.44604492 201.88378906 403.44604492 C201.6246875 404.01194336 201.36558594 404.5778418 201.09863281 405.16088867 C196.31062134 414.16727681 188.05670268 421.47925217 180.94628906 428.63354492 C180.09301025 429.4960083 179.23973145 430.35847168 178.3605957 431.24707031 C177.55485107 432.04878662 176.74910645 432.85050293 175.91894531 433.67651367 C175.19070557 434.40249756 174.46246582 435.12848145 173.7121582 435.87646484 C171.88378906 437.44604492 171.88378906 437.44604492 169.88378906 437.44604492 C169.55378906 438.43604492 169.22378906 439.42604492 168.88378906 440.44604492 C166.90027323 442.21182142 164.92616533 443.83695116 162.82128906 445.44604492 C162.19859131 445.92734863 161.57589355 446.40865234 160.93432617 446.90454102 C153.78158953 452.37464681 146.41224145 457.50833255 138.88378906 462.44604492 C138.00980469 463.02153076 138.00980469 463.02153076 137.11816406 463.60864258 C120.71448517 474.27009328 102.62388209 482.86388955 83.88378906 488.44604492 C82.52370332 488.95121963 81.16839155 489.46970393 79.82128906 490.00854492 C70.52158184 493.5305617 60.93673291 495.75055982 51.19628906 497.63354492 C50.34204346 497.80039795 49.48779785 497.96725098 48.60766602 498.13916016 C38.50798114 500.02129938 28.46835883 500.60606671 18.20800781 500.64916992 C17.12155472 500.65487 16.03510162 500.66057007 14.91572571 500.66644287 C12.62571161 500.67583233 10.33568436 500.68240254 8.0456543 500.6862793 C4.6183985 500.69591251 1.19176225 500.72696544 -2.23535156 500.75854492 C-54.25600386 501.00689834 -104.25683774 482.98635936 -145.90917969 452.07495117 C-147.61137648 450.81863956 -149.35591955 449.61957251 -151.11621094 448.44604492 C-151.11621094 447.78604492 -151.11621094 447.12604492 -151.11621094 446.44604492 C-152.16808594 446.10573242 -152.16808594 446.10573242 -153.24121094 445.75854492 C-156.85749629 444.10763204 -159.2039107 442.15516142 -162.11621094 439.44604492 C-162.11621094 438.78604492 -162.11621094 438.12604492 -162.11621094 437.44604492 C-162.69145508 437.19532227 -163.26669922 436.94459961 -163.859375 436.6862793 C-166.4206229 435.27875665 -168.15678486 433.66434467 -170.22558594 431.60229492 C-171.35673828 430.47500977 -171.35673828 430.47500977 -172.51074219 429.32495117 C-173.28804688 428.53991211 -174.06535156 427.75487305 -174.86621094 426.94604492 C-176.05537109 425.76848633 -176.05537109 425.76848633 -177.26855469 424.56713867 C-178.0175 423.81561523 -178.76644531 423.0640918 -179.53808594 422.28979492 C-180.22483398 421.60079102 -180.91158203 420.91178711 -181.61914062 420.2019043 C-183.11621094 418.44604492 -183.11621094 418.44604492 -183.11621094 416.44604492 C-184.10621094 416.11604492 -185.09621094 415.78604492 -186.11621094 415.44604492 C-187.72167969 413.66870117 -187.72167969 413.66870117 -189.30371094 411.50854492 C-189.83351562 410.79827148 -190.36332031 410.08799805 -190.90917969 409.35620117 C-192.11621094 407.44604492 -192.11621094 407.44604492 -192.11621094 405.44604492 C-192.77621094 405.44604492 -193.43621094 405.44604492 -194.11621094 405.44604492 C-195.40966797 404.01586914 -195.40966797 404.01586914 -196.87402344 402.00073242 C-197.41317383 401.26072998 -197.95232422 400.52072754 -198.5078125 399.75830078 C-199.07983398 398.95400635 -199.65185547 398.14971191 -200.24121094 397.32104492 C-200.82870117 396.49934814 -201.41619141 395.67765137 -202.02148438 394.83105469 C-206.48940317 388.50109324 -210.50760853 382.0821328 -214.15380859 375.23852539 C-215.17456261 373.33736456 -216.22771242 371.45647793 -217.28417969 369.57495117 C-235.04814664 337.52449728 -246.16153333 300.74038096 -246.31933594 263.98901367 C-246.32503601 262.92475662 -246.33073608 261.86049957 -246.33660889 260.76399231 C-246.3459966 258.52105686 -246.35256785 256.278108 -246.35644531 254.03515625 C-246.36607664 250.68032316 -246.39713044 247.32612355 -246.42871094 243.97143555 C-246.51849423 225.84848923 -245.08068145 208.08500194 -240.42871094 190.50854492 C-240.17089844 189.51878662 -239.91308594 188.52902832 -239.64746094 187.50927734 C-233.26071065 163.65166244 -223.74921427 140.70951588 -211.11621094 119.44604492 C-210.45621094 119.44604492 -209.79621094 119.44604492 -209.11621094 119.44604492 C-209.02984375 118.9072168 -208.94347656 118.36838867 -208.85449219 117.81323242 C-207.86540683 114.64187938 -206.18036083 112.30768094 -204.30371094 109.57104492 C-203.61664063 108.56299805 -202.92957031 107.55495117 -202.22167969 106.51635742 C-201.526875 105.5031543 -200.83207031 104.48995117 -200.11621094 103.44604492 C-199.75865723 102.87853516 -199.40110352 102.31102539 -199.03271484 101.72631836 C-198.10899652 100.26772559 -197.11752411 98.85250158 -196.11621094 97.44604492 C-195.45621094 97.44604492 -194.79621094 97.44604492 -194.11621094 97.44604492 C-193.85839844 96.88401367 -193.60058594 96.32198242 -193.33496094 95.74291992 C-191.97451317 93.17899913 -190.38832132 90.99378127 -188.61621094 88.69604492 C-188.00777344 87.89682617 -187.39933594 87.09760742 -186.77246094 86.27416992 C-186.22589844 85.67088867 -185.67933594 85.06760742 -185.11621094 84.44604492 C-184.45621094 84.44604492 -183.79621094 84.44604492 -183.11621094 84.44604492 C-182.86548828 83.87080078 -182.61476562 83.29555664 -182.35644531 82.70288086 C-180.94892267 80.14163296 -179.33451068 78.405471 -177.27246094 76.33666992 C-176.5209375 75.58256836 -175.76941406 74.8284668 -174.99511719 74.05151367 C-174.21007812 73.27420898 -173.42503906 72.4969043 -172.61621094 71.69604492 C-171.83117187 70.90327148 -171.04613281 70.11049805 -170.23730469 69.29370117 C-169.48578125 68.54475586 -168.73425781 67.79581055 -167.95996094 67.02416992 C-167.27095703 66.33742188 -166.58195312 65.65067383 -165.87207031 64.94311523 C-164.11621094 63.44604492 -164.11621094 63.44604492 -162.11621094 63.44604492 C-161.87902344 62.86338867 -161.64183594 62.28073242 -161.39746094 61.68041992 C-159.84353033 58.97051655 -158.09691662 57.5807369 -155.61621094 55.69604492 C-154.82214844 55.08245117 -154.02808594 54.46885742 -153.20996094 53.83666992 C-151.11621094 52.44604492 -151.11621094 52.44604492 -149.11621094 52.44604492 C-149.11621094 51.78604492 -149.11621094 51.12604492 -149.11621094 50.44604492 C-145.9320074 47.9673236 -142.47535292 45.88015937 -139.07519531 43.71020508 C-137.04562291 42.40049348 -135.04197636 41.05639134 -133.03808594 39.70776367 C-109.34904609 23.9890409 -83.38903597 13.21213747 -55.92871094 6.13354492 C-55.04030518 5.9028833 -54.15189941 5.67222168 -53.23657227 5.43457031 C-35.54459946 1.12289472 -18.17302018 -0.06488615 0 0 Z M91.88378906 149.44604492 C91.03598877 149.85741699 90.18818848 150.26878906 89.31469727 150.69262695 C81.44803072 154.50940049 73.58030615 158.32398376 65.71156311 162.13647461 C61.47311958 164.19027964 57.23573891 166.24624539 52.99966431 168.30493164 C39.65102215 174.79023741 26.25647299 181.15195802 12.765625 187.33642578 C6.5901451 190.17454093 0.47090811 193.08672493 -5.58789062 196.16503906 C-12.73940177 199.78921442 -19.96045879 203.26990046 -27.17871094 206.75854492 C-28.19630997 207.25047836 -28.19630997 207.25047836 -29.23446655 207.75234985 C-38.58477482 212.27104337 -47.94660486 216.76510954 -57.32006836 221.2355957 C-62.8303761 223.86629823 -68.33205632 226.51421506 -73.82714844 229.17651367 C-74.49641357 229.5007431 -75.16567871 229.82497253 -75.85522461 230.1590271 C-79.24006473 231.79927382 -82.62423473 233.44089124 -86.0078125 235.08374023 C-91.57625716 237.78487855 -97.1464499 240.4782095 -102.76464844 243.07495117 C-103.5614502 243.44338135 -104.35825195 243.81181152 -105.17919922 244.19140625 C-106.57839247 244.83414796 -107.9801939 245.47126074 -109.38525391 246.10107422 C-112.44065444 247.50177538 -115.07516933 248.71263585 -117.11621094 251.44604492 C-117.69966569 254.40350985 -117.69966569 254.40350985 -117.11621094 257.44604492 C-114.50331597 260.50897958 -111.81912958 262.35489804 -108.25683594 264.18041992 C-106.84289551 264.91156006 -106.84289551 264.91156006 -105.40039062 265.6574707 C-104.39911133 266.1652002 -103.39783203 266.67292969 -102.36621094 267.19604492 C-101.33141602 267.7282666 -100.29662109 268.26048828 -99.23046875 268.80883789 C-92.84520865 272.08472808 -86.4410283 275.32520374 -79.9987793 278.48779297 C-76.31318086 280.30650487 -72.69039894 282.21153418 -69.08886719 284.19213867 C-68.23131836 284.6592627 -67.37376953 285.12638672 -66.49023438 285.60766602 C-64.81887337 286.52172144 -63.15377211 287.44734509 -61.49609375 288.38598633 C-57.04709293 290.88446638 -57.04709293 290.88446638 -52.06542969 291.22338867 C-51.10056641 290.83860352 -51.10056641 290.83860352 -50.11621094 290.44604492 C-49.78621094 289.45604492 -49.45621094 288.46604492 -49.11621094 287.44604492 C-48.45621094 287.44604492 -47.79621094 287.44604492 -47.11621094 287.44604492 C-47.11621094 286.78604492 -47.11621094 286.12604492 -47.11621094 285.44604492 C-46.25116943 285.07104858 -46.25116943 285.07104858 -45.36865234 284.68847656 C-42.80533889 283.27456998 -41.12023285 281.66092419 -39.07714844 279.56713867 C-38.33207031 278.81110352 -37.58699219 278.05506836 -36.81933594 277.27612305 C-35.66691406 276.09179688 -35.66691406 276.09179688 -34.49121094 274.88354492 C-32.95957925 273.31756601 -31.42582898 271.75365553 -29.88964844 270.19213867 C-29.21337402 269.49789795 -28.53709961 268.80365723 -27.84033203 268.08837891 C-26.11621094 266.44604492 -26.11621094 266.44604492 -24.11621094 265.44604492 C-24.11621094 264.78604492 -24.11621094 264.12604492 -24.11621094 263.44604492 C-23.45621094 263.44604492 -22.79621094 263.44604492 -22.11621094 263.44604492 C-20.65208971 261.95926831 -20.65208971 261.95926831 -19.11621094 260.00854492 C-16.43524258 256.83389441 -13.63806615 254.03883333 -10.51074219 251.30541992 C-5.05883385 246.45311149 0.07606365 241.33164449 5.19628906 236.13354492 C6.91914083 234.38507454 8.64432381 232.6388975 10.37207031 230.89526367 C11.12012939 230.13560303 11.86818848 229.37594238 12.63891602 228.59326172 C14.88378906 226.44604492 14.88378906 226.44604492 17.66577148 224.29296875 C18.39771729 223.68348389 19.12966309 223.07399902 19.88378906 222.44604492 C19.88378906 221.78604492 19.88378906 221.12604492 19.88378906 220.44604492 C20.54378906 220.44604492 21.20378906 220.44604492 21.88378906 220.44604492 C21.88378906 219.78604492 21.88378906 219.12604492 21.88378906 218.44604492 C22.54378906 218.44604492 23.20378906 218.44604492 23.88378906 218.44604492 C23.88378906 217.78604492 23.88378906 217.12604492 23.88378906 216.44604492 C24.54378906 216.44604492 25.20378906 216.44604492 25.88378906 216.44604492 C25.88378906 215.78604492 25.88378906 215.12604492 25.88378906 214.44604492 C26.4379248 214.21860596 26.99206055 213.99116699 27.56298828 213.75683594 C30.55778611 212.06537059 32.60745142 209.9282213 35.01660156 207.47338867 C35.49451141 206.99027725 35.97242126 206.50716583 36.46481323 206.00941467 C37.98432521 204.47215451 39.49695296 202.92835166 41.00878906 201.38354492 C42.52863465 199.83607015 44.04992325 198.29008566 45.57418823 196.7469635 C46.95297649 195.35033691 48.32694971 193.94896169 49.70068359 192.54736328 C51.88378906 190.44604492 51.88378906 190.44604492 53.88378906 189.44604492 C53.88378906 188.78604492 53.88378906 188.12604492 53.88378906 187.44604492 C54.45597168 187.20055908 55.0281543 186.95507324 55.61767578 186.70214844 C58.26749527 185.23335709 60.0247819 183.51468444 62.14160156 181.34838867 C63.32689453 180.14666016 63.32689453 180.14666016 64.53613281 178.9206543 C65.35210937 178.0834082 66.16808594 177.24616211 67.00878906 176.38354492 C68.63417612 174.7238187 70.26167534 173.06615745 71.89160156 171.41088867 C72.60977051 170.67475342 73.32793945 169.93861816 74.06787109 169.18017578 C75.88378906 167.44604492 75.88378906 167.44604492 77.88378906 166.44604492 C77.88378906 165.78604492 77.88378906 165.12604492 77.88378906 164.44604492 C78.54378906 164.44604492 79.20378906 164.44604492 79.88378906 164.44604492 C79.88378906 163.78604492 79.88378906 163.12604492 79.88378906 162.44604492 C80.54378906 162.44604492 81.20378906 162.44604492 81.88378906 162.44604492 C81.88378906 161.78604492 81.88378906 161.12604492 81.88378906 160.44604492 C82.54378906 160.44604492 83.20378906 160.44604492 83.88378906 160.44604492 C83.88378906 159.78604492 83.88378906 159.12604492 83.88378906 158.44604492 C84.54378906 158.44604492 85.20378906 158.44604492 85.88378906 158.44604492 C85.88378906 157.78604492 85.88378906 157.12604492 85.88378906 156.44604492 C86.52316406 156.17791992 87.16253906 155.90979492 87.82128906 155.63354492 C90.21510592 154.5593674 90.21510592 154.5593674 90.88378906 151.44604492 C91.54378906 151.44604492 92.20378906 151.44604492 92.88378906 151.44604492 C92.55378906 150.78604492 92.22378906 150.12604492 91.88378906 149.44604492 Z M102.88378906 158.44604492 C102.40167969 158.93975586 101.91957031 159.4334668 101.42285156 159.94213867 C100.79121094 160.58280273 100.15957031 161.2234668 99.50878906 161.88354492 C98.88230469 162.52163086 98.25582031 163.1597168 97.61035156 163.81713867 C95.88378906 165.44604492 95.88378906 165.44604492 93.88378906 166.44604492 C93.88378906 167.10604492 93.88378906 167.76604492 93.88378906 168.44604492 C93.22378906 168.44604492 92.56378906 168.44604492 91.88378906 168.44604492 C91.88378906 169.10604492 91.88378906 169.76604492 91.88378906 170.44604492 C91.22378906 170.44604492 90.56378906 170.44604492 89.88378906 170.44604492 C89.88378906 171.10604492 89.88378906 171.76604492 89.88378906 172.44604492 C89.22378906 172.44604492 88.56378906 172.44604492 87.88378906 172.44604492 C87.88378906 173.10604492 87.88378906 173.76604492 87.88378906 174.44604492 C87.22378906 174.44604492 86.56378906 174.44604492 85.88378906 174.44604492 C84.2171224 175.77937826 84.2171224 175.77937826 82.88378906 177.44604492 C82.88378906 178.10604492 82.88378906 178.76604492 82.88378906 179.44604492 C82.22378906 179.44604492 81.56378906 179.44604492 80.88378906 179.44604492 C80.88378906 180.10604492 80.88378906 180.76604492 80.88378906 181.44604492 C80.22378906 181.44604492 79.56378906 181.44604492 78.88378906 181.44604492 C78.88378906 182.10604492 78.88378906 182.76604492 78.88378906 183.44604492 C78.03905029 183.80073853 78.03905029 183.80073853 77.17724609 184.16259766 C74.35472635 185.74211504 72.45189033 187.67039676 70.18847656 189.98120117 C69.30804688 190.87258789 68.42761719 191.76397461 67.52050781 192.68237305 C66.60914063 193.61500977 65.69777344 194.54764648 64.75878906 195.50854492 C62.94589292 197.35576659 61.13089548 199.20092913 59.31347656 201.04370117 C58.11053955 202.27358765 58.11053955 202.27358765 56.88330078 203.52832031 C54.88378906 205.44604492 54.88378906 205.44604492 52.88378906 206.44604492 C52.88378906 207.10604492 52.88378906 207.76604492 52.88378906 208.44604492 C52.3477002 208.65543701 51.81161133 208.8648291 51.25927734 209.08056641 C47.96173978 210.97605742 45.51054478 213.59368377 42.87597656 216.29370117 C42.30928253 216.86559677 41.7425885 217.43749237 41.15872192 218.02671814 C39.35391634 219.84929717 37.55595588 221.67843566 35.75878906 223.50854492 C33.95361591 225.34133113 32.14700517 227.17264022 30.33743286 229.00108337 C29.2128137 230.13796523 28.09087843 231.2775095 26.97189331 232.41993713 C23.10725289 236.33431301 23.10725289 236.33431301 20.88378906 237.44604492 C20.88378906 238.10604492 20.88378906 238.76604492 20.88378906 239.44604492 C20.22378906 239.44604492 19.56378906 239.44604492 18.88378906 239.44604492 C18.88378906 240.10604492 18.88378906 240.76604492 18.88378906 241.44604492 C18.22378906 241.44604492 17.56378906 241.44604492 16.88378906 241.44604492 C16.88378906 242.10604492 16.88378906 242.76604492 16.88378906 243.44604492 C16.22378906 243.44604492 15.56378906 243.44604492 14.88378906 243.44604492 C12.2171224 245.77937826 12.2171224 245.77937826 9.88378906 248.44604492 C9.88378906 249.10604492 9.88378906 249.76604492 9.88378906 250.44604492 C9.22378906 250.44604492 8.56378906 250.44604492 7.88378906 250.44604492 C7.88378906 251.10604492 7.88378906 251.76604492 7.88378906 252.44604492 C7.32530273 252.67783447 6.76681641 252.90962402 6.19140625 253.1484375 C3.27879578 254.78624163 1.30188112 256.82143208 -1.03808594 259.20776367 C-1.50176575 259.67664505 -1.96544556 260.14552643 -2.44317627 260.62861633 C-3.92238118 262.1255609 -5.39473795 263.62900241 -6.86621094 265.13354492 C-8.795004 267.09925729 -10.72705413 269.06168004 -12.66308594 271.02026367 C-13.13524536 271.49796707 -13.60740479 271.97567047 -14.09387207 272.46784973 C-17.32686261 275.71448381 -20.6819191 278.74959376 -24.1640625 281.72314453 C-27.98696586 285.09711014 -31.53250359 288.75946652 -35.11621094 292.38354492 C-35.8909375 293.1627832 -36.66566406 293.94202148 -37.46386719 294.74487305 C-39.35031851 296.64296913 -41.23437339 298.54337641 -43.11621094 300.44604492 C-41.69772652 305.07739654 -39.81144766 309.32983972 -37.61621094 313.63354492 C-37.26945313 314.32061523 -36.92269531 315.00768555 -36.56542969 315.71557617 C-33.39563286 321.96556427 -30.12336576 328.16136576 -26.84008789 334.35229492 C-24.0777304 339.57357114 -21.41369898 344.83470588 -18.80371094 350.13354492 C-14.37782712 359.40547576 -14.37782712 359.40547576 -8.11621094 367.44604492 C-4.72473182 367.91836924 -4.72473182 367.91836924 -1.11621094 366.44604492 C1.48910601 363.45026703 3.12108357 359.98451298 4.88378906 356.44604492 C5.47804687 355.28459961 6.07230469 354.1231543 6.68457031 352.92651367 C8.40437243 349.54032488 10.08621546 346.13630582 11.76123047 342.7277832 C13.76826508 338.64823873 15.79286926 334.577491 17.82128906 330.50854492 C18.2423291 329.66332275 18.66336914 328.81810059 19.09716797 327.94726562 C21.81983381 322.50558363 24.63149891 317.11980416 27.50878906 311.75854492 C30.45316356 306.26856664 33.20991953 300.72682846 35.82128906 295.07104492 C40.7647754 284.37421359 46.31565564 273.9976583 51.94628906 263.64916992 C56.29831006 255.62621922 60.28288916 247.47456363 64.16845703 239.21533203 C66.95346846 233.32247914 69.88708073 227.54524752 72.99414062 221.81689453 C76.38071257 215.56665227 79.53787533 209.20983956 82.69433594 202.84106445 C84.56096335 199.0825228 86.43957198 195.32999014 88.31762695 191.57714844 C89.35717642 189.49885976 90.39543698 187.41992586 91.43237305 185.34033203 C93.75294744 180.68841406 96.08290381 176.04294728 98.46582031 171.42260742 C99.03719727 170.30692383 99.03719727 170.30692383 99.62011719 169.16870117 C100.31926676 167.80593049 101.02466029 166.44633869 101.73730469 165.09057617 C102.51324155 163.57179144 103.208072 162.01199241 103.88378906 160.44604492 C103.55378906 159.78604492 103.22378906 159.12604492 102.88378906 158.44604492 Z " fill="#20A967" transform="translate(246.1162109375,-0.446044921875)"/>
<path d="M0 0 C2.4375 0.6875 2.4375 0.6875 5 2 C5.8125 4.625 5.8125 4.625 6 7 C5.34 7 4.68 7 4 7 C4.33 7.66 4.66 8.32 5 9 C6.32 9 7.64 9 9 9 C8.67 7.02 8.34 5.04 8 3 C8.99 2.67 9.98 2.34 11 2 C11 2.66 11 3.32 11 4 C11.66 4 12.32 4 13 4 C13 2.68 13 1.36 13 0 C14.65 0.33 16.3 0.66 18 1 C17.0919838 2.13199353 16.17316174 3.25532363 15.25 4.375 C14.48429687 5.31472656 14.48429687 5.31472656 13.703125 6.2734375 C11.91800519 8.08312318 10.32050356 9.00117455 8 10 C8 10.66 8 11.32 8 12 C7.34 12 6.68 12 6 12 C6 12.66 6 13.32 6 14 C5.34 14 4.68 14 4 14 C4 14.66 4 15.32 4 16 C3.34 16 2.68 16 2 16 C2 16.66 2 17.32 2 18 C1.34 18 0.68 18 0 18 C-0.33 18.99 -0.66 19.98 -1 21 C-1.66 21 -2.32 21 -3 21 C-3 21.66 -3 22.32 -3 23 C-3.66 23 -4.32 23 -5 23 C-5 23.66 -5 24.32 -5 25 C-5.66 25 -6.32 25 -7 25 C-7 25.66 -7 26.32 -7 27 C-8.45556641 28.42993164 -8.45556641 28.42993164 -10.4765625 30.09765625 C-15.81863494 34.63806467 -20.64722318 39.62803839 -25.52734375 44.65429688 C-26.20667969 45.34458984 -26.88601563 46.03488281 -27.5859375 46.74609375 C-28.1948584 47.37185303 -28.8037793 47.9976123 -29.43115234 48.64233398 C-31 50 -31 50 -33 50 C-33 50.66 -33 51.32 -33 52 C-34.35009766 53.32446289 -34.35009766 53.32446289 -36.2890625 54.91015625 C-39.86714043 57.95128595 -43.22933218 61.15284051 -46.5234375 64.49609375 C-46.99992737 64.97825348 -47.47641724 65.46041321 -47.96734619 65.95718384 C-49.94550532 67.96237243 -51.91931589 69.97174998 -53.88916016 71.98510742 C-55.34628443 73.47224382 -56.80941757 74.95325005 -58.2734375 76.43359375 C-59.13372559 77.31072021 -59.99401367 78.18784668 -60.88037109 79.09155273 C-63 81 -63 81 -65 81 C-65 81.66 -65 82.32 -65 83 C-65.66 83 -66.32 83 -67 83 C-67 83.66 -67 84.32 -67 85 C-67.66 85 -68.32 85 -69 85 C-69 85.66 -69 86.32 -69 87 C-69.66 87 -70.32 87 -71 87 C-71.268125 87.639375 -71.53625 88.27875 -71.8125 88.9375 C-73 91 -73 91 -76 92 C-76 92.66 -76 93.32 -76 94 C-76.66 94 -77.32 94 -78 94 C-78 94.66 -78 95.32 -78 96 C-79.43359375 97.40795898 -79.43359375 97.40795898 -81.4375 99.05859375 C-87.0640381 103.84189407 -92.1438402 109.12591932 -97.2890625 114.41601562 C-101.90256251 119.09689493 -106.6035521 123.24215336 -112 127 C-111.8125 123.6875 -111.8125 123.6875 -111 120 C-108.4375 118.0625 -108.4375 118.0625 -106 117 C-108.1050479 116.02138736 -108.1050479 116.02138736 -111 116 C-114.51419016 117.65140515 -118.22482201 119.44964401 -120 123 C-121.32 123 -122.64 123 -124 123 C-124 124.32 -124 125.64 -124 127 C-125.32 127 -126.64 127 -128 127 C-128.0825 127.928125 -128.165 128.85625 -128.25 129.8125 C-129 133 -129 133 -131.0625 134.875 C-131.701875 135.24625 -132.34125 135.6175 -133 136 C-133 135.34 -133 134.68 -133 134 C-133.804375 134.7425 -133.804375 134.7425 -134.625 135.5 C-137.59358445 137.37489544 -139.55312427 137.23501425 -143 137 C-143.66 135.68 -144.32 134.36 -145 133 C-142.36 133.33 -139.72 133.66 -137 134 C-136.34 133.01 -135.68 132.02 -135 131 C-134.34 131 -133.68 131 -133 131 C-133 130.34 -133 129.68 -133 129 C-131.70703125 127.73046875 -131.70703125 127.73046875 -129.8125 126.1875 C-125.04409741 122.16389279 -120.72201382 117.75400395 -116.39379883 113.26831055 C-114.96517864 111.80941666 -113.48635008 110.4000323 -112 109 C-111.34 109 -110.68 109 -110 109 C-110 108.34 -110 107.68 -110 107 C-109.34 107 -108.68 107 -108 107 C-107.73767578 106.40719238 -107.47535156 105.81438477 -107.20507812 105.20361328 C-105.93576216 102.88253429 -104.66707602 101.51674679 -102.71875 99.7421875 C-102.05004883 99.12512939 -101.38134766 98.50807129 -100.69238281 97.87231445 C-99.96889648 97.21320068 -99.24541016 96.55408691 -98.5 95.875 C-90.41228964 88.39378065 -82.590384 80.68017923 -74.828125 72.86328125 C-73.83329102 71.86288818 -73.83329102 71.86288818 -72.81835938 70.84228516 C-71.685581 69.6946018 -70.56042746 68.53927821 -69.44726562 67.37255859 C-68.33334696 66.21351403 -67.17195098 65.10033176 -66 64 C-65.34 64 -64.68 64 -64 64 C-64 63.34 -64 62.68 -64 62 C-63.34 62 -62.68 62 -62 62 C-62 61.34 -62 60.68 -62 60 C-61.34 60 -60.68 60 -60 60 C-60 59.34 -60 58.68 -60 58 C-58.57958984 56.60522461 -58.57958984 56.60522461 -56.5859375 54.96484375 C-50.76272286 50.01549627 -45.51266052 44.52639476 -40.18359375 39.05664062 C-39.41402344 38.27611328 -38.64445312 37.49558594 -37.8515625 36.69140625 C-37.15885254 35.98185791 -36.46614258 35.27230957 -35.75244141 34.54125977 C-34 33 -34 33 -32 33 C-32 32.34 -32 31.68 -32 31 C-30.7421875 29.765625 -30.7421875 29.765625 -28.875 28.25 C-23.85385937 24.01454144 -19.31293511 19.34070942 -14.74951172 14.62402344 C-14.16443848 14.02750977 -13.57936523 13.43099609 -12.9765625 12.81640625 C-12.45143066 12.27443604 -11.92629883 11.73246582 -11.38525391 11.17407227 C-10 10 -10 10 -8 10 C-8 9.34 -8 8.68 -8 8 C-7.34 8 -6.68 8 -6 8 C-6 7.34 -6 6.68 -6 6 C-5.34 6 -4.68 6 -4 6 C-4 5.34 -4 4.68 -4 4 C-3.34 4 -2.68 4 -2 4 C-2 3.34 -2 2.68 -2 2 C-1.34 2 -0.68 2 0 2 C0 1.34 0 0.68 0 0 Z " fill="#2DA86E" transform="translate(332,156)"/>
<path d="M0 0 C2.30143236 3.45214853 2.13833854 4.23479324 1.625 8.1875 C1.45871094 9.53908203 1.45871094 9.53908203 1.2890625 10.91796875 C1.14597656 11.94857422 1.14597656 11.94857422 1 13 C0.34 13 -0.32 13 -1 13 C-1 13.66 -1 14.32 -1 15 C-2.75 16.5078125 -2.75 16.5078125 -5 18.125 C-5.7425 18.66382813 -6.485 19.20265625 -7.25 19.7578125 C-7.8275 20.16773438 -8.405 20.57765625 -9 21 C-10.125 14.25 -10.125 14.25 -9 12 C-8.34 12 -7.68 12 -7 12 C-7.2784375 10.9171875 -7.2784375 10.9171875 -7.5625 9.8125 C-8.01995307 6.87173027 -7.73516357 4.85896942 -7 2 C-6.01 2 -5.02 2 -4 2 C-3.67 2.99 -3.34 3.98 -3 5 C-2.01 3.35 -1.02 1.7 0 0 Z " fill="#22A766" transform="translate(326,168)"/>
<path d="M0 0 C-1.62339805 1.70884005 -3.29319053 3.37446717 -5 5 C-5.66 5 -6.32 5 -7 5 C-7.33 6.32 -7.66 7.64 -8 9 C-8.66 8.67 -9.32 8.34 -10 8 C-10.2475 8.556875 -10.495 9.11375 -10.75 9.6875 C-13.30479 14.41386149 -16.1442108 17.63132234 -21 20 C-23.8125 20.6875 -23.8125 20.6875 -26 21 C-22.46037668 16.61760922 -18.8087294 12.7995281 -14.41796875 9.26171875 C-12.8630558 8.03520707 -12.8630558 8.03520707 -12 6 C-11.34 6 -10.68 6 -10 6 C-10 5.34 -10 4.68 -10 4 C-9.34 4 -8.68 4 -8 4 C-8 3.34 -8 2.68 -8 2 C-7.34 2 -6.68 2 -6 2 C-6 1.34 -6 0.68 -6 0 C-3.50907189 -1.24546405 -2.58919267 -0.7767578 0 0 Z " fill="#55B187" transform="translate(278,214)"/>
<path d="M0 0 C0.33 0.66 0.66 1.32 1 2 C0.34 2 -0.32 2 -1 2 C-1.66 3.32 -2.32 4.64 -3 6 C-3.99 6 -4.98 6 -6 6 C-6.268125 6.639375 -6.53625 7.27875 -6.8125 7.9375 C-8 10 -8 10 -11 11 C-12.20882096 13.00016466 -12.20882096 13.00016466 -13 15 C-14.32 15 -15.64 15 -17 15 C-17.226875 15.639375 -17.45375 16.27875 -17.6875 16.9375 C-19 19 -19 19 -21.625 19.75 C-22.40875 19.8325 -23.1925 19.915 -24 20 C-22.52841629 16.38502261 -20.58537669 14.59408489 -17.5 12.25 C-16.7059375 11.63640625 -15.911875 11.0228125 -15.09375 10.390625 C-13 9 -13 9 -11 9 C-11 8.34 -11 7.68 -11 7 C-9.21601386 5.71993203 -7.37146094 4.52339649 -5.5 3.375 C-4.4790625 2.74335937 -3.458125 2.11171875 -2.40625 1.4609375 C-1.6121875 0.97882812 -0.818125 0.49671875 0 0 Z " fill="#50AE82" transform="translate(108,43)"/>
<path d="M0 0 C0 0.99 0 1.98 0 3 C-1 4 -2 5 -3 6 C-3.71447643 8.10332891 -3.71447643 8.10332891 -4 10 C-5.32 10 -6.64 10 -8 10 C-8.0825 10.928125 -8.165 11.85625 -8.25 12.8125 C-9 16 -9 16 -11.0625 17.875 C-11.701875 18.24625 -12.34125 18.6175 -13 19 C-13 18.34 -13 17.68 -13 17 C-13.53625 17.495 -14.0725 17.99 -14.625 18.5 C-17.59358445 20.37489544 -19.55312427 20.23501425 -23 20 C-23.66 18.68 -24.32 17.36 -25 16 C-22.36 16.33 -19.72 16.66 -17 17 C-16.34 16.01 -15.68 15.02 -15 14 C-14.34 14 -13.68 14 -13 14 C-13 13.34 -13 12.68 -13 12 C-11.42578125 10.44921875 -11.42578125 10.44921875 -9.3125 8.6875 C-6.04699036 5.91500692 -2.98084015 3.07399141 0 0 Z " fill="#4DAC80" transform="translate(212,273)"/>
<path d="M0 0 C5.5 -0.36666667 5.5 -0.36666667 7.875 1.375 C9 3 9 3 9 5 C10.1446875 5.0928125 10.1446875 5.0928125 11.3125 5.1875 C16.56521514 6.34487791 21.1721503 8.67197995 26 11 C25.67 11.99 25.34 12.98 25 14 C19.29676416 12.37317535 14.31986097 9.66802013 9.125 6.875 C8.24585938 6.40707031 7.36671875 5.93914062 6.4609375 5.45703125 C4.30505729 4.3087907 2.15153223 3.15636097 0 2 C0 1.34 0 0.68 0 0 Z " fill="#49AC7E" transform="translate(125,466)"/>
<path d="M0 0 C0.66 0.33 1.32 0.66 2 1 C2.33 0.67 2.66 0.34 3 0 C3.99 0.33 4.98 0.66 6 1 C2.0580583 5.88049925 -2.11950075 10.0580583 -7 14 C-6.49396008 11.83125748 -6.00016187 10.00032373 -5 8 C-4.896875 7.195625 -4.79375 6.39125 -4.6875 5.5625 C-3.84604846 2.42618061 -2.71198107 1.66218194 0 0 Z " fill="#41A87A" transform="translate(214,282)"/>
<path d="M0 0 C0.66 0 1.32 0 2 0 C2.33 1.65 2.66 3.3 3 5 C2.34 5 1.68 5 1 5 C1.13277344 5.83402344 1.26554688 6.66804688 1.40234375 7.52734375 C4.45588235 26.98529412 4.45588235 26.98529412 3 32 C2.67 32 2.34 32 2 32 C0.54894755 24.81517721 -0.26718044 17.68344334 -0.6875 10.375 C-0.73575928 9.58109863 -0.78401855 8.78719727 -0.83374023 7.96923828 C-1.12608345 2.2521669 -1.12608345 2.2521669 0 0 Z " fill="#61B98F" transform="translate(1,266)"/>
<path d="M0 0 C0.144375 0.598125 0.28875 1.19625 0.4375 1.8125 C0.8872439 3.56150404 1.42892341 5.28677023 2 7 C0.3828125 9.62890625 0.3828125 9.62890625 -1.875 12.5625 C-4.68142364 16.12868337 -4.68142364 16.12868337 -7 20 C-7.66 20 -8.32 20 -9 20 C-9 20.99 -9 21.98 -9 23 C-9.66 22.67 -10.32 22.34 -11 22 C-9.73247575 19.26925298 -8.46111668 16.54040402 -7.1875 13.8125 C-6.83107422 13.04357422 -6.47464844 12.27464844 -6.10742188 11.48242188 C-4.25382375 7.52014332 -2.35043803 3.69990088 0 0 Z " fill="#41A978" transform="translate(325,208)"/>
<path d="M0 0 C0.66 0 1.32 0 2 0 C3.29761299 2.37191584 4.58816317 4.74724614 5.875 7.125 C6.23980469 7.79015625 6.60460937 8.4553125 6.98046875 9.140625 C9.06980244 13.01538929 10.74424611 16.75687369 12 21 C10.02 21.99 10.02 21.99 8 23 C8 20.69 8 18.38 8 16 C7.01 15.67 6.02 15.34 5 15 C4.12109375 12.96875 4.12109375 12.96875 3.4375 10.5 C2.79615283 8.08504595 2.79615283 8.08504595 2 6 C1.34 5.67 0.68 5.34 0 5 C0 3.35 0 1.7 0 0 Z " fill="#48A679" transform="translate(220,338)"/>
<path d="M0 0 C0 4.71166031 -0.02843424 10.13696452 -3 14 C-3.825 14.144375 -4.65 14.28875 -5.5 14.4375 C-6.325 14.623125 -7.15 14.80875 -8 15 C-9.15521502 17.47130918 -9.15521502 17.47130918 -10 20 C-10.99 20.33 -11.98 20.66 -13 21 C-12.67 19.68 -12.34 18.36 -12 17 C-11.34 17 -10.68 17 -10 17 C-9.9175 16.46761719 -9.835 15.93523437 -9.75 15.38671875 C-8.71941423 12.10709425 -6.93353788 9.64720465 -5 6.8125 C-3.9171875 5.21341797 -3.9171875 5.21341797 -2.8125 3.58203125 C-1 1 -1 1 0 0 Z " fill="#6FBD9B" transform="translate(47,102)"/>
<path d="M0 0 C0.680625 0.33 1.36125 0.66 2.0625 1 C5.50840238 2.17307315 8.38397422 2.14180493 12 2 C10.61342957 4.77314087 8.8798864 5.25953457 6.125 6.625 C5.24070313 7.07101563 4.35640625 7.51703125 3.4453125 7.9765625 C1 9 1 9 -2 9 C-2 7.02 -2 5.04 -2 3 C-1.34 3 -0.68 3 0 3 C0 2.01 0 1.02 0 0 Z " fill="#34A672" transform="translate(130,241)"/>
<path d="M0 0 C0.66 0 1.32 0 2 0 C2 0.99 2 1.98 2 3 C2.66 3.33 3.32 3.66 4 4 C3.01 4.99 2.02 5.98 1 7 C1.309375 7.9075 1.61875 8.815 1.9375 9.75 C2.7272263 12.16563338 3.42949297 14.52780285 4 17 C2.125 17.625 2.125 17.625 0 18 C-2 16 -2 16 -2.1953125 13.1796875 C-2.17210937 12.08914063 -2.14890625 10.99859375 -2.125 9.875 C-2.10695312 8.77929688 -2.08890625 7.68359375 -2.0703125 6.5546875 C-2.04710937 5.71164062 -2.02390625 4.86859375 -2 4 C-1.01 4 -0.02 4 1 4 C0.67 2.68 0.34 1.36 0 0 Z " fill="#44AB7E" transform="translate(203,293)"/>
<path d="M0 0 C0.33 0 0.66 0 1 0 C0.04238691 7.98010911 -1.46120444 13.18426466 -7 19 C-7.66 19 -8.32 19 -9 19 C-7.6077541 14.37324343 -5.70479016 10.35313769 -3.375 6.125 C-2.74335938 4.97257812 -2.11171875 3.82015625 -1.4609375 2.6328125 C-0.97882813 1.76398438 -0.49671875 0.89515625 0 0 Z " fill="#59B28B" transform="translate(271,315)"/>
<path d="M0 0 C-2.28703308 1.19725883 -4.57884862 2.38297018 -6.875 3.5625 C-7.85146484 4.07586914 -7.85146484 4.07586914 -8.84765625 4.59960938 C-10.53529857 5.46082891 -12.26579593 6.23686703 -14 7 C-14.66 6.67 -15.32 6.34 -16 6 C-16.625 3.9375 -16.625 3.9375 -17 2 C-5.30098865 -1.50970341 -5.30098865 -1.50970341 0 0 Z " fill="#42AE7D" transform="translate(315,161)"/>
<path d="M0 0 C1.65 0.33 3.3 0.66 5 1 C4.67 2.98 4.34 4.96 4 7 C2.10399631 6.68853528 0.20820413 6.37578283 -1.6875 6.0625 C-2.74324219 5.88847656 -3.79898438 5.71445312 -4.88671875 5.53515625 C-7.60249604 5.06832879 -10.30124235 4.55577384 -13 4 C-10.08291076 2.01637931 -8.87619096 2.0123809 -5.25 2.375 C-4.1775 2.58125 -3.105 2.7875 -2 3 C-1.34 2.01 -0.68 1.02 0 0 Z " fill="#3FAC7B" transform="translate(198,489)"/>
<path d="M0 0 C0.61875 0.350625 1.2375 0.70125 1.875 1.0625 C2.57625 1.371875 3.2775 1.68125 4 2 C4.66 1.67 5.32 1.34 6 1 C5.9175 1.825 5.835 2.65 5.75 3.5 C6.03463507 7.48489105 7.21042348 9.69626563 9.22265625 13.0703125 C10.1894787 15.47036422 9.70886423 16.57150118 9 19 C7.4933028 16.2118978 5.99580196 13.41896042 4.5 10.625 C4.07074219 9.8309375 3.64148438 9.036875 3.19921875 8.21875 C2.79316406 7.45820313 2.38710938 6.69765625 1.96875 5.9140625 C1.40317383 4.8614624 1.40317383 4.8614624 0.82617188 3.78759766 C0 2 0 2 0 0 Z " fill="#50B386" transform="translate(22,354)"/>
<path d="M0 0 C1.4606285 2.64738916 2 3.89448334 2 7 C1.34 7 0.68 7 0 7 C0.020625 8.0725 0.04125 9.145 0.0625 10.25 C0.0142016 13.14790424 -0.13155885 15.28612141 -1 18 C-1.66 18 -2.32 18 -3 18 C-3 21.63 -3 25.26 -3 29 C-3.66 28.67 -4.32 28.34 -5 28 C-4.58384403 18.36598935 -2.34560829 9.30606453 0 0 Z " fill="#66B68F" transform="translate(7,185)"/>
<path d="M0 0 C0.66 0.99 1.32 1.98 2 3 C1.11728545 6.5308582 0.02559537 8.96160695 -2 12 C-2.99 12 -3.98 12 -5 12 C-5 13.65 -5 15.3 -5 17 C-5.99 17.33 -6.98 17.66 -8 18 C-6.52232949 11.35048271 -3.37863948 5.8754328 0 0 Z " fill="#58B58B" transform="translate(259,338)"/>
<path d="M0 0 C-5.61 2.64 -11.22 5.28 -17 8 C-17.33 7.01 -17.66 6.02 -18 5 C-12.36545819 0.77409364 -7.17153948 -1.79288487 0 0 Z " fill="#55B085" transform="translate(236,199)"/>
<path d="M0 0 C1.47253353 4.56888828 -0.05892157 7.80287571 -2 12 C-3.59131965 15.04570081 -5.26350259 18.03491351 -7 21 C-7.66 21 -8.32 21 -9 21 C-6.76686274 13.55620912 -3.59727921 6.88023305 0 0 Z " fill="#54AF84" transform="translate(28,132)"/>
<path d="M0 0 C0.25 2.3125 0.25 2.3125 0 5 C-2.04424538 6.97610386 -3.1176825 8 -6 8 C-6.226875 8.639375 -6.45375 9.27875 -6.6875 9.9375 C-8 12 -8 12 -10.625 12.75 C-11.40875 12.8325 -12.1925 12.915 -13 13 C-2.15384615 0 -2.15384615 0 0 0 Z " fill="#69BC98" transform="translate(298,190)"/>
<path d="M0 0 C-0.99 0.495 -0.99 0.495 -2 1 C-2 1.66 -2 2.32 -2 3 C-2.66 3 -3.32 3 -4 3 C-4.33 3.99 -4.66 4.98 -5 6 C-5.66 6 -6.32 6 -7 6 C-7 6.66 -7 7.32 -7 8 C-7.66 8 -8.32 8 -9 8 C-9 5.36 -9 2.72 -9 0 C-3.375 -1.125 -3.375 -1.125 0 0 Z " fill="#37A872" transform="translate(336,171)"/>
<path d="M0 0 C0.33 0.99 0.66 1.98 1 3 C-0.60606348 5.15671382 -2.17930254 7.04707311 -4 9 C-4.680625 9.804375 -5.36125 10.60875 -6.0625 11.4375 C-7.0215625 12.2109375 -7.0215625 12.2109375 -8 13 C-9.32 12.67 -10.64 12.34 -12 12 C-8.04 8.04 -4.08 4.08 0 0 Z " fill="#58B08A" transform="translate(251,235)"/>
<path d="M0 0 C1.32 0.33 2.64 0.66 4 1 C0.04 4.96 -3.92 8.92 -8 13 C-8.66 12.34 -9.32 11.68 -10 11 C-7.89489719 6.90058926 -5.97062967 5.23984238 -2 3 C-1.34 2.01 -0.68 1.02 0 0 Z " fill="#52AB81" transform="translate(428,422)"/>
<path d="M0 0 C0.33 0 0.66 0 1 0 C1 4.29 1 8.58 1 13 C0.01 13 -0.98 13 -2 13 C-2.33 14.98 -2.66 16.96 -3 19 C-3.66 19 -4.32 19 -5 19 C-3.83795007 12.45150687 -2.26616615 6.25461856 0 0 Z " fill="#53AF83" transform="translate(13,166)"/>
<path d="M0 0 C-0.33 0.99 -0.66 1.98 -1 3 C-2.22976562 3.09087891 -2.22976562 3.09087891 -3.484375 3.18359375 C-5.10085937 3.30927734 -5.10085937 3.30927734 -6.75 3.4375 C-8.35101563 3.55931641 -8.35101563 3.55931641 -9.984375 3.68359375 C-12.89712768 3.89494147 -12.89712768 3.89494147 -15.203125 4.66015625 C-17 5 -17 5 -20 3 C-17.41747107 2.49550598 -14.83411297 1.99625699 -12.25 1.5 C-11.52039063 1.35691406 -10.79078125 1.21382813 -10.0390625 1.06640625 C-6.60656468 0.41111121 -3.50830509 0 0 0 Z " fill="#5AB68F" transform="translate(213,2)"/>
<path d="M0 0 C-2.86273436 2.25970467 -5.74889631 4.0371684 -9 5.6875 C-9.845625 6.12449219 -10.69125 6.56148437 -11.5625 7.01171875 C-14 8 -14 8 -18 8 C-18 7.34 -18 6.68 -18 6 C-14.68885166 4.87119943 -11.41021743 3.78697325 -8 3 C-8 2.34 -8 1.68 -8 1 C-5.07175348 0.02391783 -3.04386724 -0.08226668 0 0 Z " fill="#66B892" transform="translate(182,224)"/>
<path d="M0 0 C0.99 0.33 1.98 0.66 3 1 C2.01 2.98 1.02 4.96 0 7 C-0.66 7 -1.32 7 -2 7 C-2.268125 7.598125 -2.53625 8.19625 -2.8125 8.8125 C-3.98493467 10.97224808 -5.19369282 12.35790256 -7 14 C-7 11.69 -7 9.38 -7 7 C-5.68 7.33 -4.36 7.66 -3 8 C-3 6.68 -3 5.36 -3 4 C-2.34 3.67 -1.68 3.34 -1 3 C-0.67 2.01 -0.34 1.02 0 0 Z " fill="#54AF85" transform="translate(450,396)"/>
<path d="M0 0 C1.32 0.33 2.64 0.66 4 1 C4 2.32 4 3.64 4 5 C4.66 5.33 5.32 5.66 6 6 C3.29120665 7.35439668 0.99066732 7.06501451 -2 7 C-1.125 2.25 -1.125 2.25 0 0 Z " fill="#30A76E" transform="translate(180,217)"/>
<path d="M0 0 C0.66 1.32 1.32 2.64 2 4 C1.01 4.33 0.02 4.66 -1 5 C-1.33 5.99 -1.66 6.98 -2 8 C-3.98 8.33 -5.96 8.66 -8 9 C-8 9.66 -8 10.32 -8 11 C-8.99 10.67 -9.98 10.34 -11 10 C-10.34 10 -9.68 10 -9 10 C-9 9.34 -9 8.68 -9 8 C-7.28515625 6.30859375 -7.28515625 6.30859375 -5.0625 4.4375 C-3.96615234 3.50744141 -3.96615234 3.50744141 -2.84765625 2.55859375 C-1.93306641 1.78708984 -1.93306641 1.78708984 -1 1 C-0.67 0.67 -0.34 0.34 0 0 Z " fill="#57B38A" transform="translate(309,179)"/>
<path d="M0 0 C2.20540114 2.20540114 3.2400727 4.21394742 4.625 7 C5.07101563 7.886875 5.51703125 8.77375 5.9765625 9.6875 C7 12 7 12 7 14 C4.03 13.505 4.03 13.505 1 13 C1.66 11.35 2.32 9.7 3 8 C2.34 8 1.68 8 1 8 C0.67 5.36 0.34 2.72 0 0 Z " fill="#57B288" transform="translate(207,310)"/>
<path d="M0 0 C0.99 0 1.98 0 3 0 C2.67 5.61 2.34 11.22 2 17 C1.67 17 1.34 17 1 17 C-0.22517308 11.33357449 -0.09228867 5.76291482 0 0 Z " fill="#5EBA90" transform="translate(497,269)"/>
<path d="M0 0 C6.86036401 0.65965039 13.34443923 2.2362764 20 4 C20 4.33 20 4.66 20 5 C15.1666528 5.08333357 10.76307437 4.95261487 6 4 C6 3.34 6 2.68 6 2 C3.03 1.505 3.03 1.505 0 1 C0 0.67 0 0.34 0 0 Z " fill="#5EB78A" transform="translate(302,5)"/>
<path d="M0 0 C0.33 0 0.66 0 1 0 C1.22595954 3.10314787 1.42770896 6.20740807 1.625 9.3125 C1.68945312 10.19357422 1.75390625 11.07464844 1.8203125 11.98242188 C1.871875 12.82998047 1.9234375 13.67753906 1.9765625 14.55078125 C2.02893066 15.33106689 2.08129883 16.11135254 2.13525391 16.9152832 C2 19 2 19 0 22 C-1.26798493 17.31315199 -0.91105063 12.96705063 -0.5625 8.1875 C-0.51029297 7.39923828 -0.45808594 6.61097656 -0.40429688 5.79882812 C-0.27540731 3.86548471 -0.13850506 1.93267836 0 0 Z " fill="#5EB88F" transform="translate(1,214)"/>
<path d="M0 0 C0 0.66 0 1.32 0 2 C-0.66 2 -1.32 2 -2 2 C-2 2.66 -2 3.32 -2 4 C-3.53125 5.2890625 -3.53125 5.2890625 -5.5 6.625 C-6.1496875 7.07101563 -6.799375 7.51703125 -7.46875 7.9765625 C-7.9740625 8.31429687 -8.479375 8.65203125 -9 9 C-9 7.35 -9 5.7 -9 4 C-8.01 4 -7.02 4 -6 4 C-6.33 3.01 -6.66 2.02 -7 1 C-4 0 -4 0 0 0 Z " fill="#42A879" transform="translate(327,179)"/>
<path d="M0 0 C0.33 0 0.66 0 1 0 C2.73955334 6.43013467 3.24991456 12.34949576 3 19 C2.34 18.67 1.68 18.34 1 18 C0.62109375 15.85546875 0.62109375 15.85546875 0.4375 13.1875 C0.25355141 10.64600617 0.07310709 8.2877948 -0.5546875 5.81640625 C-1.1018617 3.58451149 -0.69459629 2.16096622 0 0 Z " fill="#65B390" transform="translate(494,193)"/>
<path d="M0 0 C0.66 0.99 1.32 1.98 2 3 C1.01 4.485 1.01 4.485 0 6 C-0.33 7.19625 -0.66 8.3925 -1 9.625 C-1.33 10.73875 -1.66 11.8525 -2 13 C-2.99 13.495 -2.99 13.495 -4 14 C-5.06528748 11.26980214 -5.07998186 10.20701188 -4.00390625 7.421875 C-3.52824219 6.54015625 -3.05257813 5.6584375 -2.5625 4.75 C-2.08941406 3.85796875 -1.61632812 2.9659375 -1.12890625 2.046875 C-0.75636719 1.37140625 -0.38382812 0.6959375 0 0 Z " fill="#46A87B" transform="translate(292,273)"/>
<path d="M0 0 C-1.62339805 1.70884005 -3.29319053 3.37446717 -5 5 C-5.66 5 -6.32 5 -7 5 C-7.33 6.32 -7.66 7.64 -8 9 C-8.93423645 5.98968256 -9.04449911 5.13349732 -8 2 C-7.34 2 -6.68 2 -6 2 C-6 1.34 -6 0.68 -6 0 C-3.50907189 -1.24546405 -2.58919267 -0.7767578 0 0 Z " fill="#46AA7C" transform="translate(278,214)"/>
<path d="M0 0 C2.80119384 5.04214891 3.37367577 10.38426963 2.5625 16.0625 C2.376875 16.701875 2.19125 17.34125 2 18 C1.67 18 1.34 18 1 18 C-0.0712828 11.97403427 -0.09945415 6.11090483 0 0 Z " fill="#53AE83" transform="translate(2,280)"/>
<path d="M0 0 C0.66 0.33 1.32 0.66 2 1 C2.33 0.67 2.66 0.34 3 0 C3.99 0.33 4.98 0.66 6 1 C5.01 2.32 4.02 3.64 3 5 C1.35 4.67 -0.3 4.34 -2 4 C-2.33 4.66 -2.66 5.32 -3 6 C-3.33 5.01 -3.66 4.02 -4 3 C-2.68 2.01 -1.36 1.02 0 0 Z " fill="#33A670" transform="translate(214,282)"/>
<path d="M0 0 C0 0.66 0 1.32 0 2 C0.66 2.33 1.32 2.66 2 3 C-1.10747694 4.55373847 -3.74226527 3.58528628 -7.125 3.0625 C-8.40632812 2.86785156 -9.68765625 2.67320313 -11.0078125 2.47265625 C-11.99523437 2.31667969 -12.98265625 2.16070312 -14 2 C-14 1.67 -14 1.34 -14 1 C-9.27616037 0.34843591 -4.78025483 -0.11950637 0 0 Z " fill="#5AB991" transform="translate(228,0)"/>
<path d="M0 0 C0 4.99823188 -0.39003112 9.65005187 -3 14 C-3.66 13.34 -4.32 12.68 -5 12 C-4.79999908 6.69997555 -3.61886262 3.85233763 0 0 Z " fill="#4FB081" transform="translate(47,102)"/>
<path d="M0 0 C0.66 0 1.32 0 2 0 C1.43179252 5.45479185 0.05362055 9.91059256 -2 15 C-2.33 15 -2.66 15 -3 15 C-2.67 12.03 -2.34 9.06 -2 6 C-1.34 6 -0.68 6 0 6 C0 4.02 0 2.04 0 0 Z " fill="#69B590" transform="translate(485,330)"/>
<path d="M0 0 C0.33 1.32 0.66 2.64 1 4 C-3.75 8 -3.75 8 -6 8 C-6.33 8.99 -6.66 9.98 -7 11 C-7.33 10.01 -7.66 9.02 -8 8 C-7 6 -7 6 -4 5 C-2.61423077 3.37667033 -1.27358732 1.71275535 0 0 Z " fill="#38AA75" transform="translate(268,328)"/>
<path d="M0 0 C4.05281712 1.22527029 7.44360764 2.69880494 11 5 C10.34 5.66 9.68 6.32 9 7 C7.68176698 6.40844669 6.37052949 5.80128537 5.0625 5.1875 C4.33160156 4.85105469 3.60070312 4.51460938 2.84765625 4.16796875 C1 3 1 3 0 0 Z " fill="#52AD81" transform="translate(154,272)"/>
<path d="M0 0 C-3.96 3.465 -3.96 3.465 -8 7 C-9.04449911 3.86650268 -8.93423645 3.01031744 -8 0 C-4.71303767 -0.79953138 -3.28976808 -1.09658936 0 0 Z " fill="#4DAE82" transform="translate(229,276)"/>
<path d="M0 0 C0.66 0.66 1.32 1.32 2 2 C-2.97063121 2.91297308 -7.02936879 2.91297308 -12 2 C-12 1.67 -12 1.34 -12 1 C-7.94392005 0.01670789 -4.16937798 -0.23600253 0 0 Z " fill="#5CB68E" transform="translate(214,495)"/>
<path d="M0 0 C0.66 0.33 1.32 0.66 2 1 C0.71372289 2.17260611 -0.57919783 3.3379283 -1.875 4.5 C-2.59429687 5.1496875 -3.31359375 5.799375 -4.0546875 6.46875 C-6 8 -6 8 -8 8 C-6.49776416 3.79373966 -3.71449966 2.26099979 0 0 Z " fill="#3CA475" transform="translate(285,204)"/>
<path d="M0 0 C5.01113235 1.4317521 6.94469549 3.98445693 10 8 C7 8 7 8 5.17578125 6.50390625 C4.56089844 5.86324219 3.94601563 5.22257812 3.3125 4.5625 C2.68988281 3.92441406 2.06726563 3.28632813 1.42578125 2.62890625 C0 1 0 1 0 0 Z " fill="#54AE84" transform="translate(71,425)"/>
<path d="M0 0 C0 3.51716303 -0.82445585 4.37121748 -3 7 C-4.32 6.01 -5.64 5.02 -7 4 C-4.61426621 2.10786631 -2.92824652 0.97608217 0 0 Z " fill="#45AC7C" transform="translate(225,263)"/>
<path d="M0 0 C1.84765625 0.33984375 1.84765625 0.33984375 4.0625 0.9375 C5.16271484 1.22947266 5.16271484 1.22947266 6.28515625 1.52734375 C7.13400391 1.76130859 7.13400391 1.76130859 8 2 C5.37801226 4.15377564 3.35595828 5.40072174 0 6 C-0.38218767 4.34385343 -0.71395102 2.67542976 -1 1 C-0.67 0.67 -0.34 0.34 0 0 Z " fill="#57B58D" transform="translate(299,162)"/>
<path d="M0 0 C2.140625 0.9453125 2.140625 0.9453125 4 2 C2.54618103 2.69699552 1.08677047 3.38233866 -0.375 4.0625 C-1.18710937 4.44535156 -1.99921875 4.82820313 -2.8359375 5.22265625 C-3.55007813 5.47917969 -4.26421875 5.73570312 -5 6 C-5.66 5.67 -6.32 5.34 -7 5 C-6.01 4.67 -5.02 4.34 -4 4 C-4 3.34 -4 2.68 -4 2 C-2.25 0.875 -2.25 0.875 0 0 Z " fill="#65B890" transform="translate(345,479)"/>
<path d="M0 0 C1.1875 1.625 1.1875 1.625 2 4 C0.625 7.25 0.625 7.25 -1 10 C-1.66 10 -2.32 10 -3 10 C-3 8.35 -3 6.7 -3 5 C-2.01 4.67 -1.02 4.34 0 4 C0 2.68 0 1.36 0 0 Z " fill="#4BAB7D" transform="translate(473,358)"/>
<path d="M0 0 C0.66 0 1.32 0 2 0 C5.22265625 5.2734375 5.22265625 5.2734375 6 7 C5.67 7.66 5.34 8.32 5 9 C2.5 7.3125 2.5 7.3125 0 5 C-0.3125 2.25 -0.3125 2.25 0 0 Z " fill="#61B28C" transform="translate(220,338)"/>
<path d="M0 0 C2.01822917 0.29296875 4.03645833 0.5859375 6.0546875 0.87890625 C8.08140667 1.1684297 8.08140667 1.1684297 10 0 C9.34 1.32 8.68 2.64 8 4 C6.02 4 4.04 4 2 4 C1.34 2.68 0.68 1.36 0 0 Z " fill="#5CAF8A" transform="translate(187,289)"/>
<path d="M0 0 C1 2 1 2 0.3125 4.5 C-1.15567038 7.29651501 -2.09303901 7.93411431 -5 9 C-3.90931332 5.22454612 -3.0916909 2.52956528 0 0 Z " fill="#56B387" transform="translate(313,234)"/>
<path d="M0 0 C0.66 0 1.32 0 2 0 C2.33 0.99 2.66 1.98 3 3 C1.71086513 3.67154933 0.41859796 4.33708859 -0.875 5 C-1.59429687 5.37125 -2.31359375 5.7425 -3.0546875 6.125 C-5 7 -5 7 -7 7 C-7 6.34 -7 5.68 -7 5 C-5.5459375 4.5978125 -5.5459375 4.5978125 -4.0625 4.1875 C-3.051875 3.795625 -2.04125 3.40375 -1 3 C-0.67 2.01 -0.34 1.02 0 0 Z " fill="#4EAD84" transform="translate(214,205)"/>
<path d="M0 0 C1 2 1 2 0.0625 5.125 C-0.288125 6.07375 -0.63875 7.0225 -1 8 C-2.32 8 -3.64 8 -5 8 C-4.34 6.35 -3.68 4.7 -3 3 C-2.34 3 -1.68 3 -1 3 C-0.67 2.01 -0.34 1.02 0 0 Z " fill="#5FB58F" transform="translate(53,94)"/>
<path d="M0 0 C3.24299151 2.38957269 5.50902342 4.2047869 7 8 C3.76912579 7.44295272 1.97638863 6.66812465 0 4 C0 2.68 0 1.36 0 0 Z " fill="#64B593" transform="translate(436,82)"/>
<path d="M0 0 C5.75 1.75 5.75 1.75 8 4 C7.67 4.99 7.34 5.98 7 7 C6.34 7 5.68 7 5 7 C5 6.01 5 5.02 5 4 C3.68 4.33 2.36 4.66 1 5 C0.67 3.35 0.34 1.7 0 0 Z " fill="#48AE80" transform="translate(352,21)"/>
<path d="M0 0 C1.32 0 2.64 0 4 0 C4.66 1.65 5.32 3.3 6 5 C6.66 5 7.32 5 8 5 C7.67 5.66 7.34 6.32 7 7 C5.82780457 6.21654285 4.66236332 5.42297164 3.5 4.625 C2.8503125 4.18414062 2.200625 3.74328125 1.53125 3.2890625 C1.0259375 2.86367188 0.520625 2.43828125 0 2 C0 1.34 0 0.68 0 0 Z " fill="#5FB489" transform="translate(98,448)"/>
<path d="M0 0 C0.5534764 2.07553648 1 3.84365964 1 6 C0.34 6 -0.32 6 -1 6 C-1.103125 6.639375 -1.20625 7.27875 -1.3125 7.9375 C-1.539375 8.618125 -1.76625 9.29875 -2 10 C-2.99 10.33 -3.98 10.66 -5 11 C-3.77472971 6.94718288 -2.30119506 3.55639236 0 0 Z " fill="#6DBA95" transform="translate(325,208)"/>
<path d="M0 0 C1.98 0.66 3.96 1.32 6 2 C2.8745041 4.64465038 -0.08788267 5.84414715 -4 7 C-3.67 6.01 -3.34 5.02 -3 4 C-1.68 4 -0.36 4 1 4 C0.67 2.68 0.34 1.36 0 0 Z " fill="#61B58D" transform="translate(197,212)"/>
<path d="M0 0 C0.99 0.33 1.98 0.66 3 1 C2.37240135 3.92879371 1.41377341 6.36095629 0 9 C-0.66 8.67 -1.32 8.34 -2 8 C-1.34 5.36 -0.68 2.72 0 0 Z " fill="#4FAD81" transform="translate(350,156)"/>
<path d="M0 0 C0 0.66 0 1.32 0 2 C-0.99 2 -1.98 2 -3 2 C-3.66 3.32 -4.32 4.64 -5 6 C-6.65 6 -8.3 6 -10 6 C-4.4 0 -4.4 0 0 0 Z " fill="#61B792" transform="translate(119,37)"/>
<path d="M0 0 C-0.639375 0.103125 -1.27875 0.20625 -1.9375 0.3125 C-2.618125 0.539375 -3.29875 0.76625 -4 1 C-4.33 1.99 -4.66 2.98 -5 4 C-7.31 4 -9.62 4 -12 4 C-9.94577945 1.94577945 -8.66990976 1.31862408 -6 0.3125 C-5.29875 0.04050781 -4.5975 -0.23148438 -3.875 -0.51171875 C-2 -1 -2 -1 0 0 Z " fill="#75C29D" transform="translate(165,15)"/>
<path d="M0 0 C-1.28913487 0.67154933 -2.58140204 1.33708859 -3.875 2 C-4.59429687 2.37125 -5.31359375 2.7425 -6.0546875 3.125 C-8 4 -8 4 -10 4 C-10 3.01 -10 2.02 -10 1 C-6.16112237 -0.48320272 -3.93795909 -1.22419163 0 0 Z " fill="#58B18B" transform="translate(159,236)"/>
<path d="M0 0 C0.99 0.99 1.98 1.98 3 3 C0.69 4.98 -1.62 6.96 -4 9 C-4 7.68 -4 6.36 -4 5 C-3.01 5 -2.02 5 -1 5 C-0.67 3.35 -0.34 1.7 0 0 Z " fill="#64BB8F" transform="translate(305,196)"/>
<path d="M0 0 C-0.99 0.495 -0.99 0.495 -2 1 C-2 1.66 -2 2.32 -2 3 C-2.66 3 -3.32 3 -4 3 C-4.33 3.99 -4.66 4.98 -5 6 C-5.33 6 -5.66 6 -6 6 C-6 4.02 -6 2.04 -6 0 C-3 -1 -3 -1 0 0 Z " fill="#58B48D" transform="translate(336,171)"/>
<path d="M0 0 C0.33 0.66 0.66 1.32 1 2 C0.34 2 -0.32 2 -1 2 C-1.20625 2.639375 -1.4125 3.27875 -1.625 3.9375 C-3 6 -3 6 -6.125 6.75 C-7.548125 6.87375 -7.548125 6.87375 -9 7 C-6.24479785 4.04070881 -3.53372712 1.96318174 0 0 Z " fill="#63B690" transform="translate(108,43)"/>
<path d="M0 0 C1.65 0 3.3 0 5 0 C5 0.66 5 1.32 5 2 C5.99 2.33 6.98 2.66 8 3 C5.21176345 4.0326802 4.1322726 4.04509293 1.25 3.0625 C0.5075 2.711875 -0.235 2.36125 -1 2 C-0.67 1.34 -0.34 0.68 0 0 Z " fill="#50AE87" transform="translate(162,483)"/>
<path d="M0 0 C1.65 0.33 3.3 0.66 5 1 C2.31158141 3.25245881 0.35358125 4.88213958 -3 6 C-2.67 4.68 -2.34 3.36 -2 2 C-1.34 2 -0.68 2 0 2 C0 1.34 0 0.68 0 0 Z " fill="#5BAF86" transform="translate(395,450)"/>
<path d="M0 0 C1.32 0 2.64 0 4 0 C2.62845496 2.95409701 1.01136276 5.44008376 -1 8 C-0.67 5.36 -0.34 2.72 0 0 Z " fill="#56AF89" transform="translate(455,388)"/>
<path d="M0 0 C0.99 0.66 1.98 1.32 3 2 C2.67 2.99 2.34 3.98 2 5 C1.34 5 0.68 5 0 5 C-0.66 6.32 -1.32 7.64 -2 9 C-2 5.20442119 -1.49821059 3.37097383 0 0 Z " fill="#67B992" transform="translate(279,298)"/>
<path d="M0 0 C-2.6855594 2.6855594 -5.37621328 3.06049974 -9 4 C-9.66 3.34 -10.32 2.68 -11 2 C-7.17010894 0.19769832 -4.21878192 -0.19622241 0 0 Z " fill="#58B087" transform="translate(276,179)"/>
<path d="M0 0 C1.134375 0.020625 2.26875 0.04125 3.4375 0.0625 C0.81551226 2.21627564 -1.20654172 3.46322174 -4.5625 4.0625 C-4.5625 -0.28271095 -4.43767807 0.077854 0 0 Z " fill="#4BAB7D" transform="translate(319.5625,155.9375)"/>
<path d="M0 0 C1.24546405 2.49092811 0.7767578 3.41080733 0 6 C-1.98 6.33 -3.96 6.66 -6 7 C-4.02 4.69 -2.04 2.38 0 0 Z " fill="#55AF84" transform="translate(81,64)"/>
<path d="M0 0 C3.93673644 1.31224548 6.22719294 2.91910327 9 6 C2.35384615 4.52307692 2.35384615 4.52307692 0.5625 1.875 C0.376875 1.25625 0.19125 0.6375 0 0 Z " fill="#6DB896" transform="translate(382,37)"/>
<path d="M0 0 C2.4375 0.8125 2.4375 0.8125 5 2 C5.33 2.99 5.66 3.98 6 5 C6.66 5.33 7.32 5.66 8 6 C7.67 6.99 7.34 7.98 7 9 C7 8.34 7 7.68 7 7 C6.01 6.67 5.02 6.34 4 6 C2.60287726 4.04402816 1.26220093 2.04563599 0 0 Z " fill="#71BE9B" transform="translate(56,409)"/>
<path d="M0 0 C2.375 0.1875 2.375 0.1875 5 1 C6.3125 3.5625 6.3125 3.5625 7 6 C6.34 6.66 5.68 7.32 5 8 C2.525 4.04 2.525 4.04 0 0 Z " fill="#59B58B" transform="translate(41,389)"/>
<path d="M0 0 C2.76223278 2.76223278 2.57856291 5.20706617 3 9 C0.11749016 6.61879622 -0.61038985 4.70129644 -1 1 C-0.67 0.67 -0.34 0.34 0 0 Z " fill="#64BA94" transform="translate(29,364)"/>
<path d="M0 0 C1.32 0.66 2.64 1.32 4 2 C1.69 3.32 -0.62 4.64 -3 6 C-3 4.68 -3 3.36 -3 2 C-2.01 2 -1.02 2 0 2 C0 1.34 0 0.68 0 0 Z " fill="#56B488" transform="translate(132,245)"/>
<path d="M0 0 C4 6 4 6 4 10 C3.01 10 2.02 10 1 10 C0.67 6.7 0.34 3.4 0 0 Z " fill="#6BB893" transform="translate(481,153)"/>
<path d="M0 0 C0.66 0.99 1.32 1.98 2 3 C1.3125 5.625 1.3125 5.625 0 8 C-0.99 8.33 -1.98 8.66 -3 9 C-2.01 6.03 -1.02 3.06 0 0 Z " fill="#6DBB95" transform="translate(18,153)"/>
<path d="M0 0 C1.0326802 2.78823655 1.04509293 3.8677274 0.0625 6.75 C-0.288125 7.4925 -0.63875 8.235 -1 9 C-1.99 9 -2.98 9 -4 9 C-2.94124926 5.59687262 -1.99097846 2.98646769 0 0 Z " fill="#70BA94" transform="translate(33,123)"/>
<path d="M0 0 C2 1 2 1 3.125 4.0625 C3.41375 5.031875 3.7025 6.00125 4 7 C2.02 7.99 2.02 7.99 0 9 C0 6.03 0 3.06 0 0 Z " fill="#60B790" transform="translate(228,352)"/>
<path d="M0 0 C0.66 0.33 1.32 0.66 2 1 C0.35 2.98 -1.3 4.96 -3 7 C-3.99 6.67 -4.98 6.34 -6 6 C-2.25 1.125 -2.25 1.125 0 0 Z " fill="#2A9D68" transform="translate(215,272)"/>
<path d="M0 0 C4.42857143 5.14285714 4.42857143 5.14285714 5 9 C2 8 2 8 0.8125 6.1875 C0 4 0 4 0 0 Z " fill="#63B38C" transform="translate(467,125)"/>
<path d="M0 0 C1 2 1 2 0.0625 5.125 C-0.288125 6.07375 -0.63875 7.0225 -1 8 C-2.32 8 -3.64 8 -5 8 C-3.62845496 5.04590299 -2.01136276 2.55991624 0 0 Z " fill="#6DBF9C" transform="translate(61,84)"/>
<path d="M0 0 C2.64 0 5.28 0 8 0 C7.01 1.485 7.01 1.485 6 3 C2.375 3.1875 2.375 3.1875 -1 3 C-0.67 2.01 -0.34 1.02 0 0 Z " fill="#2A9A67" transform="translate(213,2)"/>
<path d="M0 0 C1.32 0.66 2.64 1.32 4 2 C0.04 3.98 0.04 3.98 -4 6 C-4.33 5.34 -4.66 4.68 -5 4 C-4.01 4 -3.02 4 -2 4 C-2 3.34 -2 2.68 -2 2 C-1.34 2 -0.68 2 0 2 C0 1.34 0 0.68 0 0 Z " fill="#4DA67F" transform="translate(381,460)"/>
<path d="M0 0 C1.65 0 3.3 0 5 0 C4.01 0.495 4.01 0.495 3 1 C2.67 1.99 2.34 2.98 2 4 C1.01 4.33 0.02 4.66 -1 5 C-0.67 3.35 -0.34 1.7 0 0 Z " fill="#58B28B" transform="translate(413,436)"/>
<path d="M0 0 C0.99 0 1.98 0 3 0 C1.92598892 2.91517292 1.22189824 4.77810176 -1 7 C-1.04254356 5.00045254 -1.04080783 2.99958364 -1 1 C-0.67 0.67 -0.34 0.34 0 0 Z " fill="#63BA91" transform="translate(467,370)"/>
<path d="M0 0 C0.66 0 1.32 0 2 0 C2 0.99 2 1.98 2 3 C2.66 3.33 3.32 3.66 4 4 C2.68 4.99 1.36 5.98 0 7 C-0.66 6.67 -1.32 6.34 -2 6 C-2 5.34 -2 4.68 -2 4 C-1.01 4 -0.02 4 1 4 C0.67 2.68 0.34 1.36 0 0 Z " fill="#52B588" transform="translate(203,293)"/>
<path d="M0 0 C0 3.10551666 -0.5393715 4.35261084 -2 7 C-3.32 6.67 -4.64 6.34 -6 6 C-4.02 4.02 -2.04 2.04 0 0 Z " fill="#8CCBB3" transform="translate(232,253)"/>
<path d="M0 0 C0.99 0 1.98 0 3 0 C2.6875 1.875 2.6875 1.875 2 4 C1.01 4.66 0.02 5.32 -1 6 C-1.042721 4.33388095 -1.04063832 2.66617115 -1 1 C-0.67 0.67 -0.34 0.34 0 0 Z " fill="#69B692" transform="translate(258,242)"/>
<path d="M0 0 C1.65 0 3.3 0 5 0 C5 0.66 5 1.32 5 2 C2.625 3.6875 2.625 3.6875 0 5 C-0.66 4.67 -1.32 4.34 -2 4 C-2 3.34 -2 2.68 -2 2 C-1.34 2 -0.68 2 0 2 C0 1.34 0 0.68 0 0 Z " fill="#47B486" transform="translate(326,162)"/>
<path d="M0 0 C0.33 0 0.66 0 1 0 C0.125 6.75 0.125 6.75 -1 9 C-1.66 9 -2.32 9 -3 9 C-2.01 6.03 -1.02 3.06 0 0 Z " fill="#67B692" transform="translate(22,144)"/>
<path d="M0 0 C0 2.62113708 -0.31292445 4.50935112 -1 7 C-2.32 6.34 -3.64 5.68 -5 5 C-3.35 3.35 -1.7 1.7 0 0 Z " fill="#51B284" transform="translate(74,71)"/>
<path d="M0 0 C-4.30769231 3.07692308 -4.30769231 3.07692308 -7.8125 2.6875 C-8.534375 2.460625 -9.25625 2.23375 -10 2 C-3.75 -1.125 -3.75 -1.125 0 0 Z " fill="#5DB58A" transform="translate(182,10)"/>
</svg>
