<?xml version="1.0" encoding="UTF-8"?>
<svg version="1.1" xmlns="http://www.w3.org/2000/svg" width="505" height="284">
<path d="M0 0 C166.65 0 333.3 0 505 0 C505 93.72 505 187.44 505 284 C338.35 284 171.7 284 0 284 C0 190.28 0 96.56 0 0 Z " fill="#000100" transform="translate(0,0)"/>
<path d="M0 0 C1.07894531 0.02835938 2.15789062 0.05671875 3.26953125 0.0859375 C12.26203318 0.50982648 20.41708695 2.33758218 29 5 C30.73056641 5.52400391 30.73056641 5.52400391 32.49609375 6.05859375 C56.78774925 14.02713909 77.847956 30.84705101 92 52 C92.61746094 52.9075 93.23492187 53.815 93.87109375 54.75 C105.99793632 73.10977885 111.04308339 93.68941193 111.25 115.5625 C111.25942627 116.31265381 111.26885254 117.06280762 111.27856445 117.83569336 C111.2256809 126.69718064 108.01240454 133.79186841 101.91796875 140.18359375 C94.89695868 146.70224876 88.69516573 149.56562682 79.125 149.4375 C78.32852051 149.42920166 77.53204102 149.42090332 76.71142578 149.41235352 C66.42266932 149.11619079 60.18506277 145.21764809 53 138 C47.7596059 132.20798547 46.72122618 126.96478613 46.0625 119.4375 C44.56243359 104.71995124 41.30644982 90.47174547 30 80 C16.58982177 69.07318811 3.47304169 65.87143969 -13.45556641 66.73925781 C-26.55565795 68.08169667 -37.42860098 76.42597957 -45.8125 86.125 C-54.1990498 97.87427267 -57.23792302 110.75151527 -55 125 C-51.83893151 139.02384683 -45.57363166 150.91214011 -33.375 159 C-24.07465886 164.58579047 -16.05583475 165.92703098 -5 168 C-5 189.45 -5 210.9 -5 233 C-29.17133321 233 -48.69204298 228.14577575 -69 215 C-69.66 214.34 -70.32 213.68 -71 213 C-74.18719591 213.351242 -75.97179597 214.59151967 -78.375 216.625 C-85.97362201 222.54137549 -95.17491559 226.29652527 -104 230 C-104.78503906 230.36867187 -105.57007813 230.73734375 -106.37890625 231.1171875 C-110.17439409 232.39554853 -113.96322012 232.74122185 -117.9375 233.125 C-118.77708252 233.2070166 -119.61666504 233.2890332 -120.48168945 233.37353516 C-143.28533223 235.4700726 -143.28533223 235.4700726 -151.70703125 228.609375 C-155.67080894 224.94456837 -158.62191686 221.16644628 -159.28125 215.64453125 C-159.51386143 209.23802468 -158.73896192 204.09258377 -154.3359375 199.12109375 C-146.57093365 191.71185701 -138.72301101 190.92763126 -128.39453125 189.98364258 C-122.46817818 189.32362653 -118.06213462 187.47018668 -113.00390625 184.2421875 C-111 183 -111 183 -109 183 C-109 182.34 -109 181.68 -109 181 C-108.01 180.34 -107.02 179.68 -106 179 C-106.5953416 174.40361265 -108.575346 170.82217325 -110.75 166.8125 C-117.15869402 154.46148581 -120.21488381 141.53774503 -121.54296875 127.74609375 C-121.76919922 126.38677734 -121.76919922 126.38677734 -122 125 C-122.66 124.67 -123.32 124.34 -124 124 C-124 123.34 -124 122.68 -124 122 C-124.65871094 122.14953125 -125.31742187 122.2990625 -125.99609375 122.453125 C-128.95275899 122.99139956 -131.88569626 123.27939034 -134.87719727 123.54541016 C-143.31778523 124.33562496 -150.35360327 126.13996928 -158 130 C-157.67 129.01 -157.34 128.02 -157 127 C-156.01 127 -155.02 127 -154 127 C-153.79375 126.443125 -153.5875 125.88625 -153.375 125.3125 C-151.4824414 122.12956054 -148.88455209 120.28360374 -146 118 C-145.34 117.34 -144.68 116.68 -144 116 C-144 116.66 -144 117.32 -144 118 C-143.46632812 117.566875 -142.93265625 117.13375 -142.3828125 116.6875 C-137.6158617 113.12465788 -134.08815775 111.15256103 -128.0859375 111.53125 C-119.32970496 112.86131064 -110.13406734 114.39568274 -102 118 C-102.65846679 114.90025439 -102.65846679 114.90025439 -104.96875 113.90234375 C-105.8040625 113.58394531 -106.639375 113.26554687 -107.5 112.9375 C-108.3146875 112.61652344 -109.129375 112.29554687 -109.96875 111.96484375 C-117.72565103 109.49583015 -124.92817388 108.65954699 -133.0625 108.6875 C-134.00416016 108.67138672 -134.94582031 108.65527344 -135.91601562 108.63867188 C-142.01585196 108.63442703 -146.41334348 109.5600631 -152 112 C-155.09666663 112.92899999 -158.13581797 113.8365061 -161.3125 114.4375 C-163.40563933 114.94335667 -163.40563933 114.94335667 -165 118 C-166.66666667 118 -168.33333333 118 -170 118 C-171.68029994 118.97691857 -173.34928604 119.97388051 -175 121 C-175.66 120.67 -176.32 120.34 -177 120 C-177.825 120.165 -178.65 120.33 -179.5 120.5 C-182 121 -182 121 -184 120 C-184 119.34 -184 118.68 -184 118 C-186.3949463 116.71041353 -188.55975338 115.83536665 -191.1875 115.0625 C-192.115625 114.711875 -193.04375 114.36125 -194 114 C-194.33 113.01 -194.66 112.02 -195 111 C-198.96 110.505 -198.96 110.505 -203 110 C-198.2465088 98.70731455 -183.38538484 91.91489406 -173 87 C-171.824375 86.443125 -170.64875 85.88625 -169.4375 85.3125 C-156.4856916 80.36726407 -143.61836771 79.82008333 -129.9375 79.4375 C-128.4850161 79.39421245 -127.03254199 79.35059526 -125.58007812 79.30664062 C-122.05349009 79.20062746 -118.52679065 79.09907252 -115 79 C-114.86980469 78.24847656 -114.73960937 77.49695313 -114.60546875 76.72265625 C-113.9230439 73.65394577 -112.67147329 71.11853088 -111.2109375 68.34765625 C-110.35662378 66.69138997 -109.5537227 65.00811271 -108.7890625 63.30859375 C-96.08044547 35.72428338 -70.75183608 17.2954722 -43.3125 6.1875 C-29.1988703 1.01888345 -14.95259201 -0.44878175 0 0 Z " fill="#2D5D3B" transform="translate(309,11)"/>
<path d="M0 0 C3.74060136 3.21712047 6.91124157 6.53594682 9.875 10.47265625 C10.46796875 11.25382812 11.0609375 12.035 11.671875 12.83984375 C17.06331502 20.23579353 21.09085721 27.60315776 23.625 36.41015625 C27.28588953 47.75745528 35.50592513 55.09826251 45.875 60.47265625 C54.12121091 64.30749657 54.12121091 64.30749657 68.875 66.47265625 C68.875 87.92265625 68.875 109.37265625 68.875 131.47265625 C44.70366679 131.47265625 25.18295702 126.618432 4.875 113.47265625 C4.215 112.81265625 3.555 112.15265625 2.875 111.47265625 C-0.31219591 111.82389825 -2.09679597 113.06417592 -4.5 115.09765625 C-12.09862201 121.01403174 -21.29991559 124.76918152 -30.125 128.47265625 C-30.91003906 128.84132812 -31.69507813 129.21 -32.50390625 129.58984375 C-36.29939409 130.86820478 -40.08822012 131.2138781 -44.0625 131.59765625 C-44.90208252 131.67967285 -45.74166504 131.76168945 -46.60668945 131.84619141 C-69.41033223 133.94272885 -69.41033223 133.94272885 -77.83203125 127.08203125 C-81.79580894 123.41722462 -84.74691686 119.63910253 -85.40625 114.1171875 C-85.63886143 107.71068093 -84.86396192 102.56524002 -80.4609375 97.59375 C-72.69593365 90.18451326 -64.84801101 89.40028751 -54.51953125 88.45629883 C-48.59317818 87.79628278 -44.18713462 85.94284293 -39.12890625 82.71484375 C-37.125 81.47265625 -37.125 81.47265625 -35.125 81.47265625 C-35.125 80.81265625 -35.125 80.15265625 -35.125 79.47265625 C-34.135 78.81265625 -33.145 78.15265625 -32.125 77.47265625 C-32.7203416 72.8762689 -34.700346 69.2948295 -36.875 65.28515625 C-43.28369402 52.93414206 -46.33988381 40.01040128 -47.66796875 26.21875 C-47.81878906 25.31253906 -47.96960938 24.40632813 -48.125 23.47265625 C-48.785 23.14265625 -49.445 22.81265625 -50.125 22.47265625 C-50.125 21.81265625 -50.125 21.15265625 -50.125 20.47265625 C-50.78371094 20.6221875 -51.44242187 20.77171875 -52.12109375 20.92578125 C-55.07775899 21.46405581 -58.01069626 21.75204659 -61.00219727 22.01806641 C-69.44278523 22.80828121 -76.47860327 24.61262553 -84.125 28.47265625 C-83.795 27.48265625 -83.465 26.49265625 -83.125 25.47265625 C-82.135 25.47265625 -81.145 25.47265625 -80.125 25.47265625 C-79.91875 24.91578125 -79.7125 24.35890625 -79.5 23.78515625 C-77.6074414 20.60221679 -75.00955209 18.75625999 -72.125 16.47265625 C-71.465 15.81265625 -70.805 15.15265625 -70.125 14.47265625 C-70.125 15.13265625 -70.125 15.79265625 -70.125 16.47265625 C-69.59132812 16.03953125 -69.05765625 15.60640625 -68.5078125 15.16015625 C-63.7408617 11.59731413 -60.21315775 9.62521728 -54.2109375 10.00390625 C-45.45470496 11.33396689 -36.25906734 12.86833899 -28.125 16.47265625 C-28.78346679 13.37291064 -28.78346679 13.37291064 -31.09375 12.375 C-32.34671875 11.89740234 -32.34671875 11.89740234 -33.625 11.41015625 C-34.4396875 11.08917969 -35.254375 10.76820312 -36.09375 10.4375 C-43.85065103 7.9684864 -51.05317388 7.13220324 -59.1875 7.16015625 C-60.12916016 7.14404297 -61.07082031 7.12792969 -62.04101562 7.11132812 C-68.14085196 7.10708328 -72.53834348 8.03271935 -78.125 10.47265625 C-81.22166663 11.40165624 -84.26081797 12.30916235 -87.4375 12.91015625 C-89.53063933 13.41601292 -89.53063933 13.41601292 -91.125 16.47265625 C-92.79166667 16.47265625 -94.45833333 16.47265625 -96.125 16.47265625 C-97.80529994 17.44957482 -99.47428604 18.44653676 -101.125 19.47265625 C-101.785 19.14265625 -102.445 18.81265625 -103.125 18.47265625 C-104.3625 18.72015625 -104.3625 18.72015625 -105.625 18.97265625 C-108.125 19.47265625 -108.125 19.47265625 -110.125 18.47265625 C-110.125 17.81265625 -110.125 17.15265625 -110.125 16.47265625 C-112.5199463 15.18306978 -114.68475338 14.3080229 -117.3125 13.53515625 C-118.7046875 13.00921875 -118.7046875 13.00921875 -120.125 12.47265625 C-120.62 10.98765625 -120.62 10.98765625 -121.125 9.47265625 C-123.765 9.14265625 -126.405 8.81265625 -129.125 8.47265625 C-124.3715088 -2.8200292 -109.51038484 -9.61244969 -99.125 -14.52734375 C-97.949375 -15.08421875 -96.77375 -15.64109375 -95.5625 -16.21484375 C-63.30474265 -28.53144201 -26.51557875 -21.50296665 0 0 Z " fill="#05663A" transform="translate(235.125,112.52734375)"/>
<path d="M0 0 C3.74060136 3.21712047 6.91124157 6.53594682 9.875 10.47265625 C10.76445312 11.64441406 10.76445312 11.64441406 11.671875 12.83984375 C22.86604644 28.19595072 28.12595811 45.56571369 25.58642578 64.64013672 C23.46842626 77.83427869 18.82182779 91.97916914 8.875 101.47265625 C6.69921875 102.17578125 6.69921875 102.17578125 4.875 102.47265625 C4.875 103.13265625 4.875 103.79265625 4.875 104.47265625 C4.235625 104.76140625 3.59625 105.05015625 2.9375 105.34765625 C0.72293921 106.30089076 0.72293921 106.30089076 -0.125 108.47265625 C-3.57543117 109.62279997 -6.47782355 110.47265625 -10.125 110.47265625 C-9.650625 109.87453125 -9.17625 109.27640625 -8.6875 108.66015625 C-6.96034256 106.46882701 -6.96034256 106.46882701 -6.125 103.47265625 C-5.2278125 103.07046875 -5.2278125 103.07046875 -4.3125 102.66015625 C-1.11445463 100.92407448 0.09774643 98.59817114 1.875 95.47265625 C2.5628236 93.11897912 2.5628236 93.11897912 2.875 90.47265625 C3.19822933 88.94964347 3.53252528 87.42895716 3.875 85.91015625 C4.04 85.16636719 4.205 84.42257813 4.375 83.65625 C4.67964913 82.32579013 5.01346365 81.00102658 5.39794922 79.69140625 C5.97425314 77.01103265 6.00470294 74.5310275 6.0078125 71.7890625 C6.00910156 70.69658203 6.01039063 69.60410156 6.01171875 68.47851562 C6.00785156 67.34220703 6.00398438 66.20589844 6 65.03515625 C6.00386719 63.90271484 6.00773437 62.77027344 6.01171875 61.60351562 C6.01042969 60.50974609 6.00914062 59.41597656 6.0078125 58.2890625 C6.00612061 56.79548218 6.00612061 56.79548218 6.00439453 55.27172852 C5.87952883 52.57062433 5.48054132 50.1037844 4.875 47.47265625 C4.215 47.47265625 3.555 47.47265625 2.875 47.47265625 C2.875 46.81265625 2.875 46.15265625 2.875 45.47265625 C2.215 45.47265625 1.555 45.47265625 0.875 45.47265625 C-1.45345886 41.83443927 -1.36053948 38.71236683 -1.125 34.47265625 C-0.63 33.48265625 -0.63 33.48265625 -0.125 32.47265625 C-0.785 32.47265625 -1.445 32.47265625 -2.125 32.47265625 C-2.455 33.46265625 -2.785 34.45265625 -3.125 35.47265625 C-3.37894531 34.7971875 -3.63289063 34.12171875 -3.89453125 33.42578125 C-4.41080078 32.08773437 -4.41080078 32.08773437 -4.9375 30.72265625 C-5.27394531 29.8409375 -5.61039062 28.95921875 -5.95703125 28.05078125 C-7.02380433 25.43830815 -7.02380433 25.43830815 -8.76171875 23.33203125 C-10.125 21.47265625 -10.125 21.47265625 -10.125 18.47265625 C-10.723125 18.34890625 -11.32125 18.22515625 -11.9375 18.09765625 C-14.125 17.47265625 -14.125 17.47265625 -17.125 15.47265625 C-17.125 14.81265625 -17.125 14.15265625 -17.125 13.47265625 C-18.383125 13.20453125 -19.64125 12.93640625 -20.9375 12.66015625 C-24.76885508 11.84363795 -24.76885508 11.84363795 -26.52563477 10.01367188 C-32.76984848 3.99726569 -46.67970574 2.99724626 -55 3.03515625 C-65.69225586 3.2798583 -77.42583562 4.62307406 -87.125 9.47265625 C-94.11786189 9.93526096 -100.43129603 9.53225747 -107.125 7.47265625 C-107.125 6.81265625 -107.125 6.15265625 -107.125 5.47265625 C-108.07375 5.36953125 -109.0225 5.26640625 -110 5.16015625 C-113.125 4.47265625 -113.125 4.47265625 -115.125 1.47265625 C-114.79621479 -4.66466769 -114.79621479 -4.66466769 -112.93359375 -7.05859375 C-81.11651306 -32.89708692 -29.37513336 -23.82193951 0 0 Z " fill="#5CC38B" transform="translate(235.125,112.52734375)"/>
<path d="M0 0 C1.57864836 2.09363426 3.13783409 4.194073 4.65625 6.33203125 C15.09080761 20.37004838 27.88326124 23.79061148 45 27 C45 48.45 45 69.9 45 92 C20.82866679 92 1.30795702 87.14577575 -19 74 C-19.99 73.01 -19.99 73.01 -21 72 C-26.52301243 71.16449517 -30.39885666 71.81459307 -35 75 C-37.62961001 76.10152042 -40.31413308 77.04502509 -43 78 C-46.78260796 79.11411773 -46.78260796 79.11411773 -49 82 C-50.051875 81.773125 -51.10375 81.54625 -52.1875 81.3125 C-56.45483451 80.96271848 -57.58435502 81.65784344 -61 84 C-61.66 83.67 -62.32 83.34 -63 83 C-59.39042389 79.7089159 -56.87362847 78.45336079 -52 78 C-52 77.34 -52 76.68 -52 76 C-50.96875 75.443125 -49.9375 74.88625 -48.875 74.3125 C-46.24687859 72.82518585 -43.9687957 71.22712294 -41.6875 69.25 C-39 67 -39 67 -37 67 C-37 66.34 -37 65.68 -37 65 C-35.625 63.375 -35.625 63.375 -34 62 C-33.34 62 -32.68 62 -32 62 C-30.13448574 58.41247258 -28.57464072 54.72187807 -27 51 C-26.34 51 -25.68 51 -25 51 C-24.814375 50.195625 -24.814375 50.195625 -24.625 49.375 C-23.87793984 46.5361714 -22.94696636 43.77776798 -22 41 C-21.34 41 -20.68 41 -20 41 C-19.10443812 29.86747694 -19.02649043 19.12796329 -20 8 C-15.47711576 12.52288424 -16.81587551 19.34122577 -16.8125 25.3125 C-16.80025391 26.44107422 -16.78800781 27.56964844 -16.77539062 28.73242188 C-16.77345703 29.82748047 -16.77152344 30.92253906 -16.76953125 32.05078125 C-16.76542236 33.04762939 -16.76131348 34.04447754 -16.75708008 35.0715332 C-17.02573724 38.31026955 -17.90879091 40.94906845 -19 44 C-19.33926947 46.33247761 -19.67240066 48.66585471 -20 51 C-21.11333844 55.96720227 -22.36496139 59.36496139 -26 63 C-28.25 63.8125 -28.25 63.8125 -30 64 C-30.70266613 66.97574276 -30.70266613 66.97574276 -31 70 C-27.56206661 69.81870185 -27.56206661 69.81870185 -24 69 C-22.48705712 67.06402968 -22.48705712 67.06402968 -22 65 C-21.01 65 -20.02 65 -19 65 C-19 64.34 -19 63.68 -19 63 C-18.24847656 62.57074219 -17.49695313 62.14148438 -16.72265625 61.69921875 C-13.58162741 59.73889229 -12.34964021 57.95799283 -10.4375 54.8125 C-9.87933594 53.91144531 -9.32117188 53.01039063 -8.74609375 52.08203125 C-5.08302336 45.61634325 -2.30405186 39.67273813 -0.75 32.375 C-0.58089111 31.59519775 -0.41178223 30.81539551 -0.23754883 30.01196289 C1.79655326 19.95645471 1.39565038 10.11846522 0 0 Z " fill="#235837" transform="translate(259,152)"/>
<path d="M0 0 C3.3 1.32 6.6 2.64 10 4 C10 4.66 10 5.32 10 6 C11.32 6 12.64 6 14 6 C15.5 8.1875 15.5 8.1875 17 11 C17.66 11.763125 18.32 12.52625 19 13.3125 C24.38782366 20.55238805 24.61344258 28.25580448 25 37 C27.15634036 37 28.92446352 36.5534764 31 36 C31.93425477 39.684385 31.9684301 42.30277218 31.125 46 C30.94195312 46.825 30.75890625 47.65 30.5703125 48.5 C30.28800781 49.7375 30.28800781 49.7375 30 51 C29.4970924 53.36619834 29.03012675 55.66027277 28.81640625 58.0703125 C27.69202034 67.16918924 20.3103435 73.2590495 13.6875 79 C8.35947248 82.96504374 3.34352428 85.16560445 -3 87 C-3.70511719 87.22042969 -4.41023438 87.44085938 -5.13671875 87.66796875 C-13.91073015 89.94951796 -23.0680322 88.67860946 -32 88 C-33.55064406 83.34806781 -33.72503661 78.84779377 -33 74 C-28.19319806 68.08393607 -21.42113068 66.35657803 -14.02734375 65.5859375 C-12.55992073 65.45285025 -11.09247212 65.32004483 -9.625 65.1875 C-2.81115078 64.56609247 2.13917094 62.97988786 7.99609375 59.2421875 C10 58 10 58 12 58 C12 57.34 12 56.68 12 56 C12.99 55.34 13.98 54.68 15 54 C14.40473174 49.40417888 12.42602926 45.82115778 10.25 41.8125 C3.46433304 28.83188603 -0.22185593 14.64249145 0 0 Z " fill="#235436" transform="translate(188,136)"/>
<path d="M0 0 C7.5849146 5.13281113 14.34770299 10.74596215 20 18 C20.50402344 18.51433594 21.00804687 19.02867188 21.52734375 19.55859375 C25.9955148 24.521853 25.41033138 29.75692025 25.17578125 36.18359375 C25.11777344 37.11300781 25.05976563 38.04242188 25 39 C24.01 39.495 24.01 39.495 23 40 C22.67 39.01 22.34 38.02 22 37 C21.34 37 20.68 37 20 37 C15.35426383 30.28027447 14.31815714 25.10635405 15 17 C12.69 16.67 10.38 16.34 8 16 C7.505 14.02 7.505 14.02 7 12 C6.34 12 5.68 12 5 12 C4.9175 12.928125 4.835 13.85625 4.75 14.8125 C4 18 4 18 2.375 19.9375 C-0.99003901 21.44291219 -3.4656999 20.74764041 -7 20 C-7 19.34 -7 18.68 -7 18 C-8.1446875 17.9071875 -8.1446875 17.9071875 -9.3125 17.8125 C-10.199375 17.544375 -11.08625 17.27625 -12 17 C-12.39832031 16.21367188 -12.79664063 15.42734375 -13.20703125 14.6171875 C-15.61849837 11.09718103 -18.44465666 10.4164864 -22.375 9.3125 C-29.88815612 7.04534644 -29.88815612 7.04534644 -32.7265625 5.89453125 C-43.43462326 1.68122212 -60.02092307 2.58399708 -70.47265625 7.05859375 C-71.94331188 7.76814213 -73.39970211 8.50892785 -74.83203125 9.29296875 C-79.96694958 10.96759977 -85.10209532 8.33692125 -89.875 6.4375 C-91.02742187 5.98246094 -92.17984375 5.52742188 -93.3671875 5.05859375 C-94.23601562 4.70925781 -95.10484375 4.35992187 -96 4 C-96 3.01 -96 2.02 -96 1 C-89.36165232 -3.91602723 -81.7234223 -7.20565622 -74 -10 C-72.75476563 -10.55880859 -72.75476563 -10.55880859 -71.484375 -11.12890625 C-48.83601404 -20.41473425 -19.770627 -12.30596325 0 0 Z " fill="#BBE4B6" transform="translate(225,105)"/>
<path d="M0 0 C0.66 0 1.32 0 2 0 C1.42040635 3.64500004 0.44335483 6.4180833 -1.375 9.625 C-1.79523438 10.38039062 -2.21546875 11.13578125 -2.6484375 11.9140625 C-3.94820239 13.92005802 -5.17128569 15.46466232 -7 17 C-7.66 17 -8.32 17 -9 17 C-9.20625 17.5775 -9.4125 18.155 -9.625 18.75 C-11.81370293 22.33151389 -15.12440465 24.51770405 -19.1875 25.5625 C-19.785625 25.706875 -20.38375 25.85125 -21 26 C-21.4125 26.474375 -21.825 26.94875 -22.25 27.4375 C-27.20304757 31.8598639 -35.53952942 31.33698466 -41.8125 31.3125 C-42.65748047 31.32861328 -43.50246094 31.34472656 -44.37304688 31.36132812 C-45.18451172 31.36197266 -45.99597656 31.36261719 -46.83203125 31.36328125 C-47.56139893 31.36626221 -48.2907666 31.36924316 -49.04223633 31.37231445 C-51.59495861 30.88685474 -52.48580007 30.0910096 -54 28 C-54 22.47064312 -52.80727072 18.99009106 -49.7421875 14.4453125 C-45.15587167 10.64052134 -38.35915926 10.56812801 -32.625 10 C-22.15087412 9.16393276 -22.15087412 9.16393276 -12.5 5.5 C-9.37958693 3.62775216 -6.44833381 3.14581962 -2.890625 2.52734375 C-2.26671875 2.35332031 -1.6428125 2.17929688 -1 2 C-0.67 1.34 -0.34 0.68 0 0 Z " fill="#4CBF80" transform="translate(211,191)"/>
<path d="M0 0 C-3.21720458 2.76539377 -6.10862471 3.7452674 -10.1875 4.8125 C-15.57585339 6.37451705 -19.63969614 8.35063335 -24.09765625 11.73046875 C-26.08007791 13.05344009 -27.67204659 13.56966563 -30 14 C-30 14.99 -30 15.98 -30 17 C-29.12988281 17.16435547 -29.12988281 17.16435547 -28.2421875 17.33203125 C-24.40106238 18.11166556 -21.25657906 18.86677626 -17.75 20.6875 C-12.95514443 22.97595379 -8.47741555 20.56752616 -3.625 19 C8.28363579 15.32761623 25.33957081 12.83393151 36.9375 18.875 C37.58074219 19.2359375 38.22398437 19.596875 38.88671875 19.96875 C41.30059322 21.14668505 43.64471688 21.73416901 46.25 22.375 C50.13741565 23.44493091 50.80565751 23.7442862 53.375 27.125 C53.91125 28.07375 54.4475 29.0225 55 30 C57.12119128 30.95231597 57.12119128 30.95231597 59 31 C59 31.66 59 32.32 59 33 C59.66 33.33 60.32 33.66 61 34 C53.59891588 33.49823159 53.59891588 33.49823159 50.74609375 31.125 C47.25680966 28.42489965 43.96651914 27.39851933 39.75 26.25 C38.96222168 26.034646 38.17444336 25.81929199 37.36279297 25.59741211 C22.07705715 21.74626013 3.23305212 22.88347394 -11 30 C-17.99286189 30.46260471 -24.30629603 30.05960122 -31 28 C-31 27.34 -31 26.68 -31 26 C-31.94875 25.896875 -32.8975 25.79375 -33.875 25.6875 C-37 25 -37 25 -39 22 C-38.67121479 15.86267606 -38.67121479 15.86267606 -36.80859375 13.46875 C-27.62478862 6.01062748 -11.95285846 -0.45308669 0 0 Z " fill="#A3DA9E" transform="translate(159,92)"/>
<path d="M0 0 C6.68133144 0.46078148 10.94871625 1.56823832 15.59765625 6.796875 C18.89641957 10.97909091 21.1538131 15.01529538 23 20 C23.33 20.886875 23.66 21.77375 24 22.6875 C24.33 23.780625 24.66 24.87375 25 26 C25.40798828 27.24523437 25.40798828 27.24523437 25.82421875 28.515625 C28.34162512 37.03607733 27.98978469 44.27081458 27 53 C27.66 53 28.32 53 29 53 C29.12375 51.700625 29.2475 50.40125 29.375 49.0625 C29.5859375 46.84765625 29.5859375 46.84765625 30 45 C30.99 44.505 30.99 44.505 32 44 C32.02898816 47.93748458 32.04679464 51.87494179 32.0625 55.8125 C32.07087891 56.93205078 32.07925781 58.05160156 32.08789062 59.20507812 C32.09111328 60.27822266 32.09433594 61.35136719 32.09765625 62.45703125 C32.10289307 63.44678955 32.10812988 64.43654785 32.11352539 65.45629883 C32 68 32 68 31 71 C31.928125 70.505 31.928125 70.505 32.875 70 C35 69 35 69 37 69 C35.706487 73.35675772 34.03309387 76.87800365 31.5625 80.6875 C30.96566406 81.61949219 30.36882812 82.55148438 29.75390625 83.51171875 C28.27080445 85.6158075 27.00818649 87.39880597 25 89 C24.01 89 23.02 89 22 89 C22 89.66 22 90.32 22 91 C21.360625 91.28875 20.72125 91.5775 20.0625 91.875 C17.84793921 92.82823451 17.84793921 92.82823451 17 95 C13.54956883 96.15014372 10.64717645 97 7 97 C7.474375 96.401875 7.94875 95.80375 8.4375 95.1875 C10.16465744 92.99617076 10.16465744 92.99617076 11 90 C11.8971875 89.5978125 11.8971875 89.5978125 12.8125 89.1875 C16.01054537 87.45141823 17.22274643 85.12551489 19 82 C19.6878236 79.64632287 19.6878236 79.64632287 20 77 C20.32322933 75.47698722 20.65752528 73.95630091 21 72.4375 C21.165 71.69371094 21.33 70.94992188 21.5 70.18359375 C21.80464913 68.85313388 22.13846365 67.52837033 22.52294922 66.21875 C23.09925314 63.5383764 23.12970294 61.05837125 23.1328125 58.31640625 C23.13410156 57.22392578 23.13539063 56.13144531 23.13671875 55.00585938 C23.13091797 53.30139648 23.13091797 53.30139648 23.125 51.5625 C23.12886719 50.43005859 23.13273437 49.29761719 23.13671875 48.13085938 C23.13542969 47.03708984 23.13414062 45.94332031 23.1328125 44.81640625 C23.13168457 43.82068604 23.13055664 42.82496582 23.12939453 41.79907227 C23.00452883 39.09796808 22.60554132 36.63112815 22 34 C21.34 34 20.68 34 20 34 C20 33.34 20 32.68 20 32 C19.34 32 18.68 32 18 32 C15.67154114 28.36178302 15.76446052 25.23971058 16 21 C16.33 20.34 16.66 19.68 17 19 C16.34 19 15.68 19 15 19 C14.67 19.99 14.34 20.98 14 22 C13.74605469 21.32453125 13.49210938 20.6490625 13.23046875 19.953125 C12.88628906 19.06109375 12.54210937 18.1690625 12.1875 17.25 C11.85105469 16.36828125 11.51460937 15.4865625 11.16796875 14.578125 C10.10119567 11.9656519 10.10119567 11.9656519 8.36328125 9.859375 C7 8 7 8 7 5 C6.401875 4.87625 5.80375 4.7525 5.1875 4.625 C3 4 3 4 0 2 C0 1.34 0 0.68 0 0 Z " fill="#45C47E" transform="translate(218,126)"/>
<path d="M0 0 C1.44197868 2.88395737 1.58833581 5.82430479 2 9 C3.98 9.66 5.96 10.32 8 11 C8 11.66 8 12.32 8 13 C17.44743152 14.453451 26.238681 15.3806595 35 11 C40.53247941 9.209405 46.20582002 8.3580673 52 8 C53.2271875 7.92265625 54.454375 7.8453125 55.71875 7.765625 C67.13366094 7.29084671 80.26271969 8.50847979 90 15 C90 15.66 90 16.32 90 17 C92.64 17.66 95.28 18.32 98 19 C98 19.66 98 20.32 98 21 C100.33214148 22.20628008 102.49642139 23.1654738 105 24 C106.38671875 25.890625 106.38671875 25.890625 107.6875 28.25 C108.12449219 29.01828125 108.56148438 29.7865625 109.01171875 30.578125 C110.09669092 33.23695009 110.18655326 35.15632325 110 38 C109.34 38 108.68 38 108 38 C107.505 35.03 107.505 35.03 107 32 C106.34 32 105.68 32 105 32 C104.443125 30.906875 103.88625 29.81375 103.3125 28.6875 C101.32050482 25.25684163 99.74147876 23.57973547 96 22 C93.76739106 21.46726453 91.54453489 21.00752702 89.28125 20.625 C87 20 87 20 84.578125 18.5390625 C73.82670101 12.12078818 54.55691848 10.75645511 42.4375 13.6015625 C40.58985646 14.3160809 38.79095853 15.15336506 37 16 C33.90333337 16.92899999 30.86418203 17.8365061 27.6875 18.4375 C25.59436067 18.94335667 25.59436067 18.94335667 24 22 C22.33333333 22 20.66666667 22 19 22 C17.31970006 22.97691857 15.65071396 23.97388051 14 25 C13.34 24.67 12.68 24.34 12 24 C10.7625 24.2475 10.7625 24.2475 9.5 24.5 C7 25 7 25 5 24 C5 23.34 5 22.68 5 22 C2.6050537 20.71041353 0.44024662 19.83536665 -2.1875 19.0625 C-3.5796875 18.5365625 -3.5796875 18.5365625 -5 18 C-5.33 17.01 -5.66 16.02 -6 15 C-8.64 14.67 -11.28 14.34 -14 14 C-12.51167917 10.41194006 -10.48442067 8.39869503 -7.5625 5.875 C-6.78003906 5.19179687 -5.99757813 4.50859375 -5.19140625 3.8046875 C-3 2 -3 2 0 0 Z " fill="#2FA164" transform="translate(120,107)"/>
<path d="M0 0 C0.99 0.495 0.99 0.495 2 1 C0 11 0 11 -0.5390625 13.57421875 C-1.02831409 15.9303946 -1.02831409 15.9303946 -1.18359375 18.0703125 C-2.30797966 27.16918924 -9.6896565 33.2590495 -16.3125 39 C-21.64052752 42.96504374 -26.65647572 45.16560445 -33 47 C-33.70511719 47.22042969 -34.41023438 47.44085938 -35.13671875 47.66796875 C-43.91073015 49.94951796 -53.0680322 48.67860946 -62 48 C-63.54277632 43.37167105 -63.78109361 38.82026238 -63 34 C-61.2080015 31.54971634 -59.65013676 30.60112429 -57 29 C-57 32 -57 32 -58.5 34.875 C-59.99645634 37.99261738 -60.47018061 39.61469958 -60 43 C-57.64440638 45.35559362 -57.1910056 45.25565311 -54 45.265625 C-52.79887573 45.27142578 -52.79887573 45.27142578 -51.57348633 45.27734375 C-50.2996106 45.26380859 -50.2996106 45.26380859 -49 45.25 C-48.14237061 45.24613281 -47.28474121 45.24226563 -46.40112305 45.23828125 C-40.3760065 45.15608165 -34.84674365 44.53357211 -29 43 C-28.67 42.01 -28.34 41.02 -28 40 C-26.35008418 39.29289322 -24.6792238 38.63437344 -23 38 C-15.92321918 33.72444492 -11.63302698 29.07294525 -8.1875 21.6875 C-7.87619141 21.04232422 -7.56488281 20.39714844 -7.24414062 19.73242188 C-6.48676288 18.15940656 -5.74203942 16.58030874 -5 15 C-5.66 15 -6.32 15 -7 15 C-7.33 15.99 -7.66 16.98 -8 18 C-9.890625 18.625 -9.890625 18.625 -12.25 19 C-16.11069965 19.72082683 -18.64188484 20.94781851 -22 23 C-24.8125 23.1875 -24.8125 23.1875 -27 23 C-24.14693203 20.67527795 -21.45925163 19.2491742 -18 18 C-18 17.34 -18 16.68 -18 16 C-16.27737445 14.48502541 -14.49564485 13.036807 -12.6875 11.625 C-8.66368936 8.53062044 -8.66368936 8.53062044 -5.39453125 4.7109375 C-4.93433594 4.14632812 -4.47414062 3.58171875 -4 3 C-2.68 3 -1.36 3 0 3 C0 2.01 0 1.02 0 0 Z " fill="#049252" transform="translate(218,176)"/>
<path d="M0 0 C4.52288424 4.52288424 3.18412449 11.34122577 3.1875 17.3125 C3.19974609 18.44107422 3.21199219 19.56964844 3.22460938 20.73242188 C3.22654297 21.82748047 3.22847656 22.92253906 3.23046875 24.05078125 C3.23457764 25.04762939 3.23868652 26.04447754 3.24291992 27.0715332 C2.97426276 30.31026955 2.09120909 32.94906845 1 36 C0.66073053 38.33247761 0.32759934 40.66585471 0 43 C-1.11333844 47.96720227 -2.36496139 51.36496139 -6 55 C-8.25 55.8125 -8.25 55.8125 -10 56 C-10.70266613 58.97574276 -10.70266613 58.97574276 -11 62 C-7.56206661 61.81870185 -7.56206661 61.81870185 -4 61 C-2.48705712 59.06402968 -2.48705712 59.06402968 -2 57 C-1.01 57 -0.02 57 1 57 C1 56.34 1 55.68 1 55 C1.66 55 2.32 55 3 55 C1.49373726 58.83412335 -0.59268201 60.72845467 -4 63 C-6.31847874 63.7166207 -8.65319703 64.38242027 -11 65 C-13.00812926 65.98357352 -15.00854609 66.98308736 -17 68 C-18.99172182 68.69100553 -20.99161804 69.35902703 -23 70 C-26.76756732 71.10666307 -26.76756732 71.10666307 -29 74 C-30.051875 73.773125 -31.10375 73.54625 -32.1875 73.3125 C-36.45483451 72.96271848 -37.58435502 73.65784344 -41 76 C-41.66 75.67 -42.32 75.34 -43 75 C-39.39042389 71.7089159 -36.87362847 70.45336079 -32 70 C-32 69.34 -32 68.68 -32 68 C-30.96875 67.443125 -29.9375 66.88625 -28.875 66.3125 C-26.24687859 64.82518585 -23.9687957 63.22712294 -21.6875 61.25 C-19 59 -19 59 -17 59 C-17 58.34 -17 57.68 -17 57 C-15.625 55.375 -15.625 55.375 -14 54 C-13.34 54 -12.68 54 -12 54 C-10.13448574 50.41247258 -8.57464072 46.72187807 -7 43 C-6.34 43 -5.68 43 -5 43 C-4.814375 42.195625 -4.814375 42.195625 -4.625 41.375 C-3.87793984 38.5361714 -2.94696636 35.77776798 -2 33 C-1.34 33 -0.68 33 0 33 C0.89556188 21.86747694 0.97350957 11.12796329 0 0 Z " fill="#118B53" transform="translate(239,160)"/>
<path d="M0 0 C6.68133144 0.46078148 10.94871625 1.56823832 15.59765625 6.796875 C18.89641957 10.97909091 21.1538131 15.01529538 23 20 C23.33 20.886875 23.66 21.77375 24 22.6875 C24.33 23.780625 24.66 24.87375 25 26 C25.40798828 27.175625 25.40798828 27.175625 25.82421875 28.375 C29.48432833 40.29933892 28.28052344 53.10651926 25 65 C24.8347583 65.66217529 24.6695166 66.32435059 24.49926758 67.0065918 C24.06421914 68.68913367 23.53943992 70.34796523 23 72 C22.01 72.495 22.01 72.495 21 73 C21.32613281 71.77796875 21.65226562 70.5559375 21.98828125 69.296875 C23.32223385 63.28290335 23.25614028 57.38427378 23.1875 51.25 C23.18685547 50.14011719 23.18621094 49.03023437 23.18554688 47.88671875 C23.1596531 43.10500079 23.06639363 38.67830341 22 34 C21.34 34 20.68 34 20 34 C20 33.34 20 32.68 20 32 C19.34 32 18.68 32 18 32 C15.67154114 28.36178302 15.76446052 25.23971058 16 21 C16.33 20.34 16.66 19.68 17 19 C16.34 19 15.68 19 15 19 C14.67 19.99 14.34 20.98 14 22 C13.74605469 21.32453125 13.49210938 20.6490625 13.23046875 19.953125 C12.88628906 19.06109375 12.54210937 18.1690625 12.1875 17.25 C11.85105469 16.36828125 11.51460937 15.4865625 11.16796875 14.578125 C10.10119567 11.9656519 10.10119567 11.9656519 8.36328125 9.859375 C7 8 7 8 7 5 C6.401875 4.87625 5.80375 4.7525 5.1875 4.625 C3 4 3 4 0 2 C0 1.34 0 0.68 0 0 Z " fill="#2CB26E" transform="translate(218,126)"/>
<path d="M0 0 C0.99 0.33 1.98 0.66 3 1 C1.77742768 2.27717852 0.54660355 3.54646031 -0.6875 4.8125 C-1.37199219 5.52019531 -2.05648437 6.22789062 -2.76171875 6.95703125 C-7.46113693 11.24637804 -12.00189643 12.71261305 -18.0625 14.0625 C-25.49598878 15.63928576 -25.49598878 15.63928576 -31.8125 19.625 C-34.89379183 21.56181201 -37.44082591 21.20533697 -41 21 C-40.67 22.65 -40.34 24.3 -40 26 C-41.32 25.34 -42.64 24.68 -44 24 C-43.71074321 18.50412103 -42.81480929 15.00126894 -39.7421875 10.4453125 C-35.15587167 6.64052134 -28.35915926 6.56812801 -22.625 6 C-10.79633078 4.75653235 -10.79633078 4.75653235 0 0 Z " fill="#70BD90" transform="translate(201,195)"/>
<path d="M0 0 C0.66 0.33 1.32 0.66 2 1 C1.01 1.70125 0.02 2.4025 -1 3.125 C-3.69099605 5.32959535 -3.95971924 5.64418661 -4.375 9.3125 C-4.25125 10.199375 -4.1275 11.08625 -4 12 C-3.34 12.33 -2.68 12.66 -2 13 C-2 13.66 -2 14.32 -2 15 C-0.824375 15.2165625 -0.824375 15.2165625 0.375 15.4375 C3 16 3 16 5 17 C6.99960012 17.039992 9.00047242 17.04346799 11 17 C10.01 16.34 9.02 15.68 8 15 C8.94359375 15.04640625 9.8871875 15.0928125 10.859375 15.140625 C12.14328125 15.17671875 13.4271875 15.2128125 14.75 15.25 C16.62945312 15.31960937 16.62945312 15.31960937 18.546875 15.390625 C22.24616099 15.28149521 25.19673934 14.29799852 28.65625 13.01171875 C35.4244455 10.61247338 41.62391306 10.43881092 48.75 10.5625 C49.91660156 10.55541016 51.08320313 10.54832031 52.28515625 10.54101562 C59.95172798 10.59745132 65.36924993 11.63553574 72.2109375 15.12890625 C75.00003719 16.48691767 77.93829643 16.82000753 80.9765625 17.33984375 C83 18 83 18 85 21 C87.05925139 21.72382467 87.05925139 21.72382467 89 22 C89 22.66 89 23.32 89 24 C89.66 24.33 90.32 24.66 91 25 C83.59891588 24.49823159 83.59891588 24.49823159 80.74609375 22.125 C77.25680966 19.42489965 73.96651914 18.39851933 69.75 17.25 C68.96222168 17.034646 68.17444336 16.81929199 67.36279297 16.59741211 C52.07705715 12.74626013 33.23305212 13.88347394 19 21 C12.00713811 21.46260471 5.69370397 21.05960122 -1 19 C-1 18.34 -1 17.68 -1 17 C-1.94875 16.896875 -2.8975 16.79375 -3.875 16.6875 C-7 16 -7 16 -9 13 C-8.67567568 6.94594595 -8.67567568 6.94594595 -6.75 4.25 C-4.54721579 2.67658271 -2.41227815 1.23706572 0 0 Z " fill="#81C48D" transform="translate(129,101)"/>
<path d="M0 0 C10.28116713 11.87802926 11.97191458 28.87925196 11 44 C10.53399424 46.5108069 9.91113112 48.6082808 9 51 C8.34 50.67 7.68 50.34 7 50 C6.34 50.99 5.68 51.98 5 53 C4.96132812 51.329375 4.96132812 51.329375 4.921875 49.625 C4.60478788 40.16662511 3.48889927 31.57062534 0.9375 22.453125 C-0.452554 17.33309276 -1.13964784 12.55251701 -1.125 7.25 C-1.12757813 6.30640625 -1.13015625 5.3628125 -1.1328125 4.390625 C-1 2 -1 2 0 0 Z " fill="#98C5AD" transform="translate(250,131)"/>
<path d="M0 0 C-11.06151599 12.13198528 -27.77932782 19.71264507 -44 21 C-44 20.34 -44 19.68 -44 19 C-44.66 19 -45.32 19 -46 19 C-46 17.02 -46 15.04 -46 13 C-45.40832031 12.96261719 -44.81664062 12.92523438 -44.20703125 12.88671875 C-39.03509603 12.49340583 -39.03509603 12.49340583 -34.375 10.375 C-31.0160586 8.43034972 -28.68866706 9.20440514 -25 10 C-25 9.34 -25 8.68 -25 8 C-24.175 7.731875 -23.35 7.46375 -22.5 7.1875 C-15.17391383 4.82204441 -15.17391383 4.82204441 -8.375 1.3125 C-5.42769093 -0.31627606 -3.31556822 -0.23131871 0 0 Z " fill="#22633E" transform="translate(235,223)"/>
<path d="M0 0 C0.66 0 1.32 0 2 0 C1.42040635 3.64500004 0.44335483 6.4180833 -1.375 9.625 C-1.79523438 10.38039062 -2.21546875 11.13578125 -2.6484375 11.9140625 C-3.94820239 13.92005802 -5.17128569 15.46466232 -7 17 C-7.66 17 -8.32 17 -9 17 C-9.20625 17.5775 -9.4125 18.155 -9.625 18.75 C-11.81370293 22.33151389 -15.12440465 24.51770405 -19.1875 25.5625 C-19.785625 25.706875 -20.38375 25.85125 -21 26 C-21.4125 26.474375 -21.825 26.94875 -22.25 27.4375 C-27.31651998 31.96117855 -35.62501756 31.2523038 -42 31.125 C-42.87011719 31.11597656 -43.74023438 31.10695312 -44.63671875 31.09765625 C-46.7579342 31.07434619 -48.87900562 31.03848579 -51 31 C-50.67 29.68 -50.34 28.36 -50 27 C-48.41672673 26.85351606 -46.83337626 26.70786647 -45.25 26.5625 C-44.24582031 26.46582031 -43.24164063 26.36914062 -42.20703125 26.26953125 C-40.12453617 26.09451035 -38.03761638 25.96426488 -35.94921875 25.88671875 C-24.77084695 25.37926997 -17.77630686 21.26782502 -9.8125 13.57421875 C-8 12 -8 12 -6 12 C-5.67 11.01 -5.34 10.02 -5 9 C-4.34 9 -3.68 9 -3 9 C-2.01 6.03 -1.02 3.06 0 0 Z " fill="#28B46A" transform="translate(211,191)"/>
<path d="M0 0 C0.495 0.99 0.495 0.99 1 2 C3.01669827 3.13350534 3.01669827 3.13350534 5 4 C4.38511719 3.91621094 3.77023438 3.83242187 3.13671875 3.74609375 C2.32847656 3.64425781 1.52023438 3.54242188 0.6875 3.4375 C-0.11300781 3.33308594 -0.91351563 3.22867188 -1.73828125 3.12109375 C-4.16817116 2.85244822 -4.16817116 2.85244822 -7 4 C-9.41015625 3.94921875 -9.41015625 3.94921875 -12.0625 3.6875 C-13.37927734 3.56955078 -13.37927734 3.56955078 -14.72265625 3.44921875 C-17 3 -17 3 -19 1 C-17.35 0.67 -15.7 0.34 -14 0 C-15.65 0 -17.3 0 -19 0 C-19.309375 0.928125 -19.61875 1.85625 -19.9375 2.8125 C-20.625 4.875 -21.3125 6.9375 -22 9 C-24.37109375 9.80859375 -24.37109375 9.80859375 -27.4375 10.4375 C-33.24767401 11.74565894 -38.54882017 13.62415392 -44 16 C-43.505 14.515 -43.505 14.515 -43 13 C-42.01 13 -41.02 13 -40 13 C-39.79375 12.443125 -39.5875 11.88625 -39.375 11.3125 C-37.4824414 8.12956054 -34.88455209 6.28360374 -32 4 C-31.34 3.34 -30.68 2.68 -30 2 C-30 2.66 -30 3.32 -30 4 C-29.46632812 3.566875 -28.93265625 3.13375 -28.3828125 2.6875 C-19.51569956 -3.93982317 -10.39195194 -3.05534703 0 0 Z " fill="#026037" transform="translate(195,125)"/>
<path d="M0 0 C0.268125 0.763125 0.53625 1.52625 0.8125 2.3125 C2.00531519 5.01202911 2.75666384 6.15815577 5 8 C7.45758227 8.96427641 7.45758227 8.96427641 10.125 9.625 C14.91666667 10.91666667 14.91666667 10.91666667 16 12 C18.69654854 12.07319621 21.36691458 12.09242537 24.0625 12.0625 C24.82111328 12.05798828 25.57972656 12.05347656 26.36132812 12.04882812 C28.24091871 12.0370068 30.12046899 12.01907078 32 12 C31.34 13.32 30.68 14.64 30 16 C29.278125 15.938125 28.55625 15.87625 27.8125 15.8125 C24.47140053 16.03523996 22.80314721 17.25750308 20 19 C19.34 18.67 18.68 18.34 18 18 C16.7625 18.2475 16.7625 18.2475 15.5 18.5 C13 19 13 19 11 18 C11 17.34 11 16.68 11 16 C8.6050537 14.71041353 6.44024662 13.83536665 3.8125 13.0625 C2.884375 12.711875 1.95625 12.36125 1 12 C0.67 11.01 0.34 10.02 0 9 C-2.64 8.67 -5.28 8.34 -8 8 C-6.48291727 4.46014029 -4.24676932 0 0 0 Z " fill="#394D3C" transform="translate(114,113)"/>
<path d="M0 0 C0.66 0.66 1.32 1.32 2 2 C1.33333333 3.66666667 0.66666667 5.33333333 0 7 C-0.268125 7.825 -0.53625 8.65 -0.8125 9.5 C-2.33680308 12.70905911 -4.34095634 14.6733368 -7 17 C-7.66 17 -8.32 17 -9 17 C-9.70266613 19.97574276 -9.70266613 19.97574276 -10 23 C-6.56206661 22.81870185 -6.56206661 22.81870185 -3 22 C-1.48705712 20.06402968 -1.48705712 20.06402968 -1 18 C-0.01 18 0.98 18 2 18 C2 17.34 2 16.68 2 16 C2.66 16 3.32 16 4 16 C2.49373726 19.83412335 0.40731799 21.72845467 -3 24 C-5.31847874 24.7166207 -7.65319703 25.38242027 -10 26 C-12.00812926 26.98357352 -14.00854609 27.98308736 -16 29 C-17.99172182 29.69100553 -19.99161804 30.35902703 -22 31 C-25.76756732 32.10666307 -25.76756732 32.10666307 -28 35 C-28.99 35 -29.98 35 -31 35 C-28.84925344 29.52537239 -24.00949707 26.6974215 -19 24 C-18.278125 23.855625 -17.55625 23.71125 -16.8125 23.5625 C-16.214375 23.376875 -15.61625 23.19125 -15 23 C-14.32315771 21.6718032 -13.65797594 20.3376434 -13 19 C-12.07405036 17.88886043 -11.11389755 16.80550723 -10.125 15.75 C-7.33152455 12.6022301 -5.54942813 9.44124461 -3.859375 5.6015625 C-3 4 -3 4 -1 3 C-0.67 2.01 -0.34 1.02 0 0 Z " fill="#2B8755" transform="translate(238,199)"/>
<path d="M0 0 C1.44197868 2.88395737 1.58833581 5.82430479 2 9 C3.98 9.66 5.96 10.32 8 11 C8 11.66 8 12.32 8 13 C13.94 13.66 19.88 14.32 26 15 C25.67 15.66 25.34 16.32 25 17 C24.01 17 23.02 17 22 17 C22 17.66 22 18.32 22 19 C14.8378221 19.31753498 9.38423008 19.38755065 3 16 C1.3357865 15.32723284 -0.32986582 14.65793165 -2 14 C-2 13.34 -2 12.68 -2 12 C-3.32 11.34 -4.64 10.68 -6 10 C-6.375 7.8125 -6.375 7.8125 -6 5 C-4.16038352 3.00977164 -2.20813852 1.61010101 0 0 Z " fill="#567459" transform="translate(120,107)"/>
<path d="M0 0 C-3.21720458 2.76539377 -6.10862471 3.7452674 -10.1875 4.8125 C-15.52352938 6.36360169 -19.57474997 8.29658885 -24 11.6328125 C-26.23459686 13.16036895 -28.46364039 14.07528556 -31 15 C-31 15.99 -31 16.98 -31 18 C-30.34 18.33 -29.68 18.66 -29 19 C-29 19.99 -29 20.98 -29 22 C-26.69 22.33 -24.38 22.66 -22 23 C-22 23.66 -22 24.32 -22 25 C-17.71 25.33 -13.42 25.66 -9 26 C-9 26.33 -9 26.66 -9 27 C-11.5215021 27.08172936 -14.04029917 27.14083373 -16.5625 27.1875 C-17.26697266 27.21263672 -17.97144531 27.23777344 -18.69726562 27.26367188 C-23.88003315 27.33532304 -27.36264182 26.32172598 -32 24 C-32 23.34 -32 22.68 -32 22 C-32.99 21.67 -33.98 21.34 -35 21 C-35.27734375 18.2578125 -35.27734375 18.2578125 -35 15 C-27.06480173 5.68980912 -12.16116933 -0.43745213 0 0 Z " fill="#85A980" transform="translate(159,92)"/>
<path d="M0 0 C0.66 0 1.32 0 2 0 C2.99 3.3 3.98 6.6 5 10 C5.33 10 5.66 10 6 10 C6.33 8.35 6.66 6.7 7 5 C7.66 5 8.32 5 9 5 C10.98291501 13.40755963 11.0945242 22.87687398 8 31 C7.34 30.67 6.68 30.34 6 30 C5.34 30.99 4.68 31.98 4 33 C3.96261719 31.82824219 3.92523438 30.65648437 3.88671875 29.44921875 C3.57016577 21.39384612 3.18134824 13.88157605 0.62109375 6.1640625 C0 4 0 4 0 0 Z " fill="#93C4A6" transform="translate(251,151)"/>
<path d="M0 0 C0.33 0 0.66 0 1 0 C1.98142381 4.24733832 2.30920379 8.47324533 2.5625 12.8125 C2.60568359 13.50537109 2.64886719 14.19824219 2.69335938 14.91210938 C2.79861453 16.60788686 2.89972863 18.30392052 3 20 C3.66 19.34 4.32 18.68 5 18 C6.43680971 24.13909603 5.32637691 28.20377279 3 34 C1.88625 34.1546875 1.88625 34.1546875 0.75 34.3125 C-2.17014018 35.04253504 -3.73187554 36.06789398 -6 38 C-5.690625 37.319375 -5.38125 36.63875 -5.0625 35.9375 C-3.86400641 32.62401773 -3.48906483 29.48458692 -3 26 C-2.67257813 25.15050781 -2.34515625 24.30101562 -2.0078125 23.42578125 C-0.65387714 18.82345059 -0.53845017 14.39910708 -0.375 9.625 C-0.33632812 8.69816406 -0.29765625 7.77132812 -0.2578125 6.81640625 C-0.16412409 4.5444623 -0.07840652 2.27251404 0 0 Z " fill="#6ABE8F" transform="translate(253,161)"/>
<path d="M0 0 C0.495 0.99 0.495 0.99 1 2 C-1.66601879 1.58984326 -4.31104045 1.17424674 -6.92773438 0.51245117 C-13.0142831 -1.02684661 -18.80172863 -1.33401468 -25.0625 -1.3125 C-26.00416016 -1.32861328 -26.94582031 -1.34472656 -27.91601562 -1.36132812 C-34.01160591 -1.36557001 -38.42135709 -0.45337003 -44 2 C-49.2748829 3.78969241 -53.49914138 4.19301258 -59 4 C-44.81463166 -7.14564655 -15.99882408 -7.65039755 0 0 Z " fill="#098C51" transform="translate(201,121)"/>
<path d="M0 0 C0.66 0.33 1.32 0.66 2 1 C1.01 1.70125 0.02 2.4025 -1 3.125 C-3.69099605 5.32959535 -3.95971924 5.64418661 -4.375 9.3125 C-4.25125 10.199375 -4.1275 11.08625 -4 12 C-3.34 12.33 -2.68 12.66 -2 13 C-2 13.66 -2 14.32 -2 15 C-0.824375 15.2165625 -0.824375 15.2165625 0.375 15.4375 C3 16 3 16 5 17 C6.5195764 17.15123831 8.04472502 17.24881693 9.5703125 17.31640625 C10.46621094 17.35830078 11.36210937 17.40019531 12.28515625 17.44335938 C13.22230469 17.48267578 14.15945312 17.52199219 15.125 17.5625 C16.06988281 17.60568359 17.01476562 17.64886719 17.98828125 17.69335938 C20.32537092 17.79959072 22.6625683 17.90163176 25 18 C16.42605656 22.28697172 8.14634145 21.81425891 -1 19 C-1 18.34 -1 17.68 -1 17 C-1.94875 16.896875 -2.8975 16.79375 -3.875 16.6875 C-7 16 -7 16 -9 13 C-8.67567568 6.94594595 -8.67567568 6.94594595 -6.75 4.25 C-4.54721579 2.67658271 -2.41227815 1.23706572 0 0 Z " fill="#68936D" transform="translate(129,101)"/>
<path d="M0 0 C0.99 0 1.98 0 3 0 C2.53680089 4.72463088 1.90108294 8.17057052 -1 12 C-1.66 12 -2.32 12 -3 12 C-3.33 12.99 -3.66 13.98 -4 15 C-5.890625 15.625 -5.890625 15.625 -8.25 16 C-12.11069965 16.72082683 -14.64188484 17.94781851 -18 20 C-20.8125 20.1875 -20.8125 20.1875 -23 20 C-20.14693203 17.67527795 -17.45925163 16.2491742 -14 15 C-14 14.34 -14 13.68 -14 13 C-12.27737445 11.48502541 -10.49564485 10.036807 -8.6875 8.625 C-4.65825043 5.51136817 -4.65825043 5.51136817 -1.33203125 1.7109375 C-0.89246094 1.14632812 -0.45289063 0.58171875 0 0 Z " fill="#5A8B6E" transform="translate(214,179)"/>
<path d="M0 0 C0 0.66 0 1.32 0 2 C-6.59976672 7.88155681 -16.0909656 10.1567942 -24.75 10.1875 C-26.35875 10.0946875 -26.35875 10.0946875 -28 10 C-28 9.01 -28 8.02 -28 7 C-24.16093719 3.98518472 -20.01631804 3.17797961 -15.3125 2.375 C-1.83760441 -0.03994792 -1.83760441 -0.03994792 0 0 Z " fill="#7FB193" transform="translate(195,199)"/>
<path d="M0 0 C0.33 0.99 0.66 1.98 1 3 C2.906359 3.69885767 2.906359 3.69885767 5.1875 4 C8.24134589 4.56393398 10.03450391 5.02038868 12.75 6.625 C17.98566143 8.84008753 23.39106412 8.22469031 29 8 C29 7.34 29 6.68 29 6 C32.57350041 5.18101378 35.85659479 4.88188042 39.51953125 4.90234375 C40.54111328 4.90556641 41.56269531 4.90878906 42.61523438 4.91210938 C43.67033203 4.92048828 44.72542969 4.92886719 45.8125 4.9375 C46.88693359 4.94201172 47.96136719 4.94652344 49.06835938 4.95117188 C51.71229683 4.96292271 54.35611952 4.97935213 57 5 C57 5.33 57 5.66 57 6 C56.14003418 6.01401855 56.14003418 6.01401855 55.26269531 6.02832031 C45.19143911 6.23435082 36.10649769 6.44628671 26.62109375 10.1328125 C18.30332201 12.88474294 10.05959195 10.61897765 2 8 C2 7.01 2 6.02 2 5 C1.01 4.67 0.02 4.34 -1 4 C-0.67 2.68 -0.34 1.36 0 0 Z " fill="#96D197" transform="translate(128,106)"/>
<path d="M0 0 C0 3 0 3 -1.5 5.875 C-2.99645634 8.99261738 -3.47018061 10.61469958 -3 14 C-1.13910279 16.29261997 -1.13910279 16.29261997 1.79736328 16.22705078 C2.95993652 16.21657715 4.12250977 16.20610352 5.3203125 16.1953125 C6.57714844 16.18886719 7.83398438 16.18242187 9.12890625 16.17578125 C10.44761719 16.15902344 11.76632813 16.14226562 13.125 16.125 C14.46483721 16.11496983 15.80468152 16.10584404 17.14453125 16.09765625 C20.42986573 16.07402075 23.71484465 16.04107234 27 16 C17.73709091 22.17527272 5.52338168 19.7995177 -5 19 C-6.54277632 14.37167105 -6.78109361 9.82026238 -6 5 C-4.2080015 2.54971634 -2.65013676 1.60112429 0 0 Z " fill="#0D9053" transform="translate(161,205)"/>
<path d="M0 0 C-1.293513 4.35675772 -2.96690613 7.87800365 -5.4375 11.6875 C-6.03433594 12.61949219 -6.63117188 13.55148438 -7.24609375 14.51171875 C-8.72919555 16.6158075 -9.99181351 18.39880597 -12 20 C-12.99 20 -13.98 20 -15 20 C-15 20.66 -15 21.32 -15 22 C-15.639375 22.28875 -16.27875 22.5775 -16.9375 22.875 C-19.15206079 23.82823451 -19.15206079 23.82823451 -20 26 C-23.45043117 27.15014372 -26.35282355 28 -30 28 C-27.58620126 26.06896101 -25.1676749 24.54793014 -22.4375 23.125 C-19.11644466 21.2980655 -17.8457621 19.32237179 -16 16 C-15.01 16 -14.02 16 -13 16 C-12.73058594 15.43410156 -12.46117187 14.86820313 -12.18359375 14.28515625 C-10.94295056 11.88985503 -9.55594153 9.68336245 -8.0625 7.4375 C-7.55847656 6.67308594 -7.05445313 5.90867188 -6.53515625 5.12109375 C-2.82872928 0 -2.82872928 0 0 0 Z " fill="#5FAA7B" transform="translate(255,195)"/>
<path d="M0 0 C-4.644211 5.09365078 -9.94290336 10.49220855 -17.02734375 11.37890625 C-19.71195438 11.37545115 -22.32988469 11.26950697 -25 11 C-25 10.01 -25 9.02 -25 8 C-24.175 7.731875 -23.35 7.46375 -22.5 7.1875 C-15.17391383 4.82204441 -15.17391383 4.82204441 -8.375 1.3125 C-5.42769093 -0.31627606 -3.31556822 -0.23131871 0 0 Z " fill="#38784F" transform="translate(235,223)"/>
<path d="M0 0 C0 0.33 0 0.66 0 1 C-1.546875 1.12375 -1.546875 1.12375 -3.125 1.25 C-8.1891877 2.23016536 -11.38406731 4.38406731 -15 8 C-15.39764263 9.98821313 -15.73775349 11.98944339 -16 14 C-16.99 14 -17.98 14 -19 14 C-18.67 15.65 -18.34 17.3 -18 19 C-19.32 18.34 -20.64 17.68 -22 17 C-21.67433594 10.81238283 -20.65066582 6.34945689 -16 2 C-10.75596062 -0.31947895 -5.62933794 -0.2297689 0 0 Z " fill="#5A9873" transform="translate(179,202)"/>
<path d="M0 0 C0.99 0 1.98 0 3 0 C2.67 1.65 2.34 3.3 2 5 C2.33 5 2.66 5 3 5 C3.33 5.66 3.66 6.32 4 7 C3.06398754 8.41764994 2.1261208 9.83407568 1.1875 11.25 C0.66542969 12.03890625 0.14335937 12.8278125 -0.39453125 13.640625 C-1.87134122 15.81092481 -3.40689873 17.91413768 -5 20 C-6.32 19.67 -7.64 19.34 -9 19 C-8.0409375 17.63875 -8.0409375 17.63875 -7.0625 16.25 C-5.25858263 13.40746354 -4.73878315 12.09365442 -4 9 C-3.34210358 7.40413879 -2.65352657 5.82063893 -1.9375 4.25 C-1.57527344 3.45078125 -1.21304688 2.6515625 -0.83984375 1.828125 C-0.56269531 1.22484375 -0.28554687 0.6215625 0 0 Z " fill="#58B77F" transform="translate(247,191)"/>
<path d="M0 0 C0.66 0.66 1.32 1.32 2 2 C1.33333333 3.66666667 0.66666667 5.33333333 0 7 C-0.268125 7.825 -0.53625 8.65 -0.8125 9.5 C-2.33680308 12.70905911 -4.34095634 14.6733368 -7 17 C-7.66 17 -8.32 17 -9 17 C-9.103125 17.7425 -9.20625 18.485 -9.3125 19.25 C-10.04253504 22.17014018 -11.06789398 23.73187554 -13 26 C-13.99 25.67 -14.98 25.34 -16 25 C-14.95164286 21.27250795 -13.1966134 18.97938007 -10.625 16.1875 C-7.14903477 12.38634051 -5.1954488 8.63483635 -3 4 C-2.34 3.67 -1.68 3.34 -1 3 C-0.67 2.01 -0.34 1.02 0 0 Z " fill="#2EAD6B" transform="translate(238,199)"/>
<path d="M0 0 C-8.84480738 5.29015666 -16.70941856 8.18328719 -27 9 C-25.2890625 5.15625 -25.2890625 5.15625 -22.6875 3.75 C-19.95237173 2.98670839 -17.82121482 3 -15 3 C-11.87812749 2.07008053 -8.86456262 0.94954294 -5.8125 -0.1875 C-3 -1 -3 -1 0 0 Z " fill="#1F4D30" transform="translate(218,235)"/>
<path d="M0 0 C0.48828125 2.01822917 0.9765625 4.03645833 1.46484375 6.0546875 C1.94846992 8.0585657 1.94846992 8.0585657 3 10 C9.83496496 13.56172687 16.32083054 15.61604153 24 16 C24 16.33 24 16.66 24 17 C16.8378221 17.31753498 11.38423008 17.38755065 5 14 C3.3357865 13.32723284 1.67013418 12.65793165 0 12 C0 11.34 0 10.68 0 10 C-1.32 9.34 -2.64 8.68 -4 8 C-4.36780384 3.46375267 -4.36780384 3.46375267 -2.5625 1.1875 C-1 0 -1 0 0 0 Z " fill="#47604A" transform="translate(118,109)"/>
<path d="M0 0 C1.98 0 3.96 0 6 0 C6 0.66 6 1.32 6 2 C6.80824219 2.18175781 7.61648437 2.36351563 8.44921875 2.55078125 C9.51785156 2.80214844 10.58648437 3.05351563 11.6875 3.3125 C12.74324219 3.55613281 13.79898438 3.79976563 14.88671875 4.05078125 C20.11852561 5.64592437 23.20273305 7.52000497 25.8125 12.375 C26.23144531 13.12523437 26.65039062 13.87546875 27.08203125 14.6484375 C28.10178673 17.26074727 28.1718892 19.22030603 28 22 C27.34 22 26.68 22 26 22 C25.67 20.02 25.34 18.04 25 16 C24.34 16 23.68 16 23 16 C22.443125 14.906875 21.88625 13.81375 21.3125 12.6875 C19.32050482 9.25684163 17.74147876 7.57973547 14 6 C11.72693447 5.49487433 9.44541435 5.05183803 7.16015625 4.60546875 C4.15454853 3.76302897 2.21770067 2.14616194 0 0 Z " fill="#169D5B" transform="translate(202,123)"/>
<path d="M0 0 C0.66 0 1.32 0 2 0 C2.33 0.99 2.66 1.98 3 3 C6.51190809 4.22969878 6.51190809 4.22969878 10 5 C10 8.63 10 12.26 10 16 C7.92638016 13.99788429 6.13375903 12.21887841 4.625 9.75 C3.0342019 7.64062962 3.0342019 7.64062962 -0.1875 7.75 C-1.115625 7.8325 -2.04375 7.915 -3 8 C-2.01 5.36 -1.02 2.72 0 0 Z " fill="#80C59C" transform="translate(230,117)"/>
<path d="M0 0 C4.97346456 4.97346456 3.30046445 13.81003878 3.32568359 20.36328125 C3.25147802 28.03635923 2.95168003 35.19272637 -1 42 C-1.99 42.495 -1.99 42.495 -3 43 C-2.69964844 41.82308594 -2.39929688 40.64617187 -2.08984375 39.43359375 C1.0861698 26.01947761 1.18529322 13.69423676 0 0 Z " fill="#169E5C" transform="translate(239,160)"/>
<path d="M0 0 C10.51789976 2.96658711 10.51789976 2.96658711 13 7 C13.73582227 10.33865627 14.17124619 13.5807845 14 17 C13.34 17.99 12.68 18.98 12 20 C11.74605469 19.32453125 11.49210938 18.6490625 11.23046875 17.953125 C10.88628906 17.06109375 10.54210937 16.1690625 10.1875 15.25 C9.85105469 14.36828125 9.51460937 13.4865625 9.16796875 12.578125 C8.10119567 9.9656519 8.10119567 9.9656519 6.36328125 7.859375 C5 6 5 6 5 3 C4.360625 2.87625 3.72125 2.7525 3.0625 2.625 C2.381875 2.41875 1.70125 2.2125 1 2 C0.67 1.34 0.34 0.68 0 0 Z " fill="#24AA68" transform="translate(220,128)"/>
<path d="M0 0 C0.82693359 0.00451172 1.65386719 0.00902344 2.50585938 0.01367188 C4.52477146 0.02534189 6.54364574 0.04327282 8.5625 0.0625 C8.5625 0.7225 8.5625 1.3825 8.5625 2.0625 C7.84707031 2.1126123 7.13164062 2.16272461 6.39453125 2.21435547 C3.11662106 2.44811329 -0.16039507 2.69272182 -3.4375 2.9375 C-4.56285156 3.01613281 -5.68820313 3.09476562 -6.84765625 3.17578125 C-12.94792979 3.63954474 -18.54679831 4.42619398 -24.4375 6.0625 C-27.4375 6.1875 -27.4375 6.1875 -29.4375 6.0625 C-26.71900976 4.64495769 -24.02802452 3.48486267 -21.125 2.5 C-20.40699219 2.25121094 -19.68898437 2.00242187 -18.94921875 1.74609375 C-12.65375921 0.03271052 -6.46724596 -0.06774714 0 0 Z " fill="#64B47F" transform="translate(179.4375,112.9375)"/>
<path d="M0 0 C0.66 0 1.32 0 2 0 C2.20496094 0.71027344 2.40992188 1.42054688 2.62109375 2.15234375 C2.89050781 3.07144531 3.15992188 3.99054688 3.4375 4.9375 C3.70433594 5.85402344 3.97117188 6.77054688 4.24609375 7.71484375 C4.79026051 9.9402493 4.79026051 9.9402493 6 11 C6.29289936 13.75739597 6.51609871 16.48472592 6.6875 19.25 C6.74744141 20.01441406 6.80738281 20.77882812 6.86914062 21.56640625 C7.14266079 25.90526044 7.06953153 29.03538022 5 33 C4.67 33 4.34 33 4 33 C3.96261719 31.82824219 3.92523438 30.65648437 3.88671875 29.44921875 C3.57016577 21.39384612 3.18134824 13.88157605 0.62109375 6.1640625 C0 4 0 4 0 0 Z " fill="#7FC09D" transform="translate(251,151)"/>
<path d="M0 0 C0.5775 0.20625 1.155 0.4125 1.75 0.625 C0.76 2.11 0.76 2.11 -0.25 3.625 C-1.91666667 3.625 -3.58333333 3.625 -5.25 3.625 C-6.93029994 4.60191857 -8.59928604 5.59888051 -10.25 6.625 C-10.91 6.295 -11.57 5.965 -12.25 5.625 C-13.075 5.79 -13.9 5.955 -14.75 6.125 C-17.25 6.625 -17.25 6.625 -19.25 5.625 C-19.25 4.965 -19.25 4.305 -19.25 3.625 C-20.57 2.965 -21.89 2.305 -23.25 1.625 C-19.5 0.5 -19.5 0.5 -17.25 1.625 C-15.46140489 1.74707871 -13.66771619 1.80048448 -11.875 1.8125 C-10.91851562 1.82667969 -9.96203125 1.84085937 -8.9765625 1.85546875 C-5.5611522 1.56677361 -3.31549544 -0.55258257 0 0 Z " fill="#0F3621" transform="translate(144.25,125.375)"/>
<path d="M0 0 C-6.32891467 6.61159572 -12.16865655 12.70298507 -21.875 13.125 C-22.57625 13.08375 -23.2775 13.0425 -24 13 C-21.80588642 10.80588642 -19.83908475 9.80336768 -17.0625 8.4375 C-16.18722656 8.00308594 -15.31195313 7.56867188 -14.41015625 7.12109375 C-12 6 -12 6 -9 5 C-8.690625 4.360625 -8.38125 3.72125 -8.0625 3.0625 C-6.10713217 -0.73321403 -3.92606625 -1.30868875 0 0 Z " fill="#65B286" transform="translate(204,196)"/>
<path d="M0 0 C0.33 0 0.66 0 1 0 C2.59295252 7.04321983 3.1710655 12.85650045 2 20 C1.34 20 0.68 20 0 20 C0 19.34 0 18.68 0 18 C-0.66 18 -1.32 18 -2 18 C-4.32590854 14.36576791 -4.16265833 11.22911669 -4 7 C-3.01 7 -2.02 7 -1 7 C-0.67 4.69 -0.34 2.38 0 0 Z " fill="#2FB371" transform="translate(238,140)"/>
<path d="M0 0 C-3.21720458 2.76539377 -6.10862471 3.7452674 -10.1875 4.8125 C-15.57585339 6.37451705 -19.63969614 8.35063335 -24.09765625 11.73046875 C-26.08007791 13.05344009 -27.67204659 13.56966563 -30 14 C-26.91695201 9.43708898 -24.04549962 8.01819985 -19 6 C-18.54496094 5.51144531 -18.08992187 5.02289063 -17.62109375 4.51953125 C-15.45512411 2.48926091 -13.48410513 2.05273407 -10.625 1.3125 C-9.68914062 1.06113281 -8.75328125 0.80976562 -7.7890625 0.55078125 C-5.10828866 0.02138474 -2.72330511 -0.10398074 0 0 Z " fill="#9EBAA0" transform="translate(159,92)"/>
<path d="M0 0 C1.06863281 0.01804688 2.13726562 0.03609375 3.23828125 0.0546875 C4.04652344 0.07789063 4.85476562 0.10109375 5.6875 0.125 C5.3575 0.785 5.0275 1.445 4.6875 2.125 C2.31640625 2.8359375 2.31640625 2.8359375 -0.75 3.5 C-6.54072525 4.85232506 -11.86880919 6.75241794 -17.3125 9.125 C-16.9825 8.135 -16.6525 7.145 -16.3125 6.125 C-15.3225 6.125 -14.3325 6.125 -13.3125 6.125 C-13.085625 5.50625 -12.85875 4.8875 -12.625 4.25 C-9.81038916 -0.30698898 -4.91269136 -0.10797124 0 0 Z " fill="#0E3825" transform="translate(168.3125,131.875)"/>
<path d="M0 0 C0.99 0 1.98 0 3 0 C2.25 6.75 2.25 6.75 0 9 C-2.30911405 9.8473813 -4.64474673 10.52421344 -7.00390625 11.21875 C-9.18727401 11.81628991 -9.18727401 11.81628991 -10 14 C-11.32 13.67 -12.64 13.34 -14 13 C-13.24074219 12.39671875 -12.48148438 11.7934375 -11.69921875 11.171875 C-10.70535156 10.37265625 -9.71148437 9.5734375 -8.6875 8.75 C-7.70136719 7.96109375 -6.71523437 7.1721875 -5.69921875 6.359375 C-2.99488714 4.17211444 -2.99488714 4.17211444 -1.33203125 1.703125 C-0.89246094 1.14109375 -0.45289063 0.5790625 0 0 Z " fill="#3C7856" transform="translate(214,179)"/>
<path d="M0 0 C2 3 2 3 1.75 6.3125 C1.0662376 9.67433178 0.17734651 12.78191955 -1 16 C-2.65 16 -4.3 16 -6 16 C-4.43551329 10.3856009 -2.83604813 5.13189662 0 0 Z " fill="#75B28D" transform="translate(257,179)"/>
<path d="M0 0 C0.33 0 0.66 0 1 0 C1.04898438 0.92683594 1.09796875 1.85367188 1.1484375 2.80859375 C1.22320312 4.00613281 1.29796875 5.20367187 1.375 6.4375 C1.47941406 8.22994141 1.47941406 8.22994141 1.5859375 10.05859375 C1.72257813 11.02925781 1.85921875 11.99992188 2 13 C2.66 13.33 3.32 13.66 4 14 C3.67 14.99 3.34 15.98 3 17 C2.34 17 1.68 17 1 17 C0.01 15.02 -0.98 13.04 -2 11 C-2.66 12.32 -3.32 13.64 -4 15 C-4.34650743 9.34037856 -3.48055609 5.96111218 -1 1 C-0.67 0.67 -0.34 0.34 0 0 Z " fill="#265637" transform="translate(154,211)"/>
<path d="M0 0 C-2.56476004 2.56476004 -4.5473925 2.76227886 -8.0625 3.5625 C-11.84012518 4.16117361 -11.84012518 4.16117361 -15 6 C-17.67058851 6.14115161 -20.32432238 6.04247107 -23 6 C-15.70088662 0.26498234 -9.05329574 -0.18106591 0 0 Z " fill="#157E4B" transform="translate(165,119)"/>
<path d="M0 0 C2 1 2 1 3.10546875 4.2890625 C3.48163676 5.73042082 3.8412734 7.17615794 4.1875 8.625 C4.36893555 9.38031006 4.55037109 10.13562012 4.73730469 10.91381836 C6.38133221 18.47524051 6.02336822 25.35810907 5 33 C4.67 33 4.34 33 4 33 C3.87882813 31.81664062 3.75765625 30.63328125 3.6328125 29.4140625 C2.47790027 18.15444628 2.47790027 18.15444628 0.3671875 7.04296875 C-0.06009667 4.66563237 -0.05889125 2.41033479 0 0 Z " fill="#37BD77" transform="translate(240,146)"/>
<path d="M0 0 C0 3 0 3 -1.5 5.875 C-2.99645634 8.99261738 -3.47018061 10.61469958 -3 14 C-2.34 14.66 -1.68 15.32 -1 16 C-1 16.99 -1 17.98 -1 19 C-2.32 19 -3.64 19 -5 19 C-6.54277632 14.37167105 -6.78109361 9.82026238 -6 5 C-4.2080015 2.54971634 -2.65013676 1.60112429 0 0 Z " fill="#447156" transform="translate(161,205)"/>
<path d="M0 0 C0.66 0 1.32 0 2 0 C0.83242263 3.32310483 -0.14948857 5.83361132 -3 8 C-3.99 8 -4.98 8 -6 8 C-6 8.66 -6 9.32 -6 10 C-6.639375 10.28875 -7.27875 10.5775 -7.9375 10.875 C-10.15206079 11.82823451 -10.15206079 11.82823451 -11 14 C-14.45043117 15.15014372 -17.35282355 16 -21 16 C-18.66686972 14.13349578 -16.36866715 12.64791053 -13.75 11.1875 C-8.50449204 8.24185838 -3.36423085 5.04634627 0 0 Z " fill="#50996B" transform="translate(246,207)"/>
<path d="M0 0 C0.66 0 1.32 0 2 0 C0.49373726 3.83412335 -1.59268201 5.72845467 -5 8 C-7.31847874 8.7166207 -9.65319703 9.38242027 -12 10 C-13.093125 10.556875 -14.18625 11.11375 -15.3125 11.6875 C-16.199375 12.120625 -17.08625 12.55375 -18 13 C-18.66 12.67 -19.32 12.34 -20 12 C-18.63601123 9.27202246 -16.70247798 8.78214031 -13.98046875 7.6484375 C-12 7 -12 7 -8.1875 6.5625 C-7.135625 6.376875 -6.08375 6.19125 -5 6 C-3.48705712 4.06402968 -3.48705712 4.06402968 -3 2 C-2.01 2 -1.02 2 0 2 C0 1.34 0 0.68 0 0 Z " fill="#43885C" transform="translate(240,215)"/>
<path d="M0 0 C0 3 0 3 -2.1875 5.5 C-8.375 11 -8.375 11 -12 11 C-10.68573326 7.05719978 -9.25269486 4.62022641 -6 2 C-2.75 0.75 -2.75 0.75 0 0 Z " fill="#4FA978" transform="translate(210,193)"/>
<path d="M0 0 C2 2 2 2 2 6 C3.32 6 4.64 6 6 6 C7.75 8.5 7.75 8.5 9 11 C7.35 11 5.7 11 4 11 C3.67 10.01 3.34 9.02 3 8 C0.36 7.67 -2.28 7.34 -5 7 C-3.70700306 4.11562221 -2.34058637 2.12780579 0 0 Z " fill="#23392A" transform="translate(111,114)"/>
<path d="M0 0 C0.66 0 1.32 0 2 0 C1.67 2.31 1.34 4.62 1 7 C-0.32 7 -1.64 7 -3 7 C-3.2475 7.5775 -3.495 8.155 -3.75 8.75 C-5.16683317 11.3002997 -6.87627537 13.01785701 -9 15 C-9.66 14.67 -10.32 14.34 -11 14 C-10.45730469 13.32453125 -9.91460937 12.6490625 -9.35546875 11.953125 C-8.64003906 11.06109375 -7.92460937 10.1690625 -7.1875 9.25 C-6.47980469 8.36828125 -5.77210938 7.4865625 -5.04296875 6.578125 C-3.77333781 4.97591387 -2.53898095 3.34423066 -1.36328125 1.671875 C-0.91339844 1.12015625 -0.46351563 0.5684375 0 0 Z " fill="#2B6646" transform="translate(217,172)"/>
<path d="M0 0 C-0.90492188 0.47179687 -0.90492188 0.47179687 -1.828125 0.953125 C-8.03563738 4.17593521 -8.03563738 4.17593521 -13 9 C-13 9.99 -13 10.98 -13 12 C-12.34 12.33 -11.68 12.66 -11 13 C-11 13.66 -11 14.32 -11 15 C-12.65 14.67 -14.3 14.34 -16 14 C-16.5625 11.4375 -16.5625 11.4375 -16 8 C-12.49898965 4.38677778 -5.23089977 -2.61544989 0 0 Z " fill="#92B093" transform="translate(141,98)"/>
<path d="M0 0 C0.99 0.33 1.98 0.66 3 1 C1.64908476 5.42117715 -0.1650145 7.443343 -4 10 C-6.3125 10.75 -6.3125 10.75 -8 11 C-7.75 8.625 -7.75 8.625 -7 6 C-5.125 4.9375 -5.125 4.9375 -3 4 C-1.26574227 1.96682993 -1.26574227 1.96682993 0 0 Z " fill="#45AF73" transform="translate(236,210)"/>
<path d="M0 0 C-1.4980087 3.81311305 -3.62648024 5.72483551 -7 8 C-9.4375 8.625 -9.4375 8.625 -12 9 C-14.00744615 9.64389782 -16.00945124 10.30562253 -18 11 C-14.50912907 6.9957657 -12.35048061 5.37328935 -7 5 C-7 4.34 -7 3.68 -7 3 C-2.61538462 0 -2.61538462 0 0 0 Z " fill="#177749" transform="translate(214,225)"/>
<path d="M0 0 C1.26706235 3.80118706 0.57172296 5.3850372 -1 9 C-1.99 9.33 -2.98 9.66 -4 10 C-2.8905928 6.51329166 -1.73662334 3.22515763 0 0 Z M-5 10 C-5 10.99 -5 11.98 -5 13 C-5.61875 13.2475 -6.2375 13.495 -6.875 13.75 C-9.13023317 14.81201152 -9.13023317 14.81201152 -9.9375 16.9375 C-11.39201093 19.76096239 -13.175051 20.65814923 -16 22 C-16.66 21.67 -17.32 21.34 -18 21 C-16.948125 20.278125 -15.89625 19.55625 -14.8125 18.8125 C-11.54444502 16.48575092 -8.75973363 13.9220709 -6 11 C-5.67 10.67 -5.34 10.34 -5 10 Z " fill="#0FA65D" transform="translate(212,194)"/>
<path d="M0 0 C1.32 0.33 2.64 0.66 4 1 C-9.20046637 11.49710288 -9.20046637 11.49710288 -15 11 C-11.25 8 -11.25 8 -9 8 C-9 7.34 -9 6.68 -9 6 C-8.01 6 -7.02 6 -6 6 C-6 5.34 -6 4.68 -6 4 C-4.02 3.01 -2.04 2.02 0 1 C0 0.67 0 0.34 0 0 Z " fill="#376443" transform="translate(231,223)"/>
<path d="M0 0 C0.66 0.33 1.32 0.66 2 1 C-0.20907618 12.89141005 -0.20907618 12.89141005 -2 17 C-2.99 17.33 -3.98 17.66 -5 18 C-5.125 15.125 -5.125 15.125 -5 12 C-4.34 11.34 -3.68 10.68 -3 10 C-2.39688385 8.31238142 -1.86149763 6.59985524 -1.375 4.875 C-1.11460937 3.96492187 -0.85421875 3.05484375 -0.5859375 2.1171875 C-0.39257812 1.41851562 -0.19921875 0.71984375 0 0 Z " fill="#148C51" transform="translate(218,176)"/>
<path d="M0 0 C0.33 0.99 0.66 1.98 1 3 C2.906359 3.69885767 2.906359 3.69885767 5.1875 4 C9.20195805 4.75671893 12.41584958 5.97817156 16 8 C16 8.33 16 8.66 16 9 C10.30172207 9.59981873 4.86264584 7.96703814 0 5 C-0.85546875 2.921875 -0.85546875 2.921875 -1 1 C-0.67 0.67 -0.34 0.34 0 0 Z " fill="#AAD2A0" transform="translate(128,106)"/>
<path d="M0 0 C0.33 1.32 0.66 2.64 1 4 C0.01 4.33 -0.98 4.66 -2 5 C-2.103125 5.7425 -2.20625 6.485 -2.3125 7.25 C-3.04253504 10.17014018 -4.06789398 11.73187554 -6 14 C-6.99 13.67 -7.98 13.34 -9 13 C-7.47987323 7.59510481 -3.72614782 4.01507372 0 0 Z " fill="#279D62" transform="translate(231,211)"/>
<path d="M0 0 C0.99 0 1.98 0 3 0 C2.46972205 4.5073626 0.80388725 7.4539073 -2 11 C-2.99 11 -3.98 11 -5 11 C-4.35731563 9.35293447 -3.71076198 7.70737825 -3.0625 6.0625 C-2.70285156 5.14597656 -2.34320313 4.22945312 -1.97265625 3.28515625 C-1 1 -1 1 0 0 Z " fill="#54C384" transform="translate(247,191)"/>
<path d="M0 0 C2.21447392 2.21447392 2.92637276 3.76702078 3.11352539 6.90112305 C3.10567017 7.94586792 3.10567017 7.94586792 3.09765625 9.01171875 C3.09282227 10.14770508 3.09282227 10.14770508 3.08789062 11.30664062 C3.07951172 12.09232422 3.07113281 12.87800781 3.0625 13.6875 C3.05798828 14.48478516 3.05347656 15.28207031 3.04882812 16.10351562 C3.0370585 18.06904257 3.01912348 20.03453085 3 22 C2.67 22 2.34 22 2 22 C1.66198848 19.45887768 1.32946621 16.91723254 1 14.375 C0.90460938 13.66214844 0.80921875 12.94929687 0.7109375 12.21484375 C0.18393899 8.11178391 -0.10466984 4.14754258 0 0 Z " fill="#0D9555" transform="translate(239,160)"/>
<path d="M0 0 C1.125 1.6875 1.125 1.6875 2 4 C0.96025074 7.68638375 -0.97020505 10.77078076 -3 14 C-4.11739094 10.64782719 -3.99087769 8.38549877 -3 5 C-1.4375 2.1875 -1.4375 2.1875 0 0 Z " fill="#49BD7D" transform="translate(241,198)"/>
<path d="M0 0 C0.66 0.33 1.32 0.66 2 1 C1.01 1.70125 0.02 2.4025 -1 3.125 C-3.59765431 5.27541665 -3.94920901 5.67620742 -4.5 9.1875 C-4.25414188 12.12747383 -4.25414188 12.12747383 -2 14 C-3.65 14 -5.3 14 -7 14 C-7.42575 10.89810712 -7.61361622 8.08355042 -7 5 C-4.95866823 2.75913956 -2.69030764 1.36574291 0 0 Z " fill="#769078" transform="translate(129,101)"/>
<path d="M0 0 C0.66 0.33 1.32 0.66 2 1 C-6.32978723 11.18085106 -6.32978723 11.18085106 -13 13 C-10.02575322 8.99620626 -6.94676137 6.00297061 -3 3 C-2.34 3 -1.68 3 -1 3 C-0.67 2.01 -0.34 1.02 0 0 Z " fill="#32BD72" transform="translate(206,200)"/>
<path d="M0 0 C3.07870742 0.43981535 5.85851342 0.94753868 8.78125 2.03125 C12.31786562 3.09566829 15.19241648 3.20015477 18.875 3.125 C20.02742188 3.10695313 21.17984375 3.08890625 22.3671875 3.0703125 C23.23601562 3.04710938 24.10484375 3.02390625 25 3 C20.49976144 6.00015904 16.28101759 5.46301171 11 5 C7.26114136 4.20243829 3.63472308 3.18110924 0 2 C0 1.34 0 0.68 0 0 Z " fill="#96C591" transform="translate(130,112)"/>
<path d="M0 0 C-2.64 2.64 -5.28 5.28 -8 8 C-8.66 7.67 -9.32 7.34 -10 7 C-9.02640613 3.72518425 -8.30933359 2.23794891 -5.5625 0.125 C-3 -1 -3 -1 0 0 Z " fill="#60A17C" transform="translate(204,196)"/>
<path d="M0 0 C0.33 0 0.66 0 1 0 C1 2.64 1 5.28 1 8 C2.918125 8.185625 2.918125 8.185625 4.875 8.375 C8.75 8.75 8.75 8.75 11 11 C2.625 11.32211538 2.625 11.32211538 0 9 C-1.42682927 2.85365854 -1.42682927 2.85365854 0 0 Z " fill="#708A6E" transform="translate(121,107)"/>
<path d="M0 0 C0 0.99 0 1.98 0 3 C-0.66 3 -1.32 3 -2 3 C-2.33 3.99 -2.66 4.98 -3 6 C-4.65 6.33 -6.3 6.66 -8 7 C-7.34 6.01 -6.68 5.02 -6 4 C-6.99 3.67 -7.98 3.34 -9 3 C-5.55930376 0.70620251 -4.27709699 0 0 0 Z " fill="#439267" transform="translate(213,188)"/>
<path d="M0 0 C5.83187853 0.40219852 9.36303283 1.13586069 14 5 C15.375 7.25 15.375 7.25 16 9 C15.01 8.67 14.02 8.34 13 8 C13 7.34 13 6.68 13 6 C11.58398286 5.51891725 10.16715563 5.04021859 8.75 4.5625 C7.96109375 4.29566406 7.1721875 4.02882812 6.359375 3.75390625 C4.25178012 3.08045292 2.15246027 2.50849405 0 2 C0 1.34 0 0.68 0 0 Z " fill="#40BD7B" transform="translate(218,126)"/>
<path d="M0 0 C0.99 0 1.98 0 3 0 C4.45184478 4.53701494 5.23509196 8.18061476 5 13 C4.67 12.34 4.34 11.68 4 11 C3.34 11 2.68 11 2 11 C-0.32590854 7.36576791 -0.16265833 4.22911669 0 0 Z " fill="#149B59" transform="translate(234,147)"/>
<path d="M0 0 C0.66 0 1.32 0 2 0 C2.33 0.99 2.66 1.98 3 3 C6.51190809 4.22969878 6.51190809 4.22969878 10 5 C10 6.65 10 8.3 10 10 C9.113125 9.360625 8.22625 8.72125 7.3125 8.0625 C4.30788572 6.19170243 2.4489629 5.40576034 -1 5 C-0.67 3.35 -0.34 1.7 0 0 Z " fill="#96CAAA" transform="translate(230,117)"/>
<path d="M0 0 C1.44120286 2.88240573 1.56149506 5.82083921 2 9 C2.30903983 10.33917261 2.62942911 11.67653254 3 13 C2.34 12.67 1.68 12.34 1 12 C1 11.34 1 10.68 1 10 C-0.32 9.34 -1.64 8.68 -3 8 C-3.36923077 3.44615385 -3.36923077 3.44615385 -1.5 1.1875 C-1.005 0.795625 -0.51 0.40375 0 0 Z " fill="#3F5544" transform="translate(117,109)"/>
<path d="M0 0 C4.12751449 0.60698743 7.3321148 2.03810791 11 4 C7.30581799 5.231394 4.7943739 4.64432764 1 4 C0.67 2.68 0.34 1.36 0 0 Z " fill="#075A36" transform="translate(173,234)"/>
<path d="M0 0 C1.32 0 2.64 0 4 0 C4 0.66 4 1.32 4 2 C4.66 2 5.32 2 6 2 C6 2.66 6 3.32 6 4 C8.97 4.99 11.94 5.98 15 7 C15 7.33 15 7.66 15 8 C9.33303323 8.87184104 6.24643982 6.57430047 1.7578125 3.5078125 C1.17773438 3.01023438 0.59765625 2.51265625 0 2 C0 1.34 0 0.68 0 0 Z " fill="#045833" transform="translate(158,226)"/>
<path d="M0 0 C3.4375 0.8125 3.4375 0.8125 7 2 C7.33 2.99 7.66 3.98 8 5 C9.87387216 5.80212628 9.87387216 5.80212628 12.0625 6.1875 C12.79597656 6.34605469 13.52945313 6.50460938 14.28515625 6.66796875 C14.85105469 6.77753906 15.41695312 6.88710937 16 7 C12.06204091 8.22419163 9.83887763 7.48320272 6 6 C6 5.34 6 4.68 6 4 C5.195625 3.71125 4.39125 3.4225 3.5625 3.125 C1 2 1 2 0 0 Z " fill="#3CAB6D" transform="translate(202,119)"/>
<path d="M0 0 C-1.31860889 4.61513112 -3.21355437 8.09897612 -6 12 C-6.33 11.01 -6.66 10.02 -7 9 C-6.34 8.01 -5.68 7.02 -5 6 C-4.835 5.13375 -4.67 4.2675 -4.5 3.375 C-4.335 2.59125 -4.17 1.8075 -4 1 C-2 0 -2 0 0 0 Z " fill="#639F77" transform="translate(255,195)"/>
<path d="M0 0 C1.35125084 4.05375253 0.12285914 7.03739386 -1 11 C-1.16886719 11.67417969 -1.33773437 12.34835938 -1.51171875 13.04296875 C-1.94228985 14.71358463 -2.4644918 16.36000614 -3 18 C-3.66 18.33 -4.32 18.66 -5 19 C-4.86722656 18.443125 -4.73445312 17.88625 -4.59765625 17.3125 C-3.41779695 12.2141299 -2.56750461 7.20212559 -2 2 C-1.34 2 -0.68 2 0 2 C0 1.34 0 0.68 0 0 Z " fill="#2EB66E" transform="translate(244,180)"/>
<path d="M0 0 C1.48034764 0.47550561 2.95925021 0.95551216 4.4375 1.4375 C5.26121094 1.70433594 6.08492187 1.97117188 6.93359375 2.24609375 C9 3 9 3 10 4 C10.04063832 5.66617115 10.042721 7.33388095 10 9 C9.67 8.01 9.34 7.02 9 6 C8.01 6.33 7.02 6.66 6 7 C5.67 5.68 5.34 4.36 5 3 C4.360625 2.87625 3.72125 2.7525 3.0625 2.625 C2.381875 2.41875 1.70125 2.2125 1 2 C0.67 1.34 0.34 0.68 0 0 Z " fill="#2BB26F" transform="translate(220,128)"/>
<path d="M0 0 C0.89203125 0.00902344 1.7840625 0.01804688 2.703125 0.02734375 C3.37859375 0.03894531 4.0540625 0.05054688 4.75 0.0625 C3.63671875 1.55078125 3.63671875 1.55078125 1.75 3.0625 C-1.16796875 3.35546875 -1.16796875 3.35546875 -4.4375 3.25 C-5.52417969 3.22292969 -6.61085937 3.19585937 -7.73046875 3.16796875 C-8.97763672 3.11576172 -8.97763672 3.11576172 -10.25 3.0625 C-9.25 1.0625 -9.25 1.0625 -7.515625 0.44140625 C-4.96855716 0.01543111 -2.58143831 -0.03396629 0 0 Z " fill="#094E30" transform="translate(169.25,129.9375)"/>
<path d="M0 0 C0.99 0 1.98 0 3 0 C3 0.66 3 1.32 3 2 C4.98 2.66 6.96 3.32 9 4 C9 4.66 9 5.32 9 6 C10.32 6.33 11.64 6.66 13 7 C10.69 6.67 8.38 6.34 6 6 C6 5.34 6 4.68 6 4 C4.35 3.67 2.7 3.34 1 3 C0.67 2.01 0.34 1.02 0 0 Z " fill="#9CD89F" transform="translate(212,119)"/>
<path d="M0 0 C0 0.33 0 0.66 0 1 C-1.546875 1.12375 -1.546875 1.12375 -3.125 1.25 C-7.332719 2.06439723 -9.59632265 3.46703081 -13 6 C-13.99 6.495 -13.99 6.495 -15 7 C-14.70488433 4.14721517 -14.18767059 3.16421177 -12 1.25 C-7.93726584 -0.4428059 -4.34076193 -0.25533894 0 0 Z " fill="#799F84" transform="translate(179,202)"/>
<path d="M0 0 C0.66 0 1.32 0 2 0 C4.29648649 2.5614657 5 3.47967572 5 7 C3.68 7 2.36 7 1 7 C0.67 4.69 0.34 2.38 0 0 Z " fill="#2E7C4E" transform="translate(155,217)"/>
<path d="M0 0 C-5.5 5 -5.5 5 -10 5 C-10 4.34 -10 3.68 -10 3 C-3.375 -1.125 -3.375 -1.125 0 0 Z " fill="#5FC28A" transform="translate(173,211)"/>
<path d="M0 0 C0.66 0 1.32 0 2 0 C2.2475 0.7425 2.495 1.485 2.75 2.25 C4.09147301 5.20124062 5.60905526 6.84814974 8 9 C7.67 9.66 7.34 10.32 7 11 C6.34 9.68 5.68 8.36 5 7 C3.68 7 2.36 7 1 7 C0.67 4.69 0.34 2.38 0 0 Z " fill="#304536" transform="translate(112,113)"/>
<path d="M0 0 C0 3 0 3 -2.5 5.6875 C-3.325 6.450625 -4.15 7.21375 -5 8 C-5.66 7.67 -6.32 7.34 -7 7 C-3.375 1.125 -3.375 1.125 0 0 Z " fill="#3EAB70" transform="translate(210,193)"/>
<path d="M0 0 C1.98 0 3.96 0 6 0 C6 0.66 6 1.32 6 2 C8.475 2.99 8.475 2.99 11 4 C8 5 8 5 5.95703125 4.22265625 C5.24933594 3.83980469 4.54164063 3.45695312 3.8125 3.0625 C3.09707031 2.68222656 2.38164062 2.30195312 1.64453125 1.91015625 C1.10183594 1.60980469 0.55914062 1.30945313 0 1 C0 0.67 0 0.34 0 0 Z " fill="#0B9255" transform="translate(202,123)"/>
<path d="M0 0 C1.32 0.33 2.64 0.66 4 1 C1.93243723 3.7972908 0.85559629 4.02692273 -2.6875 4.6875 C-3.780625 4.790625 -4.87375 4.89375 -6 5 C-3 3 -3 3 -1 3 C-0.67 2.01 -0.34 1.02 0 0 Z " fill="#0F9F59" transform="translate(190,216)"/>
<path d="M0 0 C0.33 0.66 0.66 1.32 1 2 C-1.47812494 5.45167403 -2.79606135 7.23163306 -7 8 C-6.02133662 6.85373678 -5.04205413 5.70800212 -4.0625 4.5625 C-3.51722656 3.92441406 -2.97195312 3.28632813 -2.41015625 2.62890625 C-1.63204305 1.73008851 -0.84063472 0.84063472 0 0 Z " fill="#62B985" transform="translate(250,196)"/>
<path d="M0 0 C3 3 3 3 3.07421875 5.04296875 C2.71614583 7.02864583 2.35807292 9.01432292 2 11 C1.67 11 1.34 11 1 11 C0.67 7.37 0.34 3.74 0 0 Z " fill="#A7C9B7" transform="translate(253,138)"/>
<path d="M0 0 C1.65 0 3.3 0 5 0 C3.57868897 2.84262206 1.81328011 3.59335994 -1 5 C-3.8125 5.1875 -3.8125 5.1875 -6 5 C-2.25 2 -2.25 2 0 2 C0 1.34 0 0.68 0 0 Z " fill="#315C3D" transform="translate(222,229)"/>
<path d="M0 0 C1.33332095 2.6666419 0.67102033 4.16680303 0 7 C-1.65 7 -3.3 7 -5 7 C-3.70700306 4.11562221 -2.34058637 2.12780579 0 0 Z " fill="#1A261F" transform="translate(111,114)"/>
<path d="M0 0 C0 0.66 0 1.32 0 2 C-5.2734375 5.22265625 -5.2734375 5.22265625 -7 6 C-7.66 5.67 -8.32 5.34 -9 5 C-4.32258065 0 -4.32258065 0 0 0 Z " fill="#A9CAAA" transform="translate(138,100)"/>
<path d="M0 0 C0.33 0.66 0.66 1.32 1 2 C-0.98 4.97 -0.98 4.97 -3 8 C-3.99 7.67 -4.98 7.34 -6 7 C-4.77065985 3.31197956 -3.06140622 2.27643027 0 0 Z " fill="#349E65" transform="translate(228,217)"/>
<path d="M0 0 C4.6875 0.78125 4.6875 0.78125 9.375 1.5625 C10.674375 1.7790625 10.674375 1.7790625 12 2 C12 2.33 12 2.66 12 3 C10.37581255 3.08090971 8.75048255 3.13914995 7.125 3.1875 C5.76761719 3.23970703 5.76761719 3.23970703 4.3828125 3.29296875 C3.20332031 3.14794922 3.20332031 3.14794922 2 3 C1.34 2.01 0.68 1.02 0 0 Z " fill="#293C2E" transform="translate(121,126)"/>
<path d="M0 0 C-0.99 1.485 -0.99 1.485 -2 3 C-4.97 2.505 -4.97 2.505 -8 2 C-6.14210462 -1.71579076 -3.44525918 -1.06921837 0 0 Z " fill="#0C5130" transform="translate(146,126)"/>
<path d="M0 0 C0.33 0.66 0.66 1.32 1 2 C3.12576782 2.46651207 3.12576782 2.46651207 5.5625 2.625 C6.38878906 2.69976562 7.21507812 2.77453125 8.06640625 2.8515625 C8.70449219 2.90054688 9.34257812 2.94953125 10 3 C10 3.33 10 3.66 10 4 C6.7 4.33 3.4 4.66 0 5 C0 3.35 0 1.7 0 0 Z " fill="#49B277" transform="translate(159,214)"/>
<path d="M0 0 C0.33 0.66 0.66 1.32 1 2 C0.06421005 4.35981813 -0.93347808 6.69631264 -2 9 C-2.66 8.67 -3.32 8.34 -4 8 C-2.87548273 5.0280615 -1.77706209 2.66559313 0 0 Z " fill="#3ABC76" transform="translate(241,198)"/>
<path d="M0 0 C0.625 1.875 0.625 1.875 1 4 C0.34 4.66 -0.32 5.32 -1 6 C-3.125 5.625 -3.125 5.625 -5 5 C-3.35 3.35 -1.7 1.7 0 0 Z " fill="#33895A" transform="translate(215,182)"/>
<path d="M0 0 C1.231394 3.69418201 0.64432764 6.2056261 0 10 C-2 9 -2 9 -3 6 C-1.5625 2.8125 -1.5625 2.8125 0 0 Z " fill="#105435" transform="translate(219,162)"/>
<path d="M0 0 C2.64 0 5.28 0 8 0 C8 0.66 8 1.32 8 2 C8.66 2.33 9.32 2.66 10 3 C2.25 2.25 2.25 2.25 0 0 Z " fill="#6EC186" transform="translate(210,123)"/>
<path d="M0 0 C2.75 -0.25 2.75 -0.25 6 0 C8.375 2 8.375 2 10 4 C6.44219804 3.39009109 3.3171411 2.4216319 0 1 C0 0.67 0 0.34 0 0 Z " fill="#239F61" transform="translate(196,119)"/>
<path d="M0 0 C0.66 0.66 1.32 1.32 2 2 C0 4 0 4 -3.125 4.125 C-4.548125 4.063125 -4.548125 4.063125 -6 4 C-4.03617993 2.49440461 -2.21736634 1.10868317 0 0 Z " fill="#025934" transform="translate(173,126)"/>
</svg>
